<?xml version="1.0" encoding="UTF-8"?>
<svg id="_圖層_1" data-name="圖層 1" xmlns="http://www.w3.org/2000/svg" version="1.1" viewBox="0 0 52 52">
  <defs>
    <style>
      .cls-1 {
        fill: #000;
        stroke-width: 0px;
      }
    </style>
  </defs>
  <path class="cls-1" d="M36.6,28.2c3-2.9,4.6-6.7,4.6-10.9,0-8.3-6.8-15.1-15.2-15.1s-15.2,6.8-15.2,15.2,1.6,8,4.6,10.9c-8,4-13.1,12.3-13.1,21.2v.2h47.3v-.2c.1-9-5-17.3-13-21.3ZM26,5c6.8,0,12.4,5.6,12.4,12.4s-1.4,6.7-4,9.1l-.6.5h-.2c0,.1-.2.3-.2.3l-.8.5c-2,1.3-4.3,2-6.7,2s-4.7-.7-6.7-2l-.8-.5h0l-.2-.2h0c0-.1-.6-.7-.6-.7-2.6-2.4-4-5.6-4-9.1,0-6.8,5.6-12.3,12.4-12.3ZM17.9,30.2c2.4,1.5,5.2,2.3,8.1,2.3s5.7-.8,8.1-2.3c6.9,2.9,11.7,9.3,12.6,16.6H5.3c.9-7.3,5.7-13.7,12.6-16.6Z"/>
</svg>