<?xml version="1.0" encoding="UTF-8"?>
<svg id="_圖層_1" data-name="圖層 1" xmlns="http://www.w3.org/2000/svg" version="1.1" viewBox="0 0 52 50.8">
  <defs>
    <style>
      .cls-1 {
        fill: #000;
        stroke-width: 0px;
      }
    </style>
  </defs>
  <g>
    <path class="cls-1" d="M7.1,36.5c2,2.9,5.4,6.9,9.6,9.8,2.2,1.5,4.2,2.6,7.2,3,2.9.4,5.2,0,7.6-1.8,0,0,2.2-1.6,2.8-2.2.2,0,.5-.4.5-.4.3-.3.4-.5.5-.8,0-.9-.8-2.4-2.5-3.9-2-1.8-3.8-2.8-4.9-2.8h-.1c-.4,0-.7,0-1.2.4-.1,0-1.2.8-1.7,1.3l-.7.6c-.7.7-1.6,1.6-2.8,1.7-2.1.2-4-1.3-5.2-2.4-2.2-2-4.1-4.4-5.6-7-.6-1-1.8-3.2-1.1-5.4.4-1.1,1.3-1.8,2.1-2.3l.4-.3c.5-.3,1-.8,1.3-1,.7-.5,1.4-1.2,1.5-2,.1-1.1-.5-2.8-1.7-4.9-.6-1-2-3.3-3.2-3.5-.4-.1-.8.1-1.3.5-.5.3-1.6,1.1-2.5,1.9l-.5.4c-2.3,2.3-3.5,5-3.5,8.2.1,5.2,2.5,9.3,5,12.9Z"/>
    <path class="cls-1" d="M5.5,14.3h0Z"/>
  </g>
  <path class="cls-1" d="M24.6,22.2c-.3.4-.7.8-1.2,1.2s-1.1.9-1.8,1.5c-.8.6-1.5,1.2-2,1.7s-1,1-1.2,1.4c-.6.9-.9,2.1-.9,3.4h11v-2.7h-7c.2-.2.5-.5.9-.8s.8-.8,1.4-1.2c.9-.8,1.7-1.4,2.3-2,.6-.6,1.1-1.1,1.4-1.6s.6-1,.7-1.5c.2-.5.2-1.1.2-1.7s-.1-1.3-.3-1.9-.6-1.1-1-1.5-1-.7-1.6-1c-.6-.2-1.4-.4-2.2-.4s-1.5.1-2.1.4c-.6.3-1.2.6-1.7,1.1s-.8,1-1.1,1.7c-.3.7-.5,1.4-.5,2.2h3c0-.5.1-.9.3-1.2.1-.4.3-.7.5-.9.2-.2.4-.4.7-.5.3-.1.6-.2.9-.2.7,0,1.3.2,1.7.6.4.4.6.9.6,1.6s-.1.8-.2,1.2c-.3.3-.5.7-.8,1.1h0Z"/>
  <path class="cls-1" d="M39.4,31.5v-3.6h2v-2.7h-2v-10h-2.3l-7.1,10.4v2.3h6.4v3.6h3ZM33.2,25.2l3.2-4.8v4.8h-3.2Z"/>
  <path class="cls-1" d="M29,2.6c-6.7,0-12.6,3.1-16.4,8,.7.5,1.3,1.2,1.8,1.8,3.3-4.5,8.6-7.4,14.7-7.4,10.2,0,18.4,8.2,18.4,18.4s-4.4,13.8-10.7,16.7c.5.7,1,1.5,1.3,2.2,7-3.4,11.8-10.5,11.8-18.8,0-11.6-9.4-20.9-20.9-20.9Z"/>
</svg>