<?xml version="1.0" encoding="UTF-8"?>
<svg id="_圖層_1" data-name="圖層 1" xmlns="http://www.w3.org/2000/svg" xmlns:xlink="http://www.w3.org/1999/xlink" version="1.1" viewBox="0 0 50 50">
  <defs>
    <style>
      .cls-1 {
        fill: url(#_未命名漸層);
      }

      .cls-1, .cls-2 {
        stroke-width: 0px;
      }

      .cls-2 {
        fill: #fff;
      }
    </style>
    <linearGradient id="_未命名漸層" data-name="未命名漸層" x1="12.5" y1="2715.2" x2="37.5" y2="2758.5" gradientTransform="translate(0 -2711.9)" gradientUnits="userSpaceOnUse">
      <stop offset="0" stop-color="#ffa23e"/>
      <stop offset="1" stop-color="#f37a3f"/>
    </linearGradient>
  </defs>
  <circle class="cls-1" cx="25" cy="25" r="25"/>
  <path class="cls-2" d="M23.9,15.8v1.5s-4-.3-4.6,3.4,2.9,4.9,4.5,5.5,2.7.9,2.7,2-4.5.8-7.3-.8v3.6s2.3,1.3,4.7,1.2v2.1h2.3v-2.3s4.6-.2,4.6-4.2-4.8-4.7-4.8-4.7c0,0-2.9-.9-2.7-1.8.4-1.6,4.6-.7,5.9.2l1.4-3.1s-3.2-1.2-4.4-1v-1.5h-2.3Z"/>
  <g>
    <path class="cls-2" d="M23.3,10.9c6.6-.8,12.7,3.3,14.8,9.2h-2.3l3.2,6.9,3.2-6.9h-1.9c-2-7.1-9.3-11.9-17.1-11.1-6.5.7-11.9,5.2-13.5,11.6l1.9.5c1.3-5.5,6-9.6,11.7-10.2Z"/>
    <path class="cls-2" d="M26.7,39.1c-5.9.7-11.4-2.5-14-7.4l2-.5-4.4-5.6-1.8,7.3,2.2-.6c2.9,5.9,9.4,9.5,16.2,8.8,4-.5,7.6-2.4,10.1-5.3,1.1-1.2,2-2.7,2.7-4.3l-1.8-.7c-1.9,4.5-6.2,7.7-11.2,8.3Z"/>
  </g>
</svg>