<?xml version="1.0" encoding="utf-8"?>
<!-- Generator: Adobe Illustrator 24.3.0, SVG Export Plug-In . SVG Version: 6.00 Build 0)  -->
<svg version="1.1" id="_x3C_圖層_x3E_" xmlns="http://www.w3.org/2000/svg" xmlns:xlink="http://www.w3.org/1999/xlink" x="0px"
	 y="0px" width="55px" height="55px" viewBox="0 0 55 55" style="enable-background:new 0 0 55 55;" xml:space="preserve">
<style type="text/css">
	.st0{fill:#399FD8;}
	.st1{fill:#FFA71A;}
</style>
<g>
	<path class="st0" d="M22.2,14.8c-0.8,0-2.4,0-4.6-0.1l-1,1.6L8.8,24l0.6-9.3c-2.1,0-3.4,0.1-3.9,0.1c-0.8,0-2.2,0-4.2-0.1v1.6
		c0,1.3-0.1,3.6-0.3,6.8c-0.2,4.7-0.4,8.3-0.6,11C0.3,35.6,0.3,38,0,40.3c2.3-0.1,3.6-0.1,4.2-0.1l4,0.1l0.2-7.6l18.2-18
		C23.9,14.7,22.4,14.8,22.2,14.8z"/>
	<path class="st0" d="M19.1,28.6c-0.8-1.3-1.4-2.2-1.4-2.2l-4.9,5.1c1.2,2,2.6,5.5,5.1,7.1c2.5,1.7,8.1,1.6,12,1.6
		C28.2,39.7,23.7,36,19.1,28.6z"/>
</g>
<g>
	<path class="st1" d="M51.2,14.7c-1.1,0-2.5,0-4.4,0c-0.1,0-0.1,1-0.2,2.9c-0.1,2-0.2,4.3-0.4,6.6c-0.2,2.8-0.3,4.7-0.4,5.4
		c-0.1,0.8-0.3,1.4-0.4,1.9c-0.2,0.5-0.4,0.9-0.7,1.3c-0.2,0.3-0.4,0.6-0.8,0.8c-0.3,0.3-0.7,0.4-1.1,0.6c-0.5,0.2-1.1,0.3-1.6,0.3
		c-0.7,0-1.3-0.1-2-0.3c-0.6-0.3-1.1-0.6-1.5-1c-0.3-0.3-0.4-0.6-0.5-0.9c1.5,6.8,6.6,7.8,9.8,7.2c0.9-0.3,1.7-0.6,2.5-0.9
		c1.2-0.6,2.1-1.3,2.7-2.1c0.6-0.8,1.1-1.7,1.3-2.8c0.3-1.1,0.4-2.8,0.4-5.4c0-0.2,0-0.4,0-0.6l0.9-13
		C54.8,14.7,51.2,14.7,51.2,14.7z"/>
	<path class="st1" d="M36.9,34.8c-0.1-2.5,0-5.5,0-5.5c0-0.5,0-1.4,0.1-2.7c0.1-1.3,0.1-2.7,0.3-4.1l0.6-7.8c-1.6,0-2.9,0.1-3.9,0.1
		c-0.8,0-2.1,0-4.1-0.1L29.6,22c-0.1,1.5-0.1,2.6-0.2,3.4l-0.3,2.9c-0.1,1.1-0.1,1.9-0.2,2.6c0,0.6-0.1,1.1-0.1,1.3
		c0,0.9,0.1,1.7,0.3,2.4c0.2,0.7,0.4,1.3,0.8,1.8c0.3,0.5,0.8,0.9,1.4,1.4c0.7,0.5,1.5,0.9,2.4,1.3c0.9,0.4,2,0.7,3.2,0.9
		c1.1,0.2,2.2,0.3,3.3,0.3C38.8,39.7,37,37.5,36.9,34.8z"/>
</g>
</svg>
