<?xml version="1.0" encoding="utf-8"?>
<!-- Generator: Adobe Illustrator 26.0.3, SVG Export Plug-In . SVG Version: 6.00 Build 0)  -->
<svg version="1.1" id="分離模式" xmlns="http://www.w3.org/2000/svg" xmlns:xlink="http://www.w3.org/1999/xlink" x="0px"
	 y="0px" width="36px" height="36px" viewBox="0 0 36 36" style="enable-background:new 0 0 36 36;" xml:space="preserve">
<style type="text/css">
	.st0{fill:#FF4848;}
</style>
<g>
	<path class="st0" d="M21.5,9.9l-1.6,4.1c-0.4,1.2-1.8,1.9-3,1.6c-1.4-0.3-3.2-0.4-4.6,0.1c-2.4,1.2-2.7,5.1-0.3,5.8
		c1.8,0.5,4.9-0.3,6.5-0.8c1.2-0.3,2.4,0.1,3,1.2l1.2,3.4c0.8,1.4,0.5,2.3-0.8,3.2c-3,1.8-9.3,4.3-15.2,0.4
		c-9.1-5.8-5.5-21.5,4.1-23c4.6-0.7,7.4-0.3,9.2,0.3C21.4,6.7,22.1,8.4,21.5,9.9z"/>
	<path class="st0" d="M33.7,6.9c-0.4-0.5-0.9-0.9-1.5-1.2c-0.7-0.4-1.5-0.5-2.2-0.5c-1.2,0-2.2,0.4-3,1.2C26.4,7.2,26,8,26,8.9
		c-0.1,0.9,0.1,1.9,0.7,2.8c0.5,0.8,1.5,1.5,2.4,1.8c0.3,0.1,0.7,0.1,0.9,0.1c0.1,0,0.4,0,0.5,0c0.5,0,0.9-0.1,1.5-0.4
		c0.5-0.3,0.9-0.5,1.2-0.8C34.6,11.1,34.9,8.6,33.7,6.9z"/>
	<path class="st0" d="M34.2,15.7c-0.1-0.5-0.7-1.1-1.2-1.2c-0.5-0.1-1.1-0.3-1.8-0.3s-1.4,0-2.2,0.1c-0.4,0.1-0.8,0.3-1.2,0.4
		c-0.5,0.1-0.9,0.5-1.2,1.1c-0.1,0.4-0.3,0.8-0.4,1.4c0,0.3-0.1,0.5-0.1,0.9c0,0.3,0,0.5-0.1,0.8c0,0,0,0,0,0.1c0,0.3,0,0.7,0,1.1
		c0,0.4,0,0.8,0,1.2v2.4c0,0.8,0,1.8,0.1,2.6v0.8c0,0.5,0.1,1.1,0.1,1.4c0,0.5,0.1,1.1,0.4,1.6l0.1,0.1c0.4,0.4,0.9,0.7,1.6,0.7h2.2
		c0,0,0,0,0.1,0c0.3,0,0.5,0,0.7-0.1c0.3,0,0.5,0,0.8-0.1c0.4-0.1,0.8-0.3,1.2-0.5c0.4-0.4,0.5-0.9,0.5-1.1c0.1-0.4,0.1-0.8,0.1-1.2
		v-0.3c0-0.4,0.1-0.8,0.1-1.2c0-0.4,0-0.8,0.1-1.2c0.1-0.5,0.1-1.1,0.1-1.6V18C34.5,17.2,34.5,16.5,34.2,15.7z"/>
	<path class="st0" d="M21.5,9.9l-1.6,4.1c-0.4,1.2-1.8,1.9-3,1.6c-1.4-0.3-3.2-0.4-4.6,0.1c-2.4,1.2-2.7,5.1-0.3,5.8
		c1.8,0.5,4.9-0.3,6.5-0.8c1.2-0.3,2.4,0.1,3,1.2l1.2,3.4c0.8,1.4,0.5,2.3-0.8,3.2c-3,1.8-9.3,4.3-15.2,0.4
		c-9.1-5.8-5.5-21.5,4.1-23c4.6-0.7,7.4-0.3,9.2,0.3C21.4,6.7,22.1,8.4,21.5,9.9z"/>
</g>
</svg>
