<?xml version="1.0" encoding="utf-8"?>
<!-- Generator: Adobe Illustrator 26.0.3, SVG Export Plug-In . SVG Version: 6.00 Build 0)  -->
<svg version="1.1" id="栝鍣_1" xmlns="http://www.w3.org/2000/svg" xmlns:xlink="http://www.w3.org/1999/xlink" x="0px" y="0px"
	 width="47px" height="42px" viewBox="0 0 47 42" style="enable-background:new 0 0 47 42;" xml:space="preserve">
<style type="text/css">
	.st0{fill:url(#XMLID_00000169549919281653936530000003704036244522581427_);}
	
		.st1{opacity:0.5;clip-path:url(#SVGID_00000026137144162324000430000013778678537203361720_);fill:#AF0022;enable-background:new    ;}
	.st2{fill:#FFFFFF;}
</style>
<g id="侹禖嶱鼨懧鎀_4">
	<g>
		<g>
			
				<linearGradient id="XMLID_00000050640987530837236640000000362537105468526983_" gradientUnits="userSpaceOnUse" x1="35.2966" y1="42.9313" x2="16.8387" y2="12.0233" gradientTransform="matrix(1 0 0 -1 0 41.89)">
				<stop  offset="0" style="stop-color:#D000AA"/>
				<stop  offset="1" style="stop-color:#FF2E2E"/>
			</linearGradient>
			<path id="XMLID_49_" style="fill:url(#XMLID_00000050640987530837236640000000362537105468526983_);" d="M32.37,35.12
				c6.22-4.04,9.13-9.9,9.13-16.84c0-10.23-8.52-18.47-18.85-17.99C13.44,0.71,5.97,8.18,5.52,17.38
				C5.15,25.1,9.65,31.82,16.21,34.73v4.84c0,2.38,0.82,2.5,2.99,1.75C19.2,41.32,26.15,39.16,32.37,35.12z"/>
		</g>
		<g>
			<defs>
				<path id="SVGID_1_" d="M32.37,35.12c6.22-4.04,9.13-9.9,9.13-16.84c0-10.23-8.52-18.47-18.85-17.99
					C13.44,0.71,5.97,8.18,5.52,17.38C5.15,25.1,9.65,31.82,16.21,34.73v4.84c0,2.38,0.82,2.5,2.99,1.75
					C19.2,41.32,26.15,39.16,32.37,35.12z"/>
			</defs>
			<clipPath id="SVGID_00000157307639955005820410000015505029099856902538_">
				<use xlink:href="#SVGID_1_"  style="overflow:visible;"/>
			</clipPath>
			
				<path style="opacity:0.5;clip-path:url(#SVGID_00000157307639955005820410000015505029099856902538_);fill:#AF0022;enable-background:new    ;" d="
				M16.21,34.85v2.72c1.32,0.28,2.68,0.43,4.08,0.43c3.18,0,6.18-0.76,8.82-2.12c0.06-0.03,0.02-0.11-0.04-0.1
				c-1.63,0.44-3.34,0.68-5.1,0.68C21.21,36.46,18.59,35.88,16.21,34.85z"/>
		</g>
	</g>
</g>
<g>
	<path class="st2" d="M12.19,16.92c-0.12,0.05-0.25,0.04-0.37-0.01c-0.12-0.07-0.2-0.16-0.25-0.26c-0.04-0.13-0.02-0.27,0.05-0.42
		c0.35-0.83,0.62-1.83,0.8-2.99c-0.01-0.02-0.01-0.04,0-0.05c0.06-0.57,0.1-1.12,0.1-1.65c0-0.16,0.04-0.29,0.12-0.39
		c0.07-0.09,0.18-0.15,0.33-0.15c0.13,0,0.24,0.04,0.34,0.12c0.15,0.17,0.18,0.81,0.07,1.94c0.34,0.61,0.63,1.05,0.87,1.32
		c0-1.36,0-2.7,0-4.01h-1.92c-0.17,0-0.29-0.05-0.37-0.14c-0.09-0.09-0.13-0.21-0.13-0.36c0.01-0.13,0.05-0.25,0.13-0.34
		c0.1-0.09,0.22-0.14,0.37-0.14h1.92c0-0.44,0-0.87,0-1.29h-1.53c-0.17,0-0.29-0.05-0.37-0.14c-0.1-0.12-0.14-0.23-0.14-0.38
		c0.01-0.13,0.05-0.25,0.13-0.34c0.1-0.09,0.22-0.14,0.37-0.14h1.53c0.02-0.78,0.06-1.2,0.14-1.27c0.09-0.09,0.21-0.13,0.36-0.13
		c0.14,0.01,0.26,0.05,0.35,0.13c0.1,0.1,0.16,0.22,0.16,0.37c0,0.3,0,0.6,0,0.89h1.23c0.16,0.01,0.28,0.05,0.36,0.13
		c0.09,0.09,0.13,0.21,0.13,0.36c-0.01,0.13-0.05,0.25-0.13,0.34c-0.09,0.1-0.21,0.15-0.36,0.15h-1.23c0,0.43,0,0.86,0,1.29h1.42
		c0.16,0.01,0.28,0.05,0.36,0.13c0.09,0.09,0.13,0.21,0.13,0.36c-0.01,0.13-0.05,0.25-0.13,0.34c-0.09,0.1-0.21,0.15-0.36,0.15
		h-1.42c0,0.52,0,1.05,0,1.58h1.33c0.16,0.01,0.28,0.05,0.36,0.13c0.09,0.09,0.13,0.21,0.13,0.36c-0.01,0.13-0.05,0.25-0.13,0.34
		c-0.09,0.1-0.21,0.15-0.36,0.15h-1.33c0,0.75,0,1.51,0,2.28c0.02,0.02,0.05,0.03,0.08,0.04c0.8,0.38,1.98,0.57,3.53,0.57h3.74
		c0.17,0,0.31,0.05,0.41,0.14c0.1,0.1,0.15,0.22,0.16,0.37c0,0.14-0.05,0.27-0.15,0.37s-0.25,0.15-0.42,0.15h-3.36
		c-0.88-0.02-1.71-0.08-2.51-0.18c-1.46-0.19-2.65-0.9-3.59-2.12C12.77,16.04,12.45,16.83,12.19,16.92z M17.73,7.39
		c-0.18,0-0.31-0.05-0.39-0.14c-0.09-0.09-0.13-0.2-0.13-0.34c0.01-0.14,0.05-0.25,0.13-0.33c0.1-0.08,0.23-0.12,0.39-0.12h4.09
		c0.3,0,0.54,0.09,0.74,0.26c0.16,0.17,0.24,0.4,0.24,0.67c0,1.46-0.12,2.39-0.36,2.79c-0.1,0.18-0.29,0.31-0.56,0.39
		c-0.6,0.2-1.19,0.18-1.8-0.06c-0.18-0.08-0.29-0.18-0.35-0.3c-0.06-0.13-0.06-0.28,0-0.43c0.14-0.32,0.39-0.41,0.75-0.28
		c0.39,0.17,0.69,0.21,0.92,0.12c0.08-0.03,0.14-0.09,0.19-0.19c0.05-0.1,0.09-0.31,0.12-0.63c0.05-0.74,0.01-1.16-0.11-1.28
		c-0.1-0.08-0.22-0.12-0.37-0.12h-1.21c-0.25,1.35-0.82,2.43-1.72,3.22c-0.6,0.51-1.05,0.72-1.38,0.64
		c-0.13-0.05-0.22-0.13-0.28-0.25c-0.14-0.33-0.05-0.56,0.27-0.69c1.13-0.57,1.85-1.54,2.14-2.92L17.73,7.39z M18.04,15.23
		c-0.21-0.01-0.37-0.08-0.47-0.23c-0.14-0.17-0.2-0.36-0.19-0.56v-2.62c0-0.18,0.06-0.34,0.19-0.46c0.14-0.13,0.29-0.2,0.47-0.2
		h3.94c0.23-0.01,0.43,0.06,0.58,0.2c0.13,0.12,0.2,0.27,0.2,0.46v2.62c0,0.21-0.08,0.4-0.25,0.55c-0.15,0.15-0.33,0.23-0.53,0.24
		H18.04z M18.77,12.09c-0.14,0-0.24,0.03-0.29,0.08c-0.07,0.08-0.1,0.18-0.1,0.3v1.44c0.01,0.13,0.04,0.23,0.1,0.29
		c0.06,0.06,0.16,0.1,0.29,0.1h2.63c0.14-0.02,0.23-0.05,0.29-0.11c0.06-0.06,0.08-0.15,0.08-0.27v-1.44c0-0.12-0.03-0.21-0.08-0.26
		c-0.06-0.08-0.16-0.12-0.29-0.12L18.77,12.09z"/>
	<path class="st2" d="M24.9,12.02c-0.18,0.02-0.32-0.02-0.42-0.1c-0.1-0.07-0.16-0.18-0.19-0.33c-0.01-0.13,0.02-0.25,0.1-0.36
		c0.09-0.11,0.22-0.18,0.39-0.21h0.18c0.35-0.36,0.72-0.78,1.11-1.26c-0.5-0.47-1-0.86-1.51-1.18c-0.14-0.08-0.24-0.18-0.29-0.31
		c-0.03-0.13-0.02-0.25,0.04-0.38c0.07-0.12,0.17-0.2,0.29-0.25c0.18-0.04,0.41,0.04,0.71,0.24c0.34-0.59,0.66-1.23,0.98-1.92
		c0.09-0.15,0.2-0.24,0.33-0.27c0.13-0.04,0.26-0.02,0.39,0.05s0.21,0.17,0.24,0.29c0.06,0.27-0.34,1.08-1.21,2.43
		c0.18,0.14,0.37,0.31,0.59,0.51c0.3-0.46,0.57-0.94,0.81-1.44c0.06-0.15,0.16-0.25,0.29-0.31c0.11-0.05,0.24-0.04,0.39,0.01
		c0.13,0.06,0.22,0.14,0.27,0.26c0.05,0.13,0.04,0.28-0.04,0.43c-0.56,1.08-1.21,2.06-1.96,2.92l1.52-0.18
		c-0.12-0.23-0.2-0.37-0.23-0.43c-0.08-0.13-0.1-0.27-0.07-0.39c0.03-0.11,0.1-0.21,0.21-0.28c0.12-0.06,0.24-0.08,0.36-0.06
		c0.13,0.04,0.23,0.12,0.31,0.25c0.02,0.05,0.05,0.11,0.1,0.19c0.56,1.13,0.81,1.79,0.73,1.98c-0.05,0.11-0.14,0.19-0.27,0.25
		c-0.12,0.02-0.24,0.02-0.36-0.01c-0.1-0.06-0.22-0.25-0.35-0.56l-1.12,0.14c0,1.66,0,3.32,0,4.96c0,0.15-0.05,0.27-0.15,0.37
		c-0.08,0.09-0.19,0.13-0.34,0.14c-0.14-0.01-0.26-0.05-0.34-0.13c-0.09-0.1-0.13-0.23-0.13-0.38c0-1.63,0-3.25,0-4.84L24.9,12.02z
		 M24.97,12.62c0.08-0.08,0.19-0.12,0.34-0.12c0.14,0.02,0.25,0.06,0.33,0.14c0.08,0.1,0.12,0.23,0.12,0.38
		c-0.03,0.27-0.1,0.74-0.19,1.41c-0.09,0.64-0.2,1.22-0.33,1.72c-0.05,0.16-0.13,0.27-0.23,0.32c-0.1,0.07-0.22,0.09-0.35,0.06
		c-0.14-0.03-0.23-0.1-0.29-0.2c-0.06-0.12-0.08-0.25-0.05-0.4c0.27-1.01,0.44-1.99,0.5-2.94C24.82,12.82,24.87,12.7,24.97,12.62z
		 M30.77,11.38c-0.11,0.98-0.32,1.93-0.61,2.84c-0.52,1.73-0.97,2.65-1.33,2.78c-0.13,0.04-0.27,0.03-0.41-0.02
		c-0.13-0.06-0.22-0.16-0.27-0.29c-0.04-0.15-0.02-0.3,0.06-0.45c0.16-0.33,0.32-0.68,0.47-1.03c-0.22,0.07-0.39,0.07-0.52-0.01
		c-0.11-0.1-0.18-0.22-0.2-0.37l-0.29-1.9c-0.02-0.15,0-0.28,0.06-0.38c0.09-0.1,0.19-0.17,0.31-0.19c0.15-0.01,0.28,0.02,0.37,0.07
		c0.11,0.1,0.18,0.22,0.2,0.37l0.28,1.84c0.73-2.03,1.08-4.05,1.05-6.04V7.27h-1.03c-0.18,0-0.32-0.05-0.42-0.15
		s-0.16-0.23-0.16-0.37c0-0.16,0.05-0.28,0.16-0.38c0.1-0.09,0.25-0.13,0.42-0.13H34c0.2,0.01,0.37,0.1,0.52,0.26
		c0.14,0.21,0.19,0.44,0.16,0.7l-0.62,2.17h0.69c0.27,0,0.48,0.1,0.65,0.3c0.15,0.21,0.19,0.53,0.12,0.96
		c-0.18,1.27-0.79,2.62-1.84,4.05c0.65,0.65,1.27,1.16,1.84,1.55c0.16,0.1,0.26,0.23,0.29,0.38c0.02,0.14-0.02,0.28-0.1,0.4
		c-0.11,0.13-0.23,0.2-0.36,0.23c-0.43,0.06-1.22-0.55-2.35-1.83c-0.02,0.01-0.04,0.02-0.05,0.05c-1.51,1.26-2.47,1.84-2.88,1.74
		c-0.15-0.06-0.26-0.16-0.31-0.29c-0.08-0.16-0.1-0.3-0.05-0.43c0.04-0.12,0.14-0.22,0.29-0.3c0.87-0.44,1.65-0.97,2.35-1.59
		c-0.72-1.13-1.23-2.49-1.52-4.09C30.84,10.77,30.8,11.06,30.77,11.38z M33.01,9.36l0.52-1.83c0.01-0.1,0-0.16-0.04-0.19
		c-0.05-0.06-0.12-0.08-0.23-0.08h-2.24v1.33C31.01,8.81,31,9.07,30.97,9.36L33.01,9.36z M33.06,13.84c0.81-1.04,1.32-2.1,1.51-3.2
		c0-0.09-0.02-0.15-0.05-0.18c-0.05-0.04-0.15-0.06-0.3-0.06H31.9c0.18,1.23,0.52,2.28,1,3.16C32.95,13.65,33.01,13.75,33.06,13.84z
		"/>
</g>
<g>
	<path class="st2" d="M15.55,29.4c0,0.15-0.05,0.28-0.16,0.38c-0.08,0.08-0.2,0.13-0.35,0.14c-0.14-0.01-0.25-0.05-0.35-0.13
		c-0.1-0.1-0.14-0.23-0.14-0.39v-3.06c-0.14,0.18-0.27,0.35-0.39,0.49c-0.5,0.6-0.98,1.1-1.45,1.5c-0.13,0.11-0.27,0.16-0.42,0.15
		c-0.14-0.01-0.26-0.06-0.36-0.16c-0.1-0.11-0.14-0.23-0.14-0.36c0.02-0.14,0.1-0.26,0.23-0.38c0.66-0.54,1.17-1.02,1.54-1.43
		c0.23-0.28,0.51-0.64,0.82-1.09h-1.85c-0.17,0-0.29-0.05-0.37-0.14c-0.09-0.08-0.13-0.2-0.13-0.34c0.01-0.13,0.05-0.24,0.13-0.33
		c0.1-0.09,0.22-0.14,0.37-0.14h2.01v-0.63c0.01-0.16,0.05-0.28,0.13-0.35c0.09-0.08,0.21-0.13,0.36-0.13
		c0.14,0.01,0.25,0.05,0.35,0.13c0.1,0.09,0.16,0.21,0.16,0.35v0.63h1.91c0.16,0.01,0.28,0.05,0.36,0.13
		c0.09,0.08,0.13,0.2,0.13,0.34c-0.01,0.13-0.05,0.24-0.13,0.33c-0.09,0.1-0.21,0.15-0.36,0.15h-1.81c0.75,0.76,1.39,1.43,1.9,2.01
		c0.09,0.11,0.13,0.24,0.12,0.4c-0.02,0.13-0.08,0.23-0.21,0.31c-0.12,0.07-0.25,0.1-0.37,0.09c-0.14-0.02-0.26-0.1-0.36-0.24
		c-0.32-0.42-0.71-0.89-1.18-1.4L15.55,29.4z M17.73,19.13c0.11,0.07,0.18,0.16,0.22,0.29c0.03,0.14,0.02,0.26-0.04,0.38
		c-0.05,0.11-0.16,0.19-0.34,0.22c-0.48,0.13-1.14,0.22-1.97,0.27c-1.23,0.12-2.24,0.19-3.02,0.19c-0.15-0.01-0.28-0.05-0.37-0.13
		s-0.13-0.2-0.13-0.34c0.01-0.13,0.05-0.24,0.13-0.34c0.09-0.09,0.21-0.14,0.36-0.14c0.74-0.02,1.59-0.07,2.56-0.15
		c0.98-0.08,1.72-0.18,2.21-0.3C17.49,19.06,17.62,19.08,17.73,19.13z M12.37,21.1c0.04-0.11,0.12-0.2,0.25-0.25
		c0.12-0.05,0.24-0.06,0.36-0.03c0.12,0.04,0.22,0.13,0.29,0.26c0.22,0.43,0.42,0.96,0.59,1.6c0.03,0.15,0.02,0.28-0.04,0.38
		c-0.06,0.11-0.17,0.18-0.31,0.21c-0.14,0.02-0.26,0.01-0.36-0.05c-0.11-0.08-0.18-0.19-0.22-0.33c-0.17-0.6-0.34-1.07-0.52-1.4
		C12.35,21.36,12.34,21.23,12.37,21.1z M14.59,20.84c0.06-0.1,0.16-0.16,0.29-0.19c0.13-0.02,0.25-0.01,0.35,0.05
		c0.12,0.07,0.2,0.18,0.23,0.32c0.02,0.11,0.05,0.31,0.1,0.58s0.08,0.52,0.08,0.73c0,0.15-0.04,0.27-0.12,0.37
		c-0.07,0.09-0.18,0.14-0.33,0.15c-0.13,0-0.24-0.04-0.34-0.11c-0.1-0.1-0.15-0.22-0.16-0.37c-0.01-0.2-0.03-0.42-0.06-0.65
		c-0.06-0.25-0.09-0.42-0.1-0.49C14.52,21.07,14.53,20.94,14.59,20.84z M17.24,20.53c0.11-0.06,0.23-0.08,0.36-0.05
		c0.14,0.04,0.25,0.11,0.3,0.21c0.06,0.11,0.07,0.23,0.04,0.38c-0.15,0.57-0.42,1.22-0.79,1.93c-0.07,0.15-0.17,0.23-0.29,0.26
		c-0.12,0.04-0.25,0.03-0.37-0.02c-0.13-0.06-0.21-0.15-0.24-0.26c-0.04-0.11-0.02-0.24,0.06-0.39c0.36-0.71,0.6-1.29,0.7-1.73
		C17.06,20.7,17.14,20.59,17.24,20.53z M22.34,25.34c0.1-0.13,0.22-0.2,0.35-0.21c0.13-0.02,0.26,0.02,0.39,0.11
		c0.11,0.09,0.18,0.2,0.2,0.32c0.02,0.13-0.01,0.26-0.11,0.38c-0.3,0.4-0.66,0.79-1.1,1.19c-0.44,0.43-0.87,0.8-1.29,1.1
		c-0.44,0.33-0.9,0.62-1.36,0.87c-0.51,0.28-0.99,0.5-1.44,0.66c-0.16,0.05-0.31,0.05-0.43,0c-0.11-0.05-0.2-0.14-0.25-0.28
		c-0.06-0.15-0.06-0.27-0.01-0.39c0.06-0.12,0.16-0.21,0.3-0.26c0.7-0.26,1.22-0.48,1.56-0.67c0.32-0.18,0.67-0.4,1.04-0.67
		c0.37-0.27,0.7-0.55,0.99-0.82C21.51,26.34,21.9,25.89,22.34,25.34z M22.48,22.02c0.12,0,0.24,0.04,0.36,0.11
		c0.1,0.1,0.16,0.21,0.17,0.33c0.01,0.13-0.05,0.26-0.17,0.38c-0.74,0.76-1.42,1.35-2.03,1.76c-0.68,0.45-1.31,0.78-1.87,0.99
		c-0.16,0.06-0.31,0.06-0.46,0.01c-0.12-0.06-0.21-0.15-0.27-0.28c-0.05-0.15-0.04-0.28,0.01-0.38c0.06-0.14,0.17-0.23,0.34-0.29
		c0.7-0.28,1.31-0.6,1.82-0.95c0.6-0.4,1.17-0.91,1.71-1.51C22.21,22.09,22.33,22.03,22.48,22.02z M21.97,18.95
		c0.12-0.01,0.24,0.03,0.36,0.1c0.1,0.09,0.17,0.19,0.19,0.31c0.01,0.15-0.04,0.28-0.15,0.4c-0.62,0.69-1.19,1.24-1.73,1.62
		c-0.57,0.43-1.1,0.74-1.59,0.95c-0.16,0.07-0.31,0.08-0.46,0.03c-0.13-0.05-0.22-0.14-0.28-0.26c-0.06-0.14-0.06-0.26-0.01-0.38
		c0.06-0.13,0.17-0.23,0.33-0.3c0.59-0.27,1.1-0.58,1.53-0.9c0.51-0.37,0.99-0.82,1.42-1.37C21.7,19.03,21.83,18.96,21.97,18.95z"/>
	<path class="st2" d="M29.63,20.18c-0.52,0.5-1.21,1.03-2.06,1.58c-0.99,0.6-1.86,1.05-2.62,1.35c-0.16,0.05-0.31,0.05-0.43,0
		c-0.14-0.07-0.23-0.16-0.29-0.29c-0.06-0.15-0.07-0.29-0.01-0.41c0.06-0.13,0.16-0.22,0.31-0.27c1.19-0.46,2.12-0.89,2.77-1.31
		c0.76-0.48,1.45-1.01,2.06-1.59c0.2-0.19,0.41-0.29,0.64-0.29c0.24,0,0.44,0.07,0.59,0.22c0.67,0.66,1.37,1.23,2.1,1.72
		c0.65,0.42,1.55,0.86,2.69,1.32c0.15,0.06,0.25,0.16,0.3,0.3c0.04,0.14,0.03,0.27-0.02,0.39c-0.07,0.15-0.17,0.24-0.3,0.29
		c-0.13,0.05-0.27,0.05-0.42-0.02c-0.62-0.24-1.44-0.69-2.46-1.34c-0.92-0.59-1.62-1.14-2.11-1.65c-0.12-0.1-0.24-0.15-0.36-0.15
		C29.86,20.01,29.73,20.07,29.63,20.18z M32.02,28.48c-0.02-0.05-0.04-0.09-0.05-0.14c-0.02-0.13,0.02-0.27,0.12-0.41
		c0.31-0.45,0.52-0.83,0.64-1.13c0.06-0.15,0.15-0.26,0.28-0.31c0.11-0.05,0.24-0.05,0.39,0c0.14,0.05,0.23,0.13,0.29,0.24
		c0.05,0.13,0.04,0.27-0.01,0.41c-0.16,0.4-0.41,0.85-0.75,1.34h2.28c0.16,0.01,0.28,0.05,0.36,0.13c0.09,0.08,0.13,0.2,0.13,0.34
		c-0.01,0.13-0.05,0.24-0.13,0.33c-0.09,0.1-0.21,0.15-0.36,0.15l-10.52-0.01c-0.17,0-0.29-0.05-0.37-0.14
		c-0.09-0.08-0.13-0.2-0.13-0.34c0.01-0.13,0.05-0.24,0.13-0.33c0.1-0.09,0.22-0.14,0.37-0.14h2.51c-0.02-0.02-0.03-0.05-0.04-0.07
		c-0.28-0.52-0.53-0.91-0.76-1.17c-0.1-0.12-0.15-0.25-0.14-0.39c0.01-0.11,0.07-0.22,0.19-0.32c0.11-0.08,0.23-0.11,0.36-0.1
		c0.14,0.02,0.26,0.08,0.36,0.21c0.31,0.34,0.61,0.79,0.9,1.35c0.06,0.14,0.08,0.28,0.05,0.4c-0.02,0.03-0.04,0.06-0.05,0.09h1.37
		v-2.76h-3.65c-0.17,0-0.29-0.05-0.37-0.14c-0.09-0.08-0.13-0.2-0.13-0.34c0.01-0.13,0.05-0.24,0.13-0.33
		c0.1-0.09,0.22-0.14,0.37-0.14h3.65v-1.52h-2.35c-0.17,0-0.29-0.05-0.37-0.14c-0.09-0.08-0.13-0.2-0.13-0.34
		c0.01-0.13,0.05-0.24,0.13-0.33c0.1-0.09,0.22-0.14,0.37-0.14l5.69,0.01c0.16,0.01,0.28,0.05,0.36,0.13
		c0.09,0.08,0.13,0.2,0.13,0.34c-0.01,0.13-0.05,0.24-0.13,0.33c-0.09,0.1-0.21,0.15-0.36,0.15h-2.34v1.52h3.79
		c0.16,0.01,0.28,0.05,0.36,0.13c0.09,0.08,0.13,0.2,0.13,0.34c-0.01,0.13-0.05,0.24-0.13,0.33c-0.09,0.1-0.21,0.15-0.36,0.15h-3.79
		v2.76L32.02,28.48z"/>
</g>
</svg>
