<?xml version="1.0" encoding="UTF-8"?>
<svg xmlns="http://www.w3.org/2000/svg" xmlns:xlink="http://www.w3.org/1999/xlink" width="80pt" height="38pt" viewBox="0 0 80 38" version="1.1">
<g id="surface1">
<path style=" stroke:none;fill-rule:nonzero;fill:rgb(100%,100%,100%);fill-opacity:1;" d="M 63.316406 17.519531 L 78.675781 17.519531 C 78.675781 17.519531 76.140625 25.128906 70.988281 29.390625 C 70.675781 29.652344 64.179688 22.507812 63.316406 17.519531 "/>
<path style=" stroke:none;fill-rule:nonzero;fill:rgb(100%,100%,100%);fill-opacity:1;" d="M 71.070312 11.835938 C 71.070312 11.835938 72.722656 10.832031 74.914062 10.832031 C 77.105469 10.832031 78.886719 11.980469 79.457031 12.765625 C 79.457031 14.011719 78.679688 17.519531 78.679688 17.519531 L 71.03125 17.429688 "/>
<path style=" stroke:none;fill-rule:nonzero;fill:rgb(78.709412%,9.008789%,13.696289%);fill-opacity:1;" d="M 76.777344 17.625 L 76.777344 21.519531 C 76.40625 22.285156 75.996094 23.027344 75.554688 23.75 L 75.554688 17.625 M 74.191406 17.625 L 74.191406 25.742188 C 73.800781 26.253906 73.394531 26.75 72.96875 27.230469 L 72.96875 17.625 M 71.601562 19.308594 L 71.601562 28.652344 C 71.355469 28.882812 71.148438 29.070312 70.984375 29.210938 C 70.828125 29.074219 70.617188 28.886719 70.375 28.652344 L 70.375 19.308594 C 70.566406 19.371094 70.777344 19.402344 70.988281 19.402344 C 71.207031 19.402344 71.40625 19.371094 71.601562 19.308594 M 69.015625 17.625 L 69.015625 27.234375 C 68.589844 26.753906 68.179688 26.253906 67.789062 25.742188 L 67.789062 17.625 M 66.429688 17.585938 L 66.429688 23.75 C 65.980469 23.03125 65.574219 22.285156 65.203125 21.523438 L 65.203125 17.585938 "/>
<path style=" stroke:none;fill-rule:nonzero;fill:rgb(74.804688%,55.271912%,7.495117%);fill-opacity:1;" d="M 71.1875 12.066406 L 71.1875 15.542969 C 72.097656 15.644531 72.828125 16.296875 72.957031 17.304688 L 78.410156 17.304688 C 78.820312 15.855469 79.101562 14.289062 79.257812 12.773438 C 77.164062 10.652344 73.714844 10.425781 71.1875 12.066406 M 72.957031 17.632812 C 72.84375 18.746094 72.144531 19.414062 71.003906 19.414062 C 69.832031 19.414062 69.171875 18.609375 69.058594 17.632812 L 63.730469 17.632812 C 64.90625 21.546875 67 25.230469 69.933594 28.210938 C 70.382812 28.65625 70.746094 28.996094 71.003906 29.21875 C 71.375 28.898438 71.730469 28.5625 72.078125 28.210938 C 75.011719 25.230469 77.105469 21.546875 78.28125 17.632812 Z M 69.382812 17.492188 C 69.382812 18.390625 70.105469 19.117188 71.007812 19.117188 C 71.90625 19.117188 72.636719 18.390625 72.636719 17.492188 C 72.640625 16.59375 71.910156 15.863281 71.011719 15.859375 C 70.113281 15.859375 69.382812 16.585938 69.382812 17.484375 C 69.382812 17.488281 69.382812 17.488281 69.382812 17.492188 M 79.855469 8.574219 C 80.363281 16.398438 77.984375 22.234375 72.839844 28.1875 C 71.945312 29.222656 71.007812 29.875 71.007812 29.875 C 71.007812 29.875 70.074219 29.21875 69.175781 28.1875 C 64.066406 22.3125 61.589844 16.257812 62.101562 8.429688 C 63.296875 9.40625 64.703125 9.835938 66.367188 9.835938 C 68.136719 9.835938 69.78125 9.222656 71.007812 8.132812 C 72.277344 9.265625 73.917969 9.886719 75.617188 9.886719 C 77.28125 9.886719 78.644531 9.472656 79.839844 8.5 "/>
<path style=" stroke:none;fill-rule:nonzero;fill:rgb(74.804688%,55.271912%,7.495117%);fill-opacity:1;" d="M 72.976562 17.28125 L 78.398438 17.28125 C 78.789062 15.894531 79.082031 14.335938 79.242188 12.777344 C 78.105469 11.632812 76.550781 11.003906 74.851562 11.003906 C 73.550781 11.003906 72.292969 11.371094 71.210938 12.074219 L 71.210938 15.523438 C 72.160156 15.636719 72.847656 16.324219 72.976562 17.28125 M 78.429688 17.320312 L 72.9375 17.320312 L 72.933594 17.304688 C 72.816406 16.347656 72.128906 15.664062 71.1875 15.558594 L 71.167969 15.558594 L 71.167969 12.046875 L 71.179688 12.039062 C 72.273438 11.335938 73.546875 10.960938 74.847656 10.960938 C 76.558594 10.960938 78.136719 11.597656 79.273438 12.753906 L 79.28125 12.765625 L 79.28125 12.769531 C 79.125 14.300781 78.839844 15.820312 78.433594 17.304688 Z M 71.011719 15.878906 C 70.125 15.878906 69.398438 16.601562 69.398438 17.488281 C 69.398438 18.371094 70.125 19.09375 71.011719 19.09375 C 71.898438 19.09375 72.621094 18.371094 72.621094 17.488281 C 72.621094 16.601562 71.898438 15.878906 71.011719 15.878906 M 71.011719 19.132812 C 70.101562 19.09375 69.394531 18.324219 69.433594 17.414062 C 69.46875 16.558594 70.15625 15.875 71.011719 15.839844 C 71.917969 15.84375 72.652344 16.578125 72.65625 17.488281 C 72.65625 18.398438 71.917969 19.132812 71.011719 19.132812 M 63.757812 17.648438 C 64.972656 21.667969 67.113281 25.3125 69.953125 28.191406 C 70.402344 28.648438 70.773438 28.980469 71.011719 29.1875 C 71.246094 28.980469 71.613281 28.644531 72.066406 28.191406 C 74.90625 25.3125 77.046875 21.667969 78.257812 17.648438 L 72.976562 17.648438 C 72.859375 18.777344 72.148438 19.429688 71.011719 19.429688 C 69.71875 19.429688 69.144531 18.511719 69.042969 17.648438 Z M 71.011719 29.242188 L 70.996094 29.230469 C 70.625 28.90625 70.269531 28.570312 69.925781 28.21875 C 67.074219 25.332031 64.925781 21.667969 63.714844 17.636719 L 63.703125 17.609375 L 69.078125 17.609375 L 69.078125 17.625 C 69.175781 18.480469 69.730469 19.390625 71.011719 19.390625 C 72.128906 19.390625 72.832031 18.746094 72.941406 17.625 L 72.941406 17.609375 L 78.3125 17.609375 L 78.300781 17.636719 C 77.089844 21.667969 74.941406 25.332031 72.09375 28.21875 C 71.75 28.570312 71.390625 28.910156 71.023438 29.230469 Z M 62.121094 8.46875 C 61.644531 15.921875 63.824219 22 69.1875 28.167969 C 70.027344 29.128906 70.902344 29.769531 71.007812 29.851562 C 71.113281 29.769531 71.996094 29.128906 72.828125 28.167969 C 75.484375 25.089844 77.328125 22.117188 78.453125 19.074219 C 79.636719 15.867188 80.089844 12.429688 79.835938 8.570312 L 79.828125 8.53125 C 78.667969 9.46875 77.328125 9.902344 75.621094 9.902344 C 73.921875 9.902344 72.28125 9.28125 71.007812 8.160156 C 69.773438 9.25 68.125 9.851562 66.367188 9.851562 C 64.667969 9.851562 63.277344 9.398438 62.121094 8.46875 M 71.011719 29.894531 L 71 29.886719 C 70.984375 29.882812 70.046875 29.21875 69.160156 28.195312 C 63.777344 22.003906 61.59375 15.90625 62.085938 8.421875 L 62.089844 8.390625 L 62.117188 8.410156 C 63.273438 9.351562 64.664062 9.808594 66.367188 9.808594 C 68.121094 9.808594 69.769531 9.210938 70.996094 8.117188 L 71.011719 8.101562 L 71.023438 8.117188 C 72.289062 9.242188 73.925781 9.863281 75.621094 9.859375 C 77.332031 9.859375 78.667969 9.425781 79.828125 8.476562 L 79.851562 8.457031 L 79.875 8.566406 C 80.128906 12.433594 79.675781 15.875 78.488281 19.085938 C 77.363281 22.132812 75.523438 25.113281 72.851562 28.199219 C 72.304688 28.828125 71.691406 29.394531 71.019531 29.886719 "/>
<path style=" stroke:none;fill-rule:nonzero;fill:rgb(1.597595%,0%,0%);fill-opacity:1;" d="M 62.191406 8.578125 L 62.1875 8.632812 C 61.941406 12.363281 62.476562 15.984375 63.777344 19.394531 C 64.96875 22.523438 66.800781 25.464844 69.222656 28.140625 C 69.769531 28.738281 70.367188 29.292969 71.007812 29.789062 C 71.191406 29.648438 71.988281 29.015625 72.789062 28.140625 C 75.503906 25.007812 77.292969 22.121094 78.425781 19.054688 C 79.597656 15.882812 80.050781 12.464844 79.800781 8.609375 C 78.640625 9.535156 77.347656 9.953125 75.617188 9.953125 C 73.917969 9.953125 72.28125 9.339844 71.003906 8.222656 C 69.753906 9.316406 68.121094 9.910156 66.394531 9.910156 C 64.714844 9.910156 63.339844 9.476562 62.191406 8.582031 M 71.007812 29.957031 L 70.964844 29.929688 C 70.960938 29.921875 70.039062 29.234375 69.125 28.230469 C 66.695312 25.542969 64.855469 22.585938 63.652344 19.441406 C 62.347656 16.015625 61.808594 12.375 62.054688 8.617188 L 62.070312 8.308594 L 62.171875 8.394531 C 63.316406 9.328125 64.699219 9.78125 66.394531 9.78125 C 68.109375 9.78125 69.730469 9.179688 70.964844 8.085938 L 71.007812 8.042969 L 71.046875 8.085938 C 72.308594 9.203125 73.933594 9.820312 75.617188 9.820312 C 77.339844 9.820312 78.617188 9.40625 79.757812 8.472656 L 79.914062 8.308594 L 79.929688 8.59375 C 80.183594 12.46875 79.734375 15.90625 78.546875 19.101562 C 77.410156 22.183594 75.613281 25.085938 72.890625 28.230469 C 72.324219 28.847656 71.707031 29.417969 71.042969 29.929688 "/>
<path style=" stroke:none;fill-rule:nonzero;fill:rgb(1.597595%,0%,0%);fill-opacity:1;" d="M 75.8125 13.332031 C 75.851562 13.351562 75.773438 13.386719 75.746094 13.421875 C 75.546875 13.355469 75.339844 13.320312 75.128906 13.320312 L 75.128906 13.476562 C 75.171875 13.507812 75.214844 13.539062 75.253906 13.570312 C 75.96875 14.109375 76.617188 14.46875 76.527344 15.449219 C 76.433594 16.523438 75.335938 17.242188 73.695312 16.597656 L 73.695312 16.390625 C 74.070312 16.527344 74.488281 16.59375 74.871094 16.574219 L 74.871094 16.132812 C 73.902344 16.171875 73.253906 15.398438 73.246094 14.667969 C 73.242188 14.042969 73.667969 13.433594 74.320312 13.203125 C 74.089844 12.964844 74.019531 12.773438 73.980469 12.390625 C 73.910156 11.746094 74.988281 11.03125 75.84375 11.871094 L 75.746094 11.980469 C 75.3125 11.570312 74.421875 11.5625 74.285156 12.214844 C 74.203125 12.609375 74.394531 12.890625 74.65625 13.121094 C 74.722656 13.113281 74.792969 13.105469 74.871094 13.105469 L 74.871094 12.53125 L 75.746094 12.53125 L 75.746094 12.679688 L 75.128906 12.679688 L 75.128906 13.121094 C 75.347656 13.148438 75.578125 13.21875 75.8125 13.332031 M 74.539062 13.40625 C 74.019531 13.558594 73.597656 13.929688 73.597656 14.539062 C 73.597656 15.414062 74.222656 15.832031 74.871094 15.878906 L 74.871094 13.675781 C 74.757812 13.585938 74.648438 13.496094 74.539062 13.40625 M 75.128906 15.878906 C 75.359375 15.863281 75.585938 15.800781 75.773438 15.695312 L 75.734375 15.902344 C 75.523438 16.003906 75.320312 16.070312 75.128906 16.105469 L 75.128906 16.546875 C 75.648438 16.460938 76.074219 16.195312 76.195312 15.707031 C 76.285156 15.34375 76.382812 14.863281 75.273438 13.988281 L 75.128906 13.875 L 75.128906 14.558594 L 75.519531 14.558594 L 75.519531 14.707031 L 75.128906 14.707031 "/>
<path style=" stroke:none;fill-rule:nonzero;fill:rgb(100%,100%,100%);fill-opacity:1;" d="M 70.808594 15.535156 L 70.808594 12.09375 C 68.277344 10.457031 64.832031 10.679688 62.734375 12.804688 C 62.890625 14.316406 63.175781 15.808594 63.585938 17.257812 L 69.085938 17.257812 C 69.1875 16.351562 69.902344 15.636719 70.808594 15.535156 "/>
<path style=" stroke:none;fill-rule:nonzero;fill:rgb(78.709412%,9.008789%,13.696289%);fill-opacity:1;" d="M 79.324219 12.265625 L 79.289062 12.234375 C 78.09375 11.183594 76.519531 10.601562 74.855469 10.601562 C 73.488281 10.601562 72.15625 10.984375 71.003906 11.714844 L 70.988281 11.722656 L 70.976562 11.714844 C 69.824219 10.984375 68.484375 10.597656 67.117188 10.601562 C 65.460938 10.601562 63.886719 11.183594 62.6875 12.234375 L 62.652344 12.265625 L 62.652344 12.21875 C 62.585938 11.273438 62.558594 10.328125 62.578125 9.386719 L 62.582031 9.34375 L 62.613281 9.367188 C 63.753906 10.019531 65.054688 10.367188 66.378906 10.367188 C 68.042969 10.371094 69.65625 9.824219 70.976562 8.816406 L 70.988281 8.808594 L 71.003906 8.816406 C 72.320312 9.824219 73.9375 10.371094 75.601562 10.367188 C 76.921875 10.363281 78.214844 10.019531 79.363281 9.367188 L 79.398438 9.34375 L 79.398438 9.386719 C 79.421875 10.308594 79.394531 11.339844 79.328125 12.21875 "/>
<path style=" stroke:none;fill-rule:nonzero;fill:rgb(58.396912%,33.68988%,14.109802%);fill-opacity:1;" d="M 72.65625 17.484375 C 72.65625 18.382812 71.925781 19.113281 71.03125 19.113281 C 70.128906 19.113281 69.402344 18.382812 69.402344 17.484375 C 69.402344 16.585938 70.128906 15.859375 71.03125 15.859375 C 71.925781 15.859375 72.65625 16.585938 72.65625 17.484375 "/>
<path style=" stroke:none;fill-rule:nonzero;fill:rgb(72.264099%,44.309998%,11.401367%);fill-opacity:1;" d="M 71.457031 17.121094 C 71.457031 17.539062 71.121094 17.875 70.703125 17.875 C 70.289062 17.875 69.949219 17.539062 69.949219 17.121094 C 69.949219 16.707031 70.289062 16.367188 70.703125 16.367188 C 71.121094 16.367188 71.457031 16.707031 71.457031 17.121094 "/>
<path style=" stroke:none;fill-rule:nonzero;fill:rgb(69.726562%,54.101562%,12.5%);fill-opacity:1;" d="M 63.253906 16.167969 C 63.253906 16.167969 63.285156 14.367188 63.394531 14.105469 C 63.5 13.839844 63.816406 13.335938 63.816406 13.335938 L 63.609375 12.757812 C 63.609375 12.757812 63.789062 12.328125 63.921875 12.242188 C 64.207031 12.378906 64.351562 12.617188 64.351562 12.617188 L 64.308594 13.203125 C 64.308594 13.203125 64.398438 13.339844 64.320312 13.449219 C 64.515625 13.65625 64.816406 14.074219 64.90625 14.320312 C 64.996094 14.566406 65.09375 14.78125 65.078125 14.890625 L 65.136719 14.890625 L 64.832031 12.46875 C 64.832031 12.46875 64.761719 12.394531 64.773438 12.371094 C 64.636719 12.28125 64.425781 11.886719 64.890625 11.789062 C 65.074219 11.789062 65.164062 11.902344 65.15625 12.046875 C 65.152344 12.1875 65.066406 12.320312 64.980469 12.347656 C 64.964844 12.429688 64.890625 12.355469 64.992188 13.113281 C 65.09375 13.867188 65.226562 14.929688 65.226562 14.929688 C 65.226562 14.929688 65.324219 14.90625 65.332031 15.015625 C 65.335938 15.125 65.394531 15.179688 65.277344 15.234375 C 65.339844 15.703125 65.441406 16.453125 65.441406 16.453125 L 65.511719 17.332031 L 63.585938 17.363281 "/>
<path style=" stroke:none;fill-rule:nonzero;fill:rgb(87.889099%,78.709412%,68.943787%);fill-opacity:1;" d="M 63.851562 13.265625 C 63.851562 13.265625 64.042969 13.066406 64.273438 13.214844 C 64.296875 13.394531 64.28125 13.496094 64.238281 13.550781 C 64.160156 13.476562 64.109375 13.464844 64.070312 13.5 C 64.027344 13.539062 63.988281 13.574219 63.988281 13.574219 L 63.886719 13.496094 "/>
<path style=" stroke:none;fill-rule:nonzero;fill:rgb(87.889099%,78.709412%,68.943787%);fill-opacity:1;" d="M 64.015625 13.601562 C 64.015625 13.601562 64.105469 13.46875 64.207031 13.601562 C 64.15625 13.699219 64.113281 13.746094 64.015625 13.601562 "/>
<path style=" stroke:none;fill-rule:nonzero;fill:rgb(87.889099%,78.709412%,68.943787%);fill-opacity:1;" d="M 63.910156 13.574219 C 63.910156 13.574219 63.996094 13.71875 64.109375 13.742188 C 64.226562 13.765625 64.25 13.617188 64.25 13.617188 C 64.25 13.617188 64.242188 13.78125 64.207031 13.8125 C 64.171875 13.84375 64.09375 13.84375 64.039062 13.8125 C 63.988281 13.777344 63.886719 13.703125 63.886719 13.703125 "/>
<path style=" stroke:none;fill-rule:nonzero;fill:rgb(87.889099%,78.709412%,68.943787%);fill-opacity:1;" d="M 64.910156 14.785156 L 65.015625 14.949219 C 65.015625 14.949219 65.296875 14.882812 65.335938 15.023438 C 65.320312 15.265625 65.296875 15.289062 65.222656 15.230469 C 65.140625 15.191406 65.144531 15.167969 65.058594 15.15625 C 64.972656 15.144531 64.8125 14.945312 64.8125 14.945312 "/>
<path style=" stroke:none;fill-rule:nonzero;fill:rgb(87.889099%,78.709412%,68.943787%);fill-opacity:1;" d="M 63.972656 15.023438 C 63.972656 15.023438 64.234375 15.359375 64.285156 15.414062 C 64.335938 15.46875 64.347656 15.566406 64.34375 15.667969 C 64.332031 15.769531 64.375 15.835938 64.25 15.761719 C 64.125 15.691406 64.078125 15.554688 64.066406 15.5 C 64.058594 15.445312 64.066406 15.40625 64.066406 15.40625 L 63.910156 15.070312 "/>
<path style=" stroke:none;fill-rule:nonzero;fill:rgb(87.889099%,78.709412%,68.943787%);fill-opacity:1;" d="M 64.128906 12.988281 L 64.070312 12.457031 C 64.070312 12.457031 64.28125 12.542969 64.285156 12.722656 C 64.289062 12.902344 64.25 13.078125 64.25 13.078125 "/>
<path style=" stroke:none;fill-rule:nonzero;fill:rgb(87.889099%,78.709412%,68.943787%);fill-opacity:1;" d="M 63.972656 13.039062 L 63.886719 12.496094 C 63.886719 12.496094 63.640625 12.59375 63.710938 12.804688 C 63.777344 13.015625 63.8125 13.128906 63.8125 13.128906 C 63.8125 13.128906 63.933594 13.035156 63.972656 13.039062 "/>
<path style=" stroke:none;fill-rule:nonzero;fill:rgb(87.889099%,78.709412%,68.943787%);fill-opacity:1;" d="M 64.425781 13.617188 C 64.425781 13.617188 64.414062 13.832031 64.511719 13.9375 C 64.613281 14.039062 64.746094 14.371094 64.769531 14.554688 C 64.921875 14.757812 65.007812 14.875 65.007812 14.875 C 65.007812 14.875 65.089844 14.40625 64.425781 13.617188 "/>
<path style=" stroke:none;fill-rule:nonzero;fill:rgb(87.889099%,78.709412%,68.943787%);fill-opacity:1;" d="M 63.660156 13.617188 C 63.660156 13.617188 63.574219 14.121094 63.609375 14.507812 C 63.648438 14.894531 63.816406 15.265625 64.015625 15.476562 C 64.183594 15.761719 64.207031 15.792969 64.207031 15.792969 L 64.441406 17.109375 L 64.296875 17.253906 C 64.296875 17.253906 64.011719 17.15625 63.78125 16.480469 C 63.554688 15.804688 63.394531 15.035156 63.425781 14.640625 C 63.457031 14.246094 63.519531 13.992188 63.519531 13.992188 C 63.519531 13.992188 63.34375 14.316406 63.347656 14.695312 C 63.351562 15.078125 63.554688 16.320312 63.632812 16.507812 C 63.710938 16.691406 63.863281 17.039062 63.863281 17.039062 L 63.910156 17.351562 L 63.605469 17.371094 C 63.605469 17.371094 63.648438 16.984375 63.679688 16.902344 C 63.472656 16.355469 63.296875 15.898438 63.308594 15.296875 C 63.324219 14.703125 63.253906 14.257812 63.660156 13.617188 "/>
<path style=" stroke:none;fill-rule:nonzero;fill:rgb(87.889099%,78.709412%,68.943787%);fill-opacity:1;" d="M 64.554688 15.277344 C 64.554688 15.277344 64.832031 15.398438 64.871094 15.492188 C 64.90625 15.589844 65.125 16.464844 65.125 16.464844 L 65.292969 16.441406 C 65.292969 16.441406 65.296875 16.113281 65.210938 16.003906 C 65.125 15.890625 65.273438 15.628906 65.132812 15.492188 C 64.988281 15.359375 65.105469 15.199219 64.554688 15.277344 "/>
<path style=" stroke:none;fill-rule:nonzero;fill:rgb(87.889099%,78.709412%,68.943787%);fill-opacity:1;" d="M 64.640625 15.546875 C 64.640625 15.546875 64.867188 16.054688 64.867188 16.175781 C 64.867188 16.296875 64.902344 16.429688 64.902344 16.429688 L 64.667969 16.660156 C 64.667969 16.660156 64.550781 16.34375 64.554688 16.1875 C 64.558594 16.035156 64.617188 15.839844 64.554688 15.792969 C 64.496094 15.75 64.425781 15.695312 64.425781 15.695312 "/>
<path style=" stroke:none;fill-rule:nonzero;fill:rgb(87.889099%,78.709412%,68.943787%);fill-opacity:1;" d="M 64.378906 15.210938 C 64.378906 15.210938 64.421875 15.09375 64.488281 15.023438 C 64.550781 14.949219 64.421875 14.953125 64.488281 14.871094 C 64.550781 14.792969 64.546875 14.773438 64.507812 14.753906 C 64.464844 14.730469 64.480469 14.898438 64.457031 14.871094 C 64.4375 14.847656 64.285156 14.75 64.285156 14.75 C 64.285156 14.75 64.464844 14.613281 64.480469 14.492188 C 64.492188 14.367188 64.441406 14.277344 64.441406 14.277344 L 64.34375 14.363281 L 64.371094 14.503906 L 64.285156 14.332031 L 64.015625 14.378906 L 63.972656 14.871094 C 63.972656 14.871094 64.113281 14.949219 64.109375 14.972656 C 64.109375 14.992188 64.148438 15.15625 64.148438 15.15625 "/>
<path style=" stroke:none;fill-rule:nonzero;fill:rgb(87.889099%,78.709412%,68.943787%);fill-opacity:1;" d="M 63.972656 14.089844 L 64.175781 14.054688 C 64.175781 14.054688 64.152344 13.917969 64.128906 13.902344 C 64.105469 13.886719 63.953125 13.828125 63.945312 13.804688 C 63.9375 13.785156 63.863281 14.035156 63.972656 14.089844 "/>
<path style=" stroke:none;fill-rule:nonzero;fill:rgb(87.889099%,78.709412%,68.943787%);fill-opacity:1;" d="M 64.25 14.027344 L 64.382812 14.027344 C 64.382812 14.027344 64.269531 13.929688 64.285156 13.835938 L 64.1875 13.902344 "/>
<path style=" stroke:none;fill-rule:nonzero;fill:rgb(78.709412%,9.008789%,13.696289%);fill-opacity:1;" d="M 65.171875 17.335938 C 65.171875 17.335938 65.246094 16.878906 65.304688 16.746094 C 65.363281 16.613281 65.453125 16.414062 65.476562 16.414062 C 65.5 16.414062 65.515625 14.566406 65.515625 14.566406 L 65.792969 14.304688 L 65.792969 12.195312 L 65.660156 12.164062 C 65.660156 12.164062 65.636719 11.953125 65.515625 11.953125 C 65.488281 11.640625 65.5625 11.546875 65.824219 11.539062 C 66.089844 11.535156 67.6875 11.519531 67.878906 11.539062 C 68.066406 11.5625 68.171875 11.546875 68.195312 11.972656 C 68.050781 12.003906 68.042969 12.21875 68.042969 12.21875 L 67.917969 12.199219 L 67.945312 14.183594 L 68.195312 14.539062 L 68.195312 16.191406 L 68.902344 17.054688 L 69.007812 17.363281 "/>
<path style=" stroke:none;fill-rule:nonzero;fill:rgb(74.804688%,59.179688%,6.298828%);fill-opacity:1;" d="M 65.84375 12.085938 C 65.804688 12.042969 65.617188 11.671875 65.78125 11.65625 C 65.949219 11.636719 66.027344 11.667969 66 11.800781 C 65.972656 11.9375 65.941406 12.011719 65.9375 12.042969 C 65.929688 12.078125 65.84375 12.085938 65.84375 12.085938 "/>
<path style=" stroke:none;fill-rule:nonzero;fill:rgb(74.804688%,59.179688%,6.298828%);fill-opacity:1;" d="M 66.53125 12.085938 L 66.394531 11.9375 C 66.394531 11.9375 66.328125 11.71875 66.464844 11.671875 C 66.601562 11.628906 66.699219 11.722656 66.699219 11.800781 C 66.699219 11.878906 66.636719 11.964844 66.628906 12.023438 C 66.625 12.078125 66.53125 12.085938 66.53125 12.085938 "/>
<path style=" stroke:none;fill-rule:nonzero;fill:rgb(74.804688%,59.179688%,6.298828%);fill-opacity:1;" d="M 67.167969 12.085938 C 67.167969 12.085938 67.125 11.988281 67.082031 11.941406 C 67.042969 11.894531 66.984375 11.742188 67.066406 11.683594 C 67.148438 11.628906 67.320312 11.605469 67.328125 11.722656 C 67.339844 11.84375 67.386719 11.796875 67.328125 11.914062 C 67.273438 12.027344 67.273438 12.085938 67.273438 12.085938 "/>
<path style=" stroke:none;fill-rule:nonzero;fill:rgb(74.804688%,59.179688%,6.298828%);fill-opacity:1;" d="M 67.8125 12.085938 C 67.8125 12.085938 67.878906 12.003906 67.8125 11.9375 C 67.742188 11.867188 67.578125 11.644531 67.828125 11.652344 C 68.074219 11.65625 68.09375 11.792969 68.0625 11.859375 C 68.035156 11.929688 68.023438 11.949219 67.996094 12.023438 C 67.964844 12.097656 67.8125 12.085938 67.8125 12.085938 "/>
<path style=" stroke:none;fill-rule:nonzero;fill:rgb(74.804688%,59.179688%,6.298828%);fill-opacity:1;" d="M 66.144531 12.613281 C 66.144531 12.613281 66.023438 12.300781 66.097656 12.132812 C 66.171875 11.960938 66.394531 11.949219 66.378906 12.164062 C 66.359375 12.382812 66.441406 12.492188 66.378906 12.574219 C 66.316406 12.652344 66.144531 12.613281 66.144531 12.613281 "/>
<path style=" stroke:none;fill-rule:nonzero;fill:rgb(74.804688%,59.179688%,6.298828%);fill-opacity:1;" d="M 66.074219 13.042969 C 66.074219 13.042969 66.011719 12.730469 66.125 12.714844 C 66.242188 12.699219 66.355469 12.699219 66.378906 12.800781 C 66.402344 12.902344 66.351562 13.078125 66.320312 13.089844 C 66.292969 13.097656 66.191406 13.230469 66.074219 13.042969 "/>
<path style=" stroke:none;fill-rule:nonzero;fill:rgb(74.804688%,59.179688%,6.298828%);fill-opacity:1;" d="M 66.144531 13.613281 C 66.144531 13.613281 65.996094 13.355469 66.074219 13.289062 C 66.148438 13.21875 66.175781 13.117188 66.277344 13.175781 C 66.371094 13.230469 66.378906 13.335938 66.378906 13.386719 C 66.378906 13.4375 66.332031 13.523438 66.292969 13.5625 C 66.253906 13.605469 66.144531 13.613281 66.144531 13.613281 "/>
<path style=" stroke:none;fill-rule:nonzero;fill:rgb(74.804688%,59.179688%,6.298828%);fill-opacity:1;" d="M 66.789062 12.582031 C 66.773438 12.574219 66.660156 12.355469 66.75 12.257812 C 66.84375 12.160156 66.835938 12.164062 66.789062 12.113281 C 66.746094 12.0625 66.804688 11.804688 66.925781 12 C 67.042969 12.199219 66.984375 12.257812 66.972656 12.285156 C 66.964844 12.316406 67.117188 12.445312 67.027344 12.539062 C 66.933594 12.628906 66.789062 12.582031 66.789062 12.582031 "/>
<path style=" stroke:none;fill-rule:nonzero;fill:rgb(74.804688%,59.179688%,6.298828%);fill-opacity:1;" d="M 67.4375 12.148438 C 67.4375 12.148438 67.546875 11.734375 67.695312 12.148438 C 67.632812 12.257812 67.632812 12.246094 67.664062 12.335938 C 67.691406 12.429688 67.683594 12.574219 67.667969 12.621094 C 67.652344 12.667969 67.425781 12.746094 67.4375 12.621094 C 67.449219 12.496094 67.46875 12.207031 67.46875 12.207031 "/>
<path style=" stroke:none;fill-rule:nonzero;fill:rgb(74.804688%,59.179688%,6.298828%);fill-opacity:1;" d="M 67.472656 13.097656 C 67.460938 13.066406 67.320312 12.816406 67.4375 12.75 C 67.558594 12.683594 67.710938 12.808594 67.695312 12.886719 C 67.679688 12.96875 67.605469 13.070312 67.617188 13.15625 C 67.628906 13.242188 67.78125 13.390625 67.695312 13.484375 C 67.609375 13.574219 67.589844 13.597656 67.507812 13.558594 C 67.425781 13.519531 67.410156 13.53125 67.4375 13.386719 C 67.46875 13.242188 67.472656 13.097656 67.472656 13.097656 "/>
<path style=" stroke:none;fill-rule:nonzero;fill:rgb(74.804688%,59.179688%,6.298828%);fill-opacity:1;" d="M 65.644531 15.183594 C 65.546875 15.128906 65.4375 14.960938 65.574219 14.835938 C 65.714844 14.710938 65.933594 14.714844 65.902344 14.871094 C 65.875 15.027344 65.835938 15.167969 65.78125 15.207031 C 65.730469 15.25 65.746094 15.28125 65.816406 15.398438 C 65.886719 15.511719 65.867188 15.714844 65.835938 15.753906 C 65.800781 15.792969 65.726562 15.765625 65.769531 15.828125 C 65.816406 15.890625 65.917969 16.183594 65.800781 16.273438 C 65.679688 16.367188 65.589844 16.339844 65.582031 16.199219 C 65.574219 16.0625 65.726562 15.863281 65.660156 15.757812 C 65.597656 15.65625 65.457031 15.585938 65.542969 15.421875 C 65.628906 15.253906 65.644531 15.183594 65.644531 15.183594 "/>
<path style=" stroke:none;fill-rule:nonzero;fill:rgb(74.804688%,59.179688%,6.298828%);fill-opacity:1;" d="M 67.949219 15.132812 C 67.957031 15.058594 67.761719 14.882812 67.882812 14.785156 C 68.007812 14.6875 68.097656 14.589844 68.136719 14.785156 C 68.179688 14.980469 68.089844 15.082031 68.074219 15.15625 C 68.058594 15.230469 68.191406 15.226562 68.183594 15.449219 C 68.179688 15.671875 68.050781 15.691406 68.109375 15.792969 C 68.167969 15.894531 68.277344 16.066406 68.183594 16.195312 C 68.09375 16.320312 67.933594 16.308594 67.917969 16.152344 C 67.910156 16 67.941406 15.890625 67.984375 15.800781 C 68.023438 15.707031 68.019531 15.703125 67.9375 15.582031 C 67.855469 15.460938 67.949219 15.1875 67.949219 15.1875 "/>
<path style=" stroke:none;fill-rule:nonzero;fill:rgb(74.804688%,59.179688%,6.298828%);fill-opacity:1;" d="M 65.558594 16.578125 C 65.609375 16.566406 65.425781 16.390625 65.652344 16.421875 C 65.875 16.457031 66 16.507812 65.835938 16.625 C 65.667969 16.738281 65.691406 16.695312 65.710938 16.769531 C 65.730469 16.84375 65.683594 16.984375 65.683594 16.984375 C 65.683594 16.984375 65.6875 16.972656 65.710938 17.066406 C 65.738281 17.15625 65.570312 17.1875 65.65625 17.25 C 65.742188 17.3125 65.683594 17.347656 65.683594 17.347656 L 65.3125 17.347656 C 65.3125 17.347656 65.402344 17.175781 65.457031 17.164062 C 65.507812 17.152344 65.339844 16.992188 65.425781 16.929688 C 65.511719 16.867188 65.375 16.617188 65.558594 16.578125 "/>
<path style=" stroke:none;fill-rule:nonzero;fill:rgb(74.804688%,59.179688%,6.298828%);fill-opacity:1;" d="M 66.148438 16.59375 C 66.15625 16.574219 66.113281 16.382812 66.296875 16.417969 C 66.480469 16.457031 66.515625 16.453125 66.425781 16.5625 C 66.332031 16.671875 66.378906 16.628906 66.390625 16.757812 C 66.402344 16.882812 66.273438 16.957031 66.3125 16.972656 C 66.351562 16.992188 66.417969 16.972656 66.40625 17.121094 C 66.394531 17.273438 66.382812 17.347656 66.382812 17.347656 L 66.015625 17.347656 L 66.125 17.136719 C 66.125 17.136719 65.964844 17.003906 66.0625 16.925781 C 66.160156 16.851562 66.121094 16.789062 66.101562 16.769531 C 66.085938 16.746094 66.148438 16.59375 66.148438 16.59375 "/>
<path style=" stroke:none;fill-rule:nonzero;fill:rgb(74.804688%,59.179688%,6.298828%);fill-opacity:1;" d="M 66.699219 16.734375 C 66.757812 16.710938 66.984375 16.589844 67.019531 16.761719 C 67.054688 16.933594 66.921875 16.871094 66.953125 16.917969 C 66.980469 16.960938 67.105469 17.054688 67.066406 17.101562 C 67.027344 17.148438 66.921875 17.179688 66.984375 17.214844 C 67.050781 17.25 67.074219 17.347656 67.074219 17.347656 L 66.699219 17.347656 C 66.699219 17.347656 66.792969 17.179688 66.816406 17.15625 C 66.835938 17.132812 66.683594 16.96875 66.738281 16.933594 C 66.796875 16.898438 66.746094 16.824219 66.746094 16.824219 "/>
<path style=" stroke:none;fill-rule:nonzero;fill:rgb(74.804688%,59.179688%,6.298828%);fill-opacity:1;" d="M 67.339844 16.59375 C 67.339844 16.59375 67.277344 16.398438 67.46875 16.417969 C 67.65625 16.441406 67.597656 16.550781 67.566406 16.59375 C 67.53125 16.640625 67.683594 16.652344 67.703125 16.738281 C 67.71875 16.824219 67.582031 16.941406 67.609375 16.949219 C 67.640625 16.964844 67.679688 16.972656 67.703125 17.066406 C 67.726562 17.15625 67.664062 17.230469 67.679688 17.242188 C 67.695312 17.253906 67.78125 17.347656 67.78125 17.347656 C 67.78125 17.347656 67.285156 17.339844 67.332031 17.347656 C 67.375 17.351562 67.449219 17.152344 67.449219 17.152344 C 67.449219 17.152344 67.351562 16.914062 67.417969 16.882812 C 67.480469 16.851562 67.351562 16.738281 67.351562 16.738281 L 67.421875 16.601562 "/>
<path style=" stroke:none;fill-rule:nonzero;fill:rgb(74.804688%,59.179688%,6.298828%);fill-opacity:1;" d="M 67.996094 16.601562 C 67.988281 16.585938 67.902344 16.359375 68.070312 16.414062 C 68.234375 16.46875 68.308594 16.617188 68.21875 16.648438 C 68.132812 16.675781 68.285156 16.738281 68.304688 16.757812 C 68.320312 16.773438 68.242188 16.960938 68.257812 16.957031 C 68.277344 16.953125 68.5 17.066406 68.414062 17.117188 C 68.328125 17.167969 68.386719 17.289062 68.386719 17.289062 L 68.433594 17.347656 L 68.085938 17.347656 L 68.132812 17.152344 C 68.132812 17.152344 68.027344 17.066406 68.082031 16.953125 C 67.984375 16.789062 68.0625 16.640625 68.0625 16.640625 "/>
<path style=" stroke:none;fill-rule:nonzero;fill:rgb(69.726562%,54.101562%,12.5%);fill-opacity:1;" d="M 66.710938 13.277344 C 66.710938 13.277344 66.636719 13.035156 66.636719 12.902344 C 66.636719 12.773438 66.570312 12.65625 66.511719 12.609375 C 66.453125 12.566406 66.613281 12.609375 66.613281 12.609375 C 66.613281 12.609375 66.671875 12.53125 66.710938 12.546875 C 66.753906 12.566406 66.804688 12.59375 66.804688 12.59375 L 66.882812 12.546875 L 67 12.59375 L 67.136719 12.546875 L 67.226562 12.632812 C 67.226562 12.632812 67.140625 12.726562 67.140625 12.835938 C 67.140625 12.945312 67.140625 13.097656 67.136719 13.15625 C 67.128906 13.210938 67.023438 13.332031 67.023438 13.332031 C 67.023438 13.332031 67.25 13.425781 67.363281 13.425781 C 67.480469 13.425781 67.496094 13.414062 67.546875 13.5 C 67.597656 13.585938 67.761719 13.738281 67.75 13.84375 C 67.738281 13.945312 67.75 14.003906 67.75 14.003906 L 67.800781 14.003906 C 67.800781 14.003906 67.835938 13.832031 68.007812 13.835938 C 68.179688 13.84375 68.378906 13.832031 68.367188 14.078125 C 68.355469 14.324219 68.230469 14.488281 68.230469 14.496094 C 68.230469 14.503906 68.019531 14.582031 67.945312 14.554688 C 67.730469 14.777344 67.699219 14.730469 67.652344 14.628906 C 67.605469 14.527344 67.527344 14.546875 67.527344 14.546875 L 67.496094 14.597656 C 67.496094 14.597656 67.726562 14.804688 67.824219 14.914062 C 67.921875 15.023438 67.949219 15.398438 67.945312 15.554688 C 67.9375 15.71875 67.882812 16.015625 67.882812 16.015625 L 67.664062 16.261719 L 67.160156 16.261719 C 67.160156 16.261719 67.136719 16.496094 67.152344 16.597656 C 67.171875 16.703125 66.90625 16.792969 66.902344 16.753906 C 66.894531 16.714844 66.636719 16.847656 66.625 16.675781 C 66.613281 16.503906 66.613281 16.375 66.613281 16.308594 C 66.613281 16.238281 66.683594 16.25 66.390625 16.199219 C 66.097656 16.148438 66.148438 16.210938 66.109375 16.1875 C 66.070312 16.164062 65.828125 16.039062 65.839844 15.804688 C 65.851562 15.570312 65.882812 15.03125 65.984375 14.925781 C 66.085938 14.824219 66.207031 14.652344 66.234375 14.582031 C 66.265625 14.515625 66.222656 14.496094 66.222656 14.496094 C 66.222656 14.496094 66.082031 14.695312 65.929688 14.582031 C 65.78125 14.46875 65.816406 14.53125 65.765625 14.527344 C 65.714844 14.519531 65.472656 14.410156 65.628906 14.226562 L 65.589844 14.140625 C 65.589844 14.140625 65.359375 14.078125 65.410156 13.972656 C 65.515625 14.054688 65.640625 14.066406 65.640625 14.066406 C 65.640625 14.066406 65.421875 12.101562 65.402344 12.128906 C 65.382812 12.15625 65.71875 14.074219 65.730469 14.050781 C 65.742188 14.027344 65.828125 13.941406 65.828125 13.941406 C 65.828125 13.941406 65.867188 13.984375 65.886719 13.980469 C 65.902344 13.972656 66.035156 13.871094 66.160156 13.648438 C 66.289062 13.425781 66.484375 13.351562 66.710938 13.277344 "/>
<path style=" stroke:none;fill-rule:nonzero;fill:rgb(87.889099%,78.709412%,68.943787%);fill-opacity:1;" d="M 66.695312 12.835938 L 66.730469 13.191406 L 66.765625 13.253906 L 66.730469 13.335938 L 66.917969 13.472656 L 67.015625 13.386719 L 67.015625 13.203125 L 67.089844 13.070312 L 67.0625 12.835938 C 67.0625 12.835938 66.839844 12.746094 66.695312 12.835938 "/>
<path style=" stroke:none;fill-rule:nonzero;fill:rgb(87.889099%,78.709412%,68.943787%);fill-opacity:1;" d="M 66.625 13.300781 L 66.625 13.503906 L 66.828125 13.554688 "/>
<path style=" stroke:none;fill-rule:nonzero;fill:rgb(87.889099%,78.709412%,68.943787%);fill-opacity:1;" d="M 66.488281 13.398438 C 66.488281 13.449219 66.449219 13.789062 66.453125 13.816406 C 66.460938 13.84375 66.828125 13.605469 66.828125 13.605469 L 66.828125 13.671875 L 66.425781 13.945312 L 66.046875 14.011719 L 66.117188 14.121094 L 65.933594 14.121094 L 66.109375 14.359375 L 66.070312 14.597656 C 66.070312 14.597656 65.691406 14.132812 65.707031 14.121094 C 65.726562 14.109375 65.886719 13.886719 66.011719 13.84375 C 66.171875 13.59375 66.269531 13.425781 66.269531 13.425781 "/>
<path style=" stroke:none;fill-rule:nonzero;fill:rgb(87.889099%,78.709412%,68.943787%);fill-opacity:1;" d="M 67.238281 13.398438 C 67.199219 13.410156 67.015625 13.621094 67.015625 13.621094 L 67.238281 13.707031 L 67.308594 13.664062 C 67.308594 13.664062 67.441406 13.992188 67.464844 14.011719 C 67.484375 14.027344 67.566406 14.039062 67.628906 14.0625 C 67.691406 14.085938 67.777344 14.011719 67.777344 14.011719 C 67.777344 14.011719 67.472656 13.929688 67.492188 13.902344 C 67.507812 13.875 67.316406 13.472656 67.316406 13.472656 "/>
<path style=" stroke:none;fill-rule:nonzero;fill:rgb(87.889099%,78.709412%,68.943787%);fill-opacity:1;" d="M 66.578125 14.097656 L 66.894531 13.960938 C 66.894531 13.960938 66.832031 14.175781 66.867188 14.160156 C 66.902344 14.144531 67.015625 14.046875 67.015625 14.066406 C 67.015625 14.085938 67.039062 14.195312 67.039062 14.195312 L 66.894531 14.246094 "/>
<path style=" stroke:none;fill-rule:nonzero;fill:rgb(87.889099%,78.709412%,68.943787%);fill-opacity:1;" d="M 67.136719 14.46875 L 66.96875 14.597656 L 66.921875 14.328125 "/>
<path style=" stroke:none;fill-rule:nonzero;fill:rgb(87.889099%,78.709412%,68.943787%);fill-opacity:1;" d="M 66.855469 14.328125 L 66.890625 14.597656 C 66.890625 14.597656 66.492188 14.46875 66.523438 14.476562 C 66.550781 14.480469 66.632812 14.222656 66.855469 14.328125 "/>
<path style=" stroke:none;fill-rule:nonzero;fill:rgb(87.889099%,78.709412%,68.943787%);fill-opacity:1;" d="M 67.433594 14.101562 L 67.742188 14.121094 L 67.824219 14.359375 C 67.824219 14.359375 67.601562 14.539062 67.628906 14.523438 C 67.65625 14.503906 67.714844 14.328125 67.714844 14.328125 L 67.59375 14.191406 "/>
<path style=" stroke:none;fill-rule:nonzero;fill:rgb(87.889099%,78.709412%,68.943787%);fill-opacity:1;" d="M 67.578125 14.871094 L 67.515625 14.699219 L 67.089844 15.058594 C 67.089844 15.058594 67.335938 15.078125 67.578125 14.871094 "/>
<path style=" stroke:none;fill-rule:nonzero;fill:rgb(87.889099%,78.709412%,68.943787%);fill-opacity:1;" d="M 66.019531 14.941406 C 66.019531 14.941406 66.535156 15.230469 66.695312 15.214844 C 66.855469 15.199219 67.269531 15.128906 67.289062 15.125 C 67.3125 15.117188 67.628906 14.921875 67.6875 14.941406 C 67.742188 14.957031 67.824219 15.148438 67.824219 15.148438 L 67.667969 15.839844 L 66.921875 16.097656 C 66.921875 16.097656 66.109375 15.9375 66.074219 15.9375 C 66.042969 15.9375 65.839844 15.972656 65.839844 15.972656 C 65.839844 15.972656 65.734375 14.792969 66.019531 14.941406 "/>
<path style=" stroke:none;fill-rule:nonzero;fill:rgb(69.726562%,54.101562%,12.5%);fill-opacity:1;" d="M 68.429688 16.628906 C 68.429688 16.628906 68.144531 16.417969 68.242188 16.128906 C 68.335938 15.84375 68.378906 15.765625 68.367188 15.664062 C 68.355469 15.570312 68.394531 15.425781 68.429688 15.40625 C 68.464844 15.390625 68.488281 15.085938 68.488281 15.085938 C 68.488281 15.085938 68.328125 14.90625 68.539062 14.777344 C 68.625 13.894531 68.867188 12.222656 68.867188 12.203125 C 68.867188 12.1875 68.597656 12.382812 68.542969 12.140625 C 68.488281 11.902344 68.5 11.589844 68.542969 11.589844 C 68.585938 11.589844 68.96875 11.382812 68.992188 11.78125 C 69.015625 12.175781 68.847656 12.988281 68.847656 13.03125 C 68.847656 13.070312 68.636719 14.804688 68.636719 14.804688 L 68.75 14.847656 C 68.75 14.847656 69.253906 13.746094 69.558594 13.621094 C 69.457031 13.429688 69.5 13.070312 69.5 13.070312 C 69.5 13.070312 69.597656 12.382812 69.667969 12.3125 C 69.738281 12.242188 69.960938 12.074219 69.960938 12.074219 L 70.003906 12.300781 L 70.09375 12.238281 C 70.09375 12.238281 70.113281 12.863281 70.058594 13.039062 L 70 13.21875 L 70.144531 13.265625 C 70.144531 13.265625 70.34375 13.535156 70.257812 13.621094 C 70.457031 14.1875 70.535156 14.542969 70.535156 14.570312 C 70.535156 14.601562 70.5625 15.632812 70.5625 15.632812 C 70.5625 15.632812 69.886719 15.828125 69.507812 16.492188 C 69.128906 17.15625 69.164062 17.355469 69.164062 17.355469 L 68.78125 17.355469 C 68.78125 17.355469 68.59375 17.058594 68.59375 16.96875 C 68.429688 16.835938 68.429688 16.628906 68.429688 16.628906 "/>
<path style=" stroke:none;fill-rule:nonzero;fill:rgb(87.889099%,78.709412%,68.943787%);fill-opacity:1;" d="M 69.691406 12.867188 L 69.875 12.28125 L 70.042969 12.632812 L 69.925781 12.976562 Z M 69.691406 12.867188 "/>
<path style=" stroke:none;fill-rule:nonzero;fill:rgb(87.889099%,78.709412%,68.943787%);fill-opacity:1;" d="M 69.484375 13.078125 C 69.484375 13.078125 69.75 13.132812 69.769531 13.132812 C 69.792969 13.132812 69.808594 13.1875 69.808594 13.1875 L 69.761719 13.425781 L 69.691406 13.476562 C 69.691406 13.476562 69.527344 13.339844 69.46875 13.375 C 69.484375 13.335938 69.46875 13.316406 69.46875 13.316406 L 69.492188 13.253906 "/>
<path style=" stroke:none;fill-rule:nonzero;fill:rgb(87.889099%,78.709412%,68.943787%);fill-opacity:1;" d="M 69.847656 13.222656 L 69.808594 13.414062 L 69.886719 13.414062 L 69.976562 13.222656 Z M 69.847656 13.222656 "/>
<path style=" stroke:none;fill-rule:nonzero;fill:rgb(87.889099%,78.709412%,68.943787%);fill-opacity:1;" d="M 69.609375 13.609375 L 69.925781 13.441406 L 70.003906 13.503906 L 69.78125 14 L 69.46875 13.953125 L 69.609375 13.742188 "/>
<path style=" stroke:none;fill-rule:nonzero;fill:rgb(87.889099%,78.709412%,68.943787%);fill-opacity:1;" d="M 69.386719 14.160156 C 69.445312 14.175781 69.691406 14.199219 69.691406 14.199219 L 69.386719 14.675781 "/>
<path style=" stroke:none;fill-rule:nonzero;fill:rgb(87.889099%,78.709412%,68.943787%);fill-opacity:1;" d="M 69.316406 14.261719 C 69.304688 14.285156 69.300781 14.410156 69.316406 14.417969 C 69.328125 14.425781 69.277344 14.621094 69.277344 14.621094 L 69.121094 14.746094 L 68.828125 14.996094 L 68.652344 15.070312 L 68.496094 15.046875 L 68.449219 14.824219 L 68.785156 14.855469 "/>
<path style=" stroke:none;fill-rule:nonzero;fill:rgb(87.889099%,78.709412%,68.943787%);fill-opacity:1;" d="M 70.179688 13.722656 C 70.167969 13.738281 69.414062 14.898438 69.414062 14.898438 L 69.734375 14.785156 C 69.734375 14.785156 70.25 14.09375 70.25 14.082031 C 70.25 14.070312 70.179688 13.722656 70.179688 13.722656 "/>
<path style=" stroke:none;fill-rule:nonzero;fill:rgb(87.889099%,78.709412%,68.943787%);fill-opacity:1;" d="M 70.25 14.285156 C 70.222656 14.316406 69.433594 15.914062 69.433594 15.914062 C 69.433594 15.914062 69.222656 15.484375 69.222656 15.507812 C 69.222656 15.527344 69.070312 15.242188 69.070312 15.242188 L 68.863281 15.273438 C 68.863281 15.273438 68.859375 15.652344 68.832031 15.691406 C 68.808594 15.730469 68.558594 16.46875 68.558594 16.46875 C 68.558594 16.46875 68.699219 16.523438 68.714844 16.503906 C 68.726562 16.480469 69.011719 15.648438 69.023438 15.640625 C 69.035156 15.632812 69.121094 16.066406 69.121094 16.066406 C 69.121094 16.066406 68.734375 16.910156 68.757812 16.910156 C 68.777344 16.910156 69.347656 16.296875 69.386719 16.285156 C 69.425781 16.269531 69.910156 15.597656 69.910156 15.597656 "/>
<path style=" stroke:none;fill-rule:nonzero;fill:rgb(87.889099%,78.709412%,68.943787%);fill-opacity:1;" d="M 70.152344 15.789062 C 70.179688 15.773438 70.519531 14.960938 70.453125 14.597656 C 70.550781 14.921875 70.394531 15.71875 70.394531 15.71875 "/>
<path style=" stroke:none;fill-rule:nonzero;fill:rgb(1.597595%,0%,0%);fill-opacity:1;" d="M 63.867188 13.296875 L 63.898438 13.519531 L 64.003906 13.585938 L 64.101562 13.488281 L 64.253906 13.585938 L 64.28125 13.484375 L 64.304688 13.6875 C 64.304688 13.6875 64.339844 14 64.363281 14 C 64.382812 14 64.324219 13.980469 64.324219 13.980469 L 64.277344 13.828125 L 64.199219 13.910156 L 64.210938 14.070312 L 64.179688 14.070312 L 64.117188 13.894531 L 64.273438 13.746094 L 64.25 13.652344 L 64.191406 13.738281 L 64.039062 13.757812 L 63.917969 13.585938 L 63.894531 13.703125 L 63.980469 14.109375 L 63.894531 14.074219 L 63.820312 13.632812 L 63.820312 13.511719 L 63.863281 13.546875 C 63.863281 13.546875 63.859375 13.398438 63.820312 13.386719 L 63.824219 13.328125 "/>
<path style=" stroke:none;fill-rule:nonzero;fill:rgb(1.597595%,0%,0%);fill-opacity:1;" d="M 64.253906 13.222656 L 64.296875 13.398438 L 64.296875 13.222656 "/>
<path style=" stroke:none;fill-rule:nonzero;fill:rgb(1.597595%,0%,0%);fill-opacity:1;" d="M 63.90625 14.292969 L 64.476562 14.21875 L 64.597656 14.359375 L 64.480469 14.40625 L 64.460938 14.660156 L 64.539062 14.734375 L 64.707031 14.734375 C 64.707031 14.734375 64.578125 14.828125 64.625 14.855469 C 64.671875 14.886719 65.160156 15.210938 65.160156 15.210938 L 65.359375 16.480469 C 65.359375 16.480469 65.3125 16.464844 65.3125 16.449219 C 65.3125 16.429688 65.136719 15.507812 65.136719 15.507812 L 65.148438 15.316406 L 64.757812 15.019531 L 64.570312 14.90625 L 64.5 15.019531 L 64.523438 14.792969 L 64.441406 14.855469 C 64.441406 14.855469 64.320312 14.765625 64.332031 14.757812 C 64.34375 14.75 64.367188 14.507812 64.367188 14.507812 L 64.296875 14.347656 L 64.050781 14.398438 L 64.003906 14.683594 C 64.003906 14.683594 64.125 15.234375 64.132812 15.222656 C 64.140625 15.210938 63.960938 15.019531 63.960938 15.019531 C 63.960938 15.019531 64.066406 15.410156 64.074219 15.433594 C 64.082031 15.453125 63.695312 14.707031 63.707031 14.699219 C 63.722656 14.6875 63.664062 14.414062 63.664062 14.414062 L 63.820312 14.75 C 63.820312 14.75 63.898438 14.976562 63.910156 14.972656 C 63.921875 14.96875 63.90625 14.292969 63.90625 14.292969 "/>
<path style=" stroke:none;fill-rule:nonzero;fill:rgb(1.597595%,0%,0%);fill-opacity:1;" d="M 65.019531 16.121094 L 65.109375 16.527344 C 65.109375 16.527344 64.71875 16.839844 64.734375 16.863281 C 64.753906 16.890625 64.578125 16.792969 64.578125 16.792969 L 64.683594 17.199219 L 64.480469 17.367188 L 64.886719 17.367188 L 64.796875 17.171875 C 64.796875 17.171875 64.878906 17.078125 64.890625 17.058594 C 64.902344 17.035156 64.859375 16.777344 64.859375 16.777344 C 64.859375 16.777344 65.023438 16.722656 65.035156 16.722656 C 65.050781 16.722656 65.195312 16.78125 65.195312 16.78125 L 65.15625 17 L 65.230469 17.007812 L 65.335938 16.652344 C 65.335938 16.652344 65.222656 16.675781 65.199219 16.675781 C 65.179688 16.675781 65.007812 16.664062 65.019531 16.664062 C 65.03125 16.664062 65.148438 16.5625 65.160156 16.558594 C 65.175781 16.554688 65.019531 16.121094 65.019531 16.121094 "/>
<path style=" stroke:none;fill-rule:nonzero;fill:rgb(1.597595%,0%,0%);fill-opacity:1;" d="M 65.167969 17.242188 L 64.910156 16.996094 L 64.988281 17.328125 L 65.070312 17.367188 C 65.070312 17.367188 65.136719 17.355469 65.148438 17.367188 C 65.160156 17.378906 65.167969 17.242188 65.167969 17.242188 "/>
<path style=" stroke:none;fill-rule:nonzero;fill:rgb(1.597595%,0%,0%);fill-opacity:1;" d="M 65.902344 12.03125 L 65.792969 11.8125 L 65.902344 11.742188 L 65.992188 11.886719 Z M 65.902344 12.03125 "/>
<path style=" stroke:none;fill-rule:nonzero;fill:rgb(1.597595%,0%,0%);fill-opacity:1;" d="M 66.433594 11.886719 C 66.433594 11.886719 66.511719 11.671875 66.523438 11.691406 C 66.53125 11.707031 66.644531 11.886719 66.644531 11.886719 L 66.539062 12.089844 "/>
<path style=" stroke:none;fill-rule:nonzero;fill:rgb(1.597595%,0%,0%);fill-opacity:1;" d="M 67.132812 11.847656 L 67.214844 11.691406 C 67.214844 11.691406 67.34375 11.8125 67.332031 11.847656 C 67.320312 11.882812 67.210938 12.089844 67.210938 12.089844 L 67.132812 11.886719 "/>
<path style=" stroke:none;fill-rule:nonzero;fill:rgb(1.597595%,0%,0%);fill-opacity:1;" d="M 67.820312 11.886719 C 67.820312 11.886719 67.84375 11.742188 67.859375 11.742188 C 67.875 11.742188 68.019531 11.878906 67.988281 11.921875 C 67.953125 11.960938 67.90625 12.089844 67.90625 12.089844 "/>
<path style=" stroke:none;fill-rule:nonzero;fill:rgb(1.597595%,0%,0%);fill-opacity:1;" d="M 67.539062 12.136719 C 67.40625 12.144531 67.519531 11.960938 67.578125 11.992188 C 67.640625 12.027344 67.726562 12.128906 67.539062 12.136719 "/>
<path style=" stroke:none;fill-rule:nonzero;fill:rgb(1.597595%,0%,0%);fill-opacity:1;" d="M 66.902344 12.140625 C 66.902344 12.140625 66.773438 12.117188 66.835938 12.0625 C 66.894531 12.007812 67.09375 11.980469 66.902344 12.140625 "/>
<path style=" stroke:none;fill-rule:nonzero;fill:rgb(1.597595%,0%,0%);fill-opacity:1;" d="M 66.234375 12.164062 C 66.234375 12.164062 66.058594 11.933594 66.234375 11.988281 C 66.414062 12.042969 66.234375 12.164062 66.234375 12.164062 "/>
<path style=" stroke:none;fill-rule:nonzero;fill:rgb(1.597595%,0%,0%);fill-opacity:1;" d="M 66.234375 12.597656 C 66.234375 12.597656 66.152344 12.328125 66.234375 12.257812 C 66.277344 12.453125 66.234375 12.597656 66.234375 12.597656 "/>
<path style=" stroke:none;fill-rule:nonzero;fill:rgb(1.597595%,0%,0%);fill-opacity:1;" d="M 66.226562 13.074219 C 66.171875 13.074219 66.101562 12.863281 66.101562 12.863281 C 66.101562 12.863281 66.222656 12.691406 66.226562 12.707031 C 66.230469 12.726562 66.351562 12.921875 66.351562 12.921875 "/>
<path style=" stroke:none;fill-rule:nonzero;fill:rgb(1.597595%,0%,0%);fill-opacity:1;" d="M 66.234375 13.566406 C 66.234375 13.566406 66.097656 13.300781 66.226562 13.234375 C 66.292969 13.425781 66.234375 13.566406 66.234375 13.566406 "/>
<path style=" stroke:none;fill-rule:nonzero;fill:rgb(1.597595%,0%,0%);fill-opacity:1;" d="M 66.796875 12.425781 L 66.902344 12.253906 L 67.046875 12.425781 L 66.902344 12.570312 Z M 66.796875 12.425781 "/>
<path style=" stroke:none;fill-rule:nonzero;fill:rgb(1.597595%,0%,0%);fill-opacity:1;" d="M 67.523438 12.597656 C 67.523438 12.597656 67.421875 12.292969 67.523438 12.257812 C 67.613281 12.390625 67.675781 12.546875 67.523438 12.597656 "/>
<path style=" stroke:none;fill-rule:nonzero;fill:rgb(1.597595%,0%,0%);fill-opacity:1;" d="M 67.398438 12.890625 L 67.546875 12.707031 L 67.683594 12.890625 L 67.546875 13.101562 Z M 67.398438 12.890625 "/>
<path style=" stroke:none;fill-rule:nonzero;fill:rgb(1.597595%,0%,0%);fill-opacity:1;" d="M 67.542969 13.53125 C 67.542969 13.53125 67.421875 13.300781 67.519531 13.183594 C 67.664062 13.347656 67.542969 13.53125 67.542969 13.53125 "/>
<path style=" stroke:none;fill-rule:nonzero;fill:rgb(1.597595%,0%,0%);fill-opacity:1;" d="M 66.710938 12.902344 L 66.710938 13.15625 L 66.796875 13.261719 L 66.710938 13.3125 L 66.644531 13.3125 L 66.59375 13.15625 L 66.644531 12.933594 "/>
<path style=" stroke:none;fill-rule:nonzero;fill:rgb(1.597595%,0%,0%);fill-opacity:1;" d="M 66.921875 13.074219 C 66.921875 13.074219 66.90625 13 66.921875 12.945312 C 66.929688 12.90625 66.960938 12.878906 67.019531 12.890625 C 67.121094 12.910156 67.171875 12.707031 67.171875 12.707031 L 67.203125 13.074219 C 67.203125 13.074219 67.105469 12.898438 67.097656 13.003906 C 67.082031 12.933594 67.046875 12.933594 67.046875 12.933594 C 67.046875 12.933594 66.914062 12.910156 66.921875 13.074219 "/>
<path style=" stroke:none;fill-rule:nonzero;fill:rgb(1.597595%,0%,0%);fill-opacity:1;" d="M 67.132812 13.109375 L 67.132812 13.234375 L 67.046875 13.261719 "/>
<path style=" stroke:none;fill-rule:nonzero;fill:rgb(1.597595%,0%,0%);fill-opacity:1;" d="M 65.941406 14.175781 C 65.941406 14.175781 66.292969 14.117188 66.457031 13.996094 C 66.617188 13.878906 66.902344 13.699219 66.902344 13.699219 L 66.433594 14.15625 L 66.257812 14.175781 L 66.484375 14.332031 C 66.484375 14.332031 66.214844 14.566406 66.238281 14.554688 C 66.257812 14.542969 66.246094 14.359375 66.28125 14.332031 C 66.316406 14.304688 66.101562 14.222656 66.101562 14.222656 C 66.101562 14.222656 66.167969 14.449219 66.15625 14.425781 C 66.148438 14.402344 65.941406 14.175781 65.941406 14.175781 "/>
<path style=" stroke:none;fill-rule:nonzero;fill:rgb(1.597595%,0%,0%);fill-opacity:1;" d="M 65.75 14.277344 C 65.75 14.277344 66.023438 14.53125 65.992188 14.628906 C 65.933594 14.558594 65.84375 14.519531 65.84375 14.519531 L 65.792969 14.511719 "/>
<path style=" stroke:none;fill-rule:nonzero;fill:rgb(1.597595%,0%,0%);fill-opacity:1;" d="M 66.9375 13.800781 C 66.9375 13.800781 66.992188 13.972656 66.9375 14.085938 C 67.070312 14.070312 67.117188 13.894531 66.9375 13.800781 "/>
<path style=" stroke:none;fill-rule:nonzero;fill:rgb(1.597595%,0%,0%);fill-opacity:1;" d="M 67.480469 14.246094 L 67.335938 14.332031 C 67.335938 14.332031 67.433594 14.632812 67.480469 14.628906 C 67.527344 14.621094 67.601562 14.425781 67.535156 14.390625 C 67.46875 14.359375 67.480469 14.246094 67.480469 14.246094 "/>
<path style=" stroke:none;fill-rule:nonzero;fill:rgb(1.597595%,0%,0%);fill-opacity:1;" d="M 67.859375 14.4375 C 67.859375 14.4375 67.636719 14.640625 67.71875 14.71875 C 67.863281 14.652344 67.90625 14.523438 67.90625 14.523438 "/>
<path style=" stroke:none;fill-rule:nonzero;fill:rgb(1.597595%,0%,0%);fill-opacity:1;" d="M 68.046875 14.71875 L 67.859375 14.925781 C 67.859375 14.925781 68.011719 15.191406 68.027344 15.152344 C 68.042969 15.113281 68.160156 14.964844 68.183594 14.9375 C 68.207031 14.90625 68.046875 14.71875 68.046875 14.71875 "/>
<path style=" stroke:none;fill-rule:nonzero;fill:rgb(1.597595%,0%,0%);fill-opacity:1;" d="M 68.023438 15.320312 C 68.023438 15.320312 67.992188 15.546875 68.070312 15.667969 C 68.195312 15.539062 68.023438 15.320312 68.023438 15.320312 "/>
<path style=" stroke:none;fill-rule:nonzero;fill:rgb(1.597595%,0%,0%);fill-opacity:1;" d="M 68.066406 15.800781 C 68.066406 15.800781 68.042969 16.03125 67.941406 16.015625 C 68.027344 16.15625 68.066406 16.253906 68.066406 16.253906 L 68.183594 16 "/>
<path style=" stroke:none;fill-rule:nonzero;fill:rgb(1.597595%,0%,0%);fill-opacity:1;" d="M 65.75 14.746094 C 65.75 14.746094 65.621094 14.957031 65.582031 15 C 65.714844 15.199219 65.75 15.214844 65.75 15.214844 L 65.894531 14.9375 "/>
<path style=" stroke:none;fill-rule:nonzero;fill:rgb(1.597595%,0%,0%);fill-opacity:1;" d="M 65.707031 15.320312 C 65.707031 15.320312 65.566406 15.5 65.707031 15.71875 C 65.828125 15.507812 65.855469 15.449219 65.707031 15.320312 "/>
<path style=" stroke:none;fill-rule:nonzero;fill:rgb(1.597595%,0%,0%);fill-opacity:1;" d="M 66.539062 15.046875 L 66.734375 15.214844 L 66.539062 15.214844 "/>
<path style=" stroke:none;fill-rule:nonzero;fill:rgb(1.597595%,0%,0%);fill-opacity:1;" d="M 66.835938 15.242188 L 66.9375 15.242188 C 66.9375 15.242188 67.03125 14.996094 66.996094 15 C 66.957031 15.007812 66.902344 15.15625 66.902344 15.15625 L 66.695312 14.914062 "/>
<path style=" stroke:none;fill-rule:nonzero;fill:rgb(1.597595%,0%,0%);fill-opacity:1;" d="M 65.6875 15.800781 L 65.582031 16.054688 C 65.582031 16.054688 65.703125 16.3125 65.726562 16.277344 C 65.75 16.246094 65.871094 16.042969 65.871094 16.042969 "/>
<path style=" stroke:none;fill-rule:nonzero;fill:rgb(1.597595%,0%,0%);fill-opacity:1;" d="M 66.226562 16.042969 C 66.257812 16.03125 66.839844 16.171875 66.847656 16.171875 C 66.855469 16.171875 66.894531 16.402344 66.902344 16.484375 C 66.90625 16.570312 66.910156 16.769531 66.902344 16.769531 C 66.890625 16.769531 66.761719 16.792969 66.761719 16.792969 C 66.761719 16.792969 66.75 16.484375 66.769531 16.480469 C 66.785156 16.472656 66.734375 16.199219 66.734375 16.199219 "/>
<path style=" stroke:none;fill-rule:nonzero;fill:rgb(1.597595%,0%,0%);fill-opacity:1;" d="M 66.964844 16.152344 L 67.800781 15.960938 L 67.613281 16.09375 C 67.613281 16.09375 67.597656 16.246094 67.589844 16.253906 C 67.578125 16.265625 67.398438 16.253906 67.398438 16.253906 C 67.398438 16.253906 67.027344 16.4375 67.046875 16.417969 C 67.070312 16.394531 67.121094 16.195312 67.132812 16.1875 C 67.144531 16.183594 66.964844 16.152344 66.964844 16.152344 "/>
<path style=" stroke:none;fill-rule:nonzero;fill:rgb(1.597595%,0%,0%);fill-opacity:1;" d="M 65.683594 16.597656 C 65.683594 16.597656 65.632812 16.429688 65.726562 16.464844 C 65.816406 16.496094 65.761719 16.5625 65.683594 16.597656 "/>
<path style=" stroke:none;fill-rule:nonzero;fill:rgb(1.597595%,0%,0%);fill-opacity:1;" d="M 65.542969 16.886719 C 65.542969 16.886719 65.46875 16.824219 65.492188 16.792969 C 65.515625 16.757812 65.667969 16.664062 65.667969 16.664062 L 65.71875 16.777344 L 65.582031 16.886719 "/>
<path style=" stroke:none;fill-rule:nonzero;fill:rgb(1.597595%,0%,0%);fill-opacity:1;" d="M 65.449219 17.039062 C 65.449219 17.039062 65.425781 17.015625 65.542969 17.003906 C 65.660156 16.992188 65.75 16.992188 65.722656 17.039062 C 65.695312 17.085938 65.597656 17.105469 65.449219 17.039062 "/>
<path style=" stroke:none;fill-rule:nonzero;fill:rgb(1.597595%,0%,0%);fill-opacity:1;" d="M 65.359375 17.359375 C 65.386719 17.351562 65.546875 17.234375 65.546875 17.234375 L 65.671875 17.359375 "/>
<path style=" stroke:none;fill-rule:nonzero;fill:rgb(1.597595%,0%,0%);fill-opacity:1;" d="M 66.167969 16.527344 L 66.316406 16.417969 L 66.421875 16.527344 L 66.296875 16.628906 Z M 66.167969 16.527344 "/>
<path style=" stroke:none;fill-rule:nonzero;fill:rgb(1.597595%,0%,0%);fill-opacity:1;" d="M 66.253906 16.84375 C 66.253906 16.84375 66.128906 16.714844 66.296875 16.664062 C 66.34375 16.804688 66.292969 16.808594 66.253906 16.84375 "/>
<path style=" stroke:none;fill-rule:nonzero;fill:rgb(1.597595%,0%,0%);fill-opacity:1;" d="M 66.136719 17 L 66.261719 16.964844 L 66.382812 17.039062 C 66.382812 17.039062 66.1875 17.167969 66.210938 17.132812 C 66.230469 17.101562 66.074219 17 66.074219 17 "/>
<path style=" stroke:none;fill-rule:nonzero;fill:rgb(1.597595%,0%,0%);fill-opacity:1;" d="M 66.113281 17.359375 L 66.207031 17.234375 L 66.292969 17.359375 "/>
<path style=" stroke:none;fill-rule:nonzero;fill:rgb(1.597595%,0%,0%);fill-opacity:1;" d="M 66.734375 17 C 66.734375 17 66.863281 16.972656 66.9375 16.964844 C 67.007812 16.960938 67.109375 17.039062 66.964844 17.082031 C 66.820312 17.121094 66.734375 17 66.734375 17 "/>
<path style=" stroke:none;fill-rule:nonzero;fill:rgb(1.597595%,0%,0%);fill-opacity:1;" d="M 66.773438 17.324219 C 66.800781 17.308594 66.902344 17.234375 66.902344 17.234375 C 66.902344 17.234375 67.078125 17.359375 67.054688 17.359375 C 67.03125 17.359375 66.773438 17.324219 66.773438 17.324219 "/>
<path style=" stroke:none;fill-rule:nonzero;fill:rgb(1.597595%,0%,0%);fill-opacity:1;" d="M 67.519531 17.359375 L 67.640625 17.359375 L 67.578125 17.234375 "/>
<path style=" stroke:none;fill-rule:nonzero;fill:rgb(1.597595%,0%,0%);fill-opacity:1;" d="M 67.382812 17.039062 L 67.578125 17 L 67.699219 17.019531 L 67.519531 17.117188 Z M 67.382812 17.039062 "/>
<path style=" stroke:none;fill-rule:nonzero;fill:rgb(1.597595%,0%,0%);fill-opacity:1;" d="M 67.5625 16.886719 C 67.5625 16.886719 67.449219 16.804688 67.519531 16.664062 C 67.59375 16.738281 67.5625 16.886719 67.5625 16.886719 "/>
<path style=" stroke:none;fill-rule:nonzero;fill:rgb(1.597595%,0%,0%);fill-opacity:1;" d="M 67.332031 16.523438 C 67.332031 16.523438 67.480469 16.496094 67.496094 16.417969 C 67.625 16.472656 67.640625 16.523438 67.640625 16.523438 L 67.488281 16.628906 "/>
<path style=" stroke:none;fill-rule:nonzero;fill:rgb(1.597595%,0%,0%);fill-opacity:1;" d="M 68.117188 16.597656 C 68.117188 16.597656 67.976562 16.515625 68.066406 16.457031 C 68.144531 16.511719 68.144531 16.597656 68.144531 16.597656 "/>
<path style=" stroke:none;fill-rule:nonzero;fill:rgb(1.597595%,0%,0%);fill-opacity:1;" d="M 68.066406 16.777344 L 68.144531 16.691406 L 68.351562 16.753906 L 68.238281 16.886719 Z M 68.066406 16.777344 "/>
<path style=" stroke:none;fill-rule:nonzero;fill:rgb(1.597595%,0%,0%);fill-opacity:1;" d="M 68.117188 17.027344 C 68.082031 16.980469 68.492188 17 68.417969 17.027344 C 68.34375 17.054688 68.226562 17.191406 68.117188 17.027344 "/>
<path style=" stroke:none;fill-rule:nonzero;fill:rgb(1.597595%,0%,0%);fill-opacity:1;" d="M 68.144531 17.339844 C 68.171875 17.320312 68.171875 17.246094 68.210938 17.234375 C 68.246094 17.222656 68.402344 17.339844 68.402344 17.339844 "/>
<path style=" stroke:none;fill-rule:nonzero;fill:rgb(1.597595%,0%,0%);fill-opacity:1;" d="M 70.015625 12.3125 L 70.074219 12.234375 C 70.074219 12.234375 70.152344 12.527344 70.074219 12.664062 C 70.007812 12.371094 70.015625 12.3125 70.015625 12.3125 "/>
<path style=" stroke:none;fill-rule:nonzero;fill:rgb(1.597595%,0%,0%);fill-opacity:1;" d="M 69.789062 13.148438 C 69.800781 13.1875 69.679688 13.523438 69.6875 13.503906 C 69.691406 13.484375 69.570312 13.328125 69.570312 13.328125 L 69.46875 13.417969 L 69.578125 13.457031 L 69.46875 13.480469 L 69.570312 13.640625 L 69.789062 13.542969 L 69.859375 13.457031 L 69.835938 13.359375 L 69.933594 13.210938 "/>
<path style=" stroke:none;fill-rule:nonzero;fill:rgb(1.597595%,0%,0%);fill-opacity:1;" d="M 70.015625 13.25 C 70.015625 13.25 70.109375 13.292969 70.109375 13.316406 C 70.109375 13.335938 70.015625 13.507812 70.015625 13.507812 L 69.898438 13.441406 "/>
<path style=" stroke:none;fill-rule:nonzero;fill:rgb(1.597595%,0%,0%);fill-opacity:1;" d="M 69.382812 14.144531 L 69.382812 14.695312 C 69.382812 14.695312 68.914062 14.894531 68.855469 15.035156 C 68.796875 15.171875 68.710938 15.359375 68.710938 15.359375 C 68.710938 15.359375 68.859375 14.894531 68.96875 14.800781 C 69.078125 14.703125 69.269531 14.691406 69.28125 14.671875 C 69.289062 14.65625 69.347656 14.230469 69.332031 14.253906 L 69.105469 14.5625 L 68.910156 14.753906 C 68.910156 14.753906 68.972656 14.59375 69.066406 14.503906 C 69.160156 14.414062 69.382812 14.144531 69.382812 14.144531 "/>
<path style=" stroke:none;fill-rule:nonzero;fill:rgb(1.597595%,0%,0%);fill-opacity:1;" d="M 69.496094 13.949219 C 69.5 13.9375 69.613281 13.714844 69.613281 13.714844 C 69.613281 13.714844 69.753906 13.695312 69.773438 13.714844 C 69.796875 13.730469 69.980469 13.5625 69.972656 13.585938 C 69.964844 13.605469 69.796875 13.785156 69.796875 13.785156 L 69.628906 13.800781 "/>
<path style=" stroke:none;fill-rule:nonzero;fill:rgb(1.597595%,0%,0%);fill-opacity:1;" d="M 70.226562 13.664062 C 70.226562 13.664062 70.386719 13.863281 70.328125 14.027344 C 70.273438 14.191406 70.242188 14.378906 70.15625 14.519531 C 70.070312 14.664062 69.65625 15.085938 69.632812 15.136719 C 69.609375 15.1875 69.472656 15.363281 69.402344 15.214844 C 69.609375 14.980469 69.699219 14.921875 69.699219 14.921875 L 69.699219 14.839844 C 69.699219 14.839844 69.921875 14.589844 70.042969 14.433594 C 70.164062 14.28125 70.242188 14.148438 70.234375 14.039062 C 70.226562 13.933594 70.199219 13.6875 70.199219 13.6875 "/>
<path style=" stroke:none;fill-rule:nonzero;fill:rgb(1.597595%,0%,0%);fill-opacity:1;" d="M 70.363281 14.300781 L 69.949219 15.539062 C 69.949219 15.539062 69.976562 15.617188 70.046875 15.484375 C 70.113281 15.351562 70.136719 15.238281 70.136719 15.238281 C 70.136719 15.238281 70.246094 15.234375 70.257812 15.222656 C 70.265625 15.210938 70.355469 14.679688 70.363281 14.660156 C 70.371094 14.636719 70.363281 14.300781 70.363281 14.300781 "/>
<path style=" stroke:none;fill-rule:nonzero;fill:rgb(1.597595%,0%,0%);fill-opacity:1;" d="M 69.09375 15.769531 C 69.09375 15.769531 69.140625 16.28125 69.019531 16.382812 C 68.992188 16.175781 69.019531 16.160156 69.019531 16.160156 L 68.710938 16.8125 L 68.613281 16.71875 L 68.96875 16.089844 C 68.96875 16.089844 69.042969 16.082031 69.046875 16.070312 C 69.050781 16.054688 69.09375 15.769531 69.09375 15.769531 "/>
<path style=" stroke:none;fill-rule:nonzero;fill:rgb(1.597595%,0%,0%);fill-opacity:1;" d="M 68.574219 16.40625 C 68.574219 16.40625 68.25 16.382812 68.265625 16.40625 C 68.285156 16.433594 68.59375 16.742188 68.53125 16.710938 C 68.472656 16.675781 68.636719 16.550781 68.613281 16.554688 C 68.59375 16.558594 68.476562 16.472656 68.476562 16.472656 "/>
<path style=" stroke:none;fill-rule:nonzero;fill:rgb(22.410583%,62.304688%,84.764099%);fill-opacity:1;" d="M 17.101562 12.300781 C 15.398438 12.300781 14.398438 12.398438 14.300781 12.398438 C 13.800781 12.398438 12.800781 12.398438 11.300781 12.300781 L 10.699219 13.300781 L 5.699219 18.300781 L 6.101562 12.300781 C 4.699219 12.300781 3.898438 12.398438 3.601562 12.398438 C 3.101562 12.398438 2.199219 12.398438 0.898438 12.300781 L 0.898438 13.300781 C 0.898438 14.101562 0.800781 15.601562 0.699219 17.699219 C 0.601562 20.699219 0.398438 23 0.300781 24.800781 C 0.199219 25.800781 0.199219 27.300781 0 28.800781 C 1.5 28.699219 2.300781 28.699219 2.699219 28.699219 L 5.300781 28.800781 L 5.398438 23.898438 "/>
<path style=" stroke:none;fill-rule:nonzero;fill:rgb(22.410583%,62.304688%,84.764099%);fill-opacity:1;" d="M 11.398438 19.699219 C 11.398438 19.699219 11.800781 20.300781 12.300781 21.101562 C 15.300781 25.898438 18.199219 28.300781 19.300781 28.601562 C 16.800781 28.601562 13.199219 28.699219 11.601562 27.601562 C 10 26.601562 9.101562 24.300781 8.300781 23 "/>
<path style=" stroke:none;fill-rule:nonzero;fill:rgb(100%,65.429688%,10.205078%);fill-opacity:1;" d="M 33 12.300781 L 30.199219 12.300781 C 30.101562 12.300781 30.101562 12.898438 30.101562 14.199219 C 30 15.5 30 17 29.800781 18.5 C 29.699219 20.300781 29.601562 21.5 29.5 22 C 29.398438 22.5 29.300781 22.898438 29.199219 23.199219 C 29.101562 23.5 28.898438 23.800781 28.699219 24 C 28.601562 24.199219 28.398438 24.398438 28.199219 24.5 C 28 24.699219 27.699219 24.800781 27.5 24.898438 C 27.199219 25 26.800781 25.101562 26.5 25.101562 C 26 25.101562 25.699219 25 25.199219 24.898438 C 24.800781 24.699219 24.5 24.5 24.199219 24.300781 C 24 24.101562 23.898438 23.898438 23.898438 23.699219 C 24.898438 28.101562 28.199219 28.699219 30.199219 28.300781 C 30.800781 28.101562 31.300781 27.898438 31.800781 27.699219 C 32.601562 27.300781 33.199219 26.898438 33.5 26.300781 C 33.800781 25.699219 34.199219 25.199219 34.300781 24.5 C 34.5 23.800781 34.601562 22.699219 34.601562 21 L 34.601562 20.601562 L 35.199219 12.199219 C 35.300781 12.300781 33 12.300781 33 12.300781 "/>
<path style=" stroke:none;fill-rule:nonzero;fill:rgb(100%,65.429688%,10.205078%);fill-opacity:1;" d="M 23.800781 25.199219 C 23.699219 23.601562 23.800781 21.699219 23.800781 21.699219 C 23.800781 21.398438 23.800781 20.800781 23.898438 20 C 24 19.199219 24 18.300781 24.101562 17.398438 L 24.5 12.398438 C 23.5 12.398438 22.601562 12.5 22 12.5 C 21.5 12.5 20.601562 12.5 19.398438 12.398438 L 19.199219 17 C 19.101562 18 19.101562 18.699219 19.101562 19.199219 L 18.898438 21.101562 C 18.800781 21.800781 18.800781 22.300781 18.800781 22.800781 C 18.800781 23.199219 18.699219 23.5 18.699219 23.601562 C 18.699219 24.199219 18.800781 24.699219 18.898438 25.101562 C 19 25.601562 19.199219 25.898438 19.398438 26.300781 C 19.601562 26.601562 19.898438 26.898438 20.300781 27.199219 C 20.800781 27.5 21.300781 27.800781 21.800781 28 C 22.398438 28.300781 23.101562 28.5 23.898438 28.601562 C 24.601562 28.699219 25.300781 28.800781 26 28.800781 C 25 28.398438 23.800781 26.898438 23.800781 25.199219 "/>
<path style=" stroke:none;fill-rule:nonzero;fill:rgb(62.304688%,51.756287%,0%);fill-opacity:1;" d="M 53.199219 13.300781 C 53.199219 13.300781 53.101562 13.300781 53.199219 13.300781 C 53.101562 12.898438 52.800781 12.601562 52.300781 12.601562 C 52 12.601562 51.699219 12.800781 51.601562 13.101562 C 51 13 50.300781 12.898438 49.800781 12.898438 C 49.699219 12.601562 49.398438 12.300781 49 12.300781 C 48.601562 12.300781 48.300781 12.5 48.199219 12.898438 C 47.601562 12.898438 47 13 46.398438 13.101562 C 46.300781 12.800781 46 12.601562 45.699219 12.601562 C 45.300781 12.601562 44.898438 12.898438 44.898438 13.300781 L 44.800781 13.300781 C 42.898438 13.800781 41.101562 14.300781 40 14.601562 C 40.800781 21.699219 45.601562 27.300781 49 30 C 52.300781 27.199219 57.101562 21.699219 58 14.601562 C 56.898438 14.300781 55.101562 13.800781 53.199219 13.300781 "/>
<path style=" stroke:none;fill-rule:nonzero;fill:rgb(3.100586%,6.298828%,33.300781%);fill-opacity:1;" d="M 57 14.800781 C 55.898438 14.5 54.5 14.101562 53.101562 13.699219 L 53 13.699219 C 52.898438 13.898438 52.800781 14 52.601562 14 L 52.601562 16 C 52.898438 16.101562 53.101562 16.398438 53.101562 16.699219 C 53.101562 17 52.898438 17.300781 52.601562 17.398438 L 52.601562 18 C 52.601562 18.699219 52.5 19.300781 52.300781 19.800781 C 52.398438 19.898438 52.5 20.101562 52.5 20.398438 C 52.5 20.800781 52.199219 21.199219 51.699219 21.199219 C 51.101562 22.300781 50.300781 23.101562 49.699219 23.5 L 49.699219 23.699219 C 49.699219 24.101562 49.300781 24.5 48.898438 24.5 L 48.898438 29.199219 C 51 27.398438 56.300781 22.199219 57.300781 14.800781 C 57.199219 14.898438 57 14.800781 57 14.800781 "/>
<path style=" stroke:none;fill-rule:nonzero;fill:rgb(76.5625%,0%,0.39978%);fill-opacity:1;" d="M 48.199219 23.800781 L 48.199219 23.601562 C 47.601562 23.199219 46.800781 22.398438 46.199219 21.300781 C 45.800781 21.300781 45.398438 20.898438 45.398438 20.5 C 45.398438 20.300781 45.5 20.101562 45.601562 19.898438 C 45.398438 19.300781 45.300781 18.699219 45.300781 18.101562 L 45.300781 17.5 C 45 17.398438 44.800781 17.101562 44.800781 16.800781 C 44.800781 16.5 45 16.199219 45.300781 16.101562 L 45.300781 14.101562 C 45.101562 14 45 13.898438 44.898438 13.800781 L 44.800781 13.800781 C 43.300781 14.199219 42 14.601562 40.898438 14.898438 C 40.898438 14.898438 40.699219 15 40.398438 15 C 41.398438 22.398438 46.699219 27.601562 48.800781 29.398438 L 48.800781 24.699219 C 48.601562 24.601562 48.199219 24.300781 48.199219 23.800781 "/>
<path style=" stroke:none;fill-rule:nonzero;fill:rgb(100%,100%,100%);fill-opacity:1;" d="M 46 14.101562 L 46 16.101562 C 46.300781 16.199219 46.5 16.5 46.5 16.800781 C 46.5 17.101562 46.300781 17.398438 46 17.5 L 46 18.101562 C 46 18.699219 46.101562 19.199219 46.199219 19.699219 L 46.300781 19.699219 C 46.699219 19.699219 47.101562 20.101562 47.101562 20.5 C 47.101562 20.800781 47 21 46.800781 21.101562 C 47.300781 22 48 22.699219 48.601562 23.101562 C 48.699219 23 48.898438 22.898438 49.101562 22.898438 C 49.300781 22.898438 49.5 23 49.601562 23.101562 C 50.199219 22.699219 50.898438 22 51.398438 21.101562 C 51.101562 21 51 20.800781 51 20.601562 C 51 20.199219 51.398438 19.800781 51.800781 19.800781 L 51.898438 19.800781 C 52 19.300781 52.101562 18.800781 52.101562 18.199219 L 52.101562 17.601562 C 51.800781 17.5 51.601562 17.199219 51.601562 16.898438 C 51.601562 16.601562 51.800781 16.300781 52.101562 16.199219 L 52.101562 14.199219 C 51.800781 14.101562 51.601562 13.898438 51.601562 13.601562 C 51 13.5 50.398438 13.398438 49.800781 13.398438 C 49.699219 13.699219 49.398438 13.898438 49.101562 13.898438 C 48.800781 13.898438 48.5 13.699219 48.398438 13.398438 C 47.800781 13.398438 47.199219 13.5 46.601562 13.601562 C 46.398438 13.800781 46.199219 14 46 14.101562 "/>
<path style=" stroke:none;fill-rule:nonzero;fill:rgb(62.304688%,51.756287%,0%);fill-opacity:1;" d="M 47.300781 18.300781 C 47.199219 18.300781 47.101562 18.398438 47.101562 18.398438 L 46.898438 18.800781 C 46.898438 18.800781 46.800781 19.101562 47.199219 19.199219 C 47.199219 19.199219 47.300781 19 47.300781 18.800781 C 47.300781 18.800781 47.300781 18.601562 47.5 18.601562 L 47.898438 18.601562 L 47.898438 18.199219 C 47.898438 18.300781 47.398438 18.300781 47.300781 18.300781 "/>
<path style=" stroke:none;fill-rule:nonzero;fill:rgb(62.304688%,51.756287%,0%);fill-opacity:1;" d="M 51 16.800781 C 50.800781 16.601562 50.601562 16.398438 50.300781 16.398438 C 50.101562 16.398438 50 16.5 49.898438 16.601562 C 49.800781 16.699219 49.800781 16.898438 50 17.101562 C 50.199219 17.300781 50.398438 17.398438 50.398438 17.601562 C 50.398438 17.800781 50.300781 17.800781 50.300781 17.800781 L 49 17.800781 L 49.199219 18.199219 L 48.699219 18.199219 L 48.699219 18.699219 L 48.300781 18.398438 L 48 18.699219 L 47.898438 19.601562 C 47.898438 19.601562 47.898438 19.699219 47.800781 19.699219 L 47.601562 19.699219 C 47.601562 19.699219 47.5 19.800781 47.5 20 L 48.101562 20 L 48.199219 19.800781 C 48.300781 19.601562 48.601562 19 48.601562 19 L 48.601562 18.699219 L 48.699219 18.800781 L 48.699219 19 C 48.699219 19 49.199219 18.699219 49.601562 18.800781 C 49.601562 18.800781 50.199219 19 50.300781 19.398438 L 50.300781 19.699219 C 50.300781 19.699219 50.101562 19.699219 50 19.800781 C 50 19.800781 49.898438 19.898438 49.898438 20 L 50.601562 20 L 50.699219 19.699219 L 50.601562 19 C 50.601562 19 50.199219 18.601562 50.199219 18.300781 C 50.199219 18.300781 50.601562 18.300781 50.601562 17.800781 C 50.601562 17.300781 50.199219 17.101562 50.101562 17 C 50 16.898438 50 16.800781 50.101562 16.699219 C 50.199219 16.601562 50.398438 16.699219 50.398438 16.800781 C 50.398438 16.800781 50.398438 17 50.699219 17.199219 L 50.800781 17.101562 C 50.800781 17.101562 50.800781 17.199219 51.101562 17.199219 C 51.101562 17.101562 51.199219 16.898438 51 16.800781 "/>
<path style=" stroke:none;fill-rule:nonzero;fill:rgb(62.304688%,51.756287%,0%);fill-opacity:1;" d="M 49.300781 18.898438 L 49.398438 19.199219 C 49.398438 19.398438 49.199219 19.699219 49.199219 19.699219 L 48.898438 19.699219 C 48.898438 19.699219 48.800781 19.800781 48.800781 20 L 49.5 20 L 49.898438 19.5 C 49.898438 19.5 50 19.398438 50 19.300781 C 50 19.199219 50.101562 19 50.101562 19 C 49.601562 18.800781 49.300781 18.898438 49.300781 18.898438 "/>
<path style=" stroke:none;fill-rule:nonzero;fill:rgb(62.304688%,51.756287%,0%);fill-opacity:1;" d="M 49.300781 17.699219 L 49.101562 17.398438 L 49.101562 17 C 49.101562 16.800781 49 16.800781 49 16.800781 C 49 16.800781 48.699219 16.5 48.601562 16.398438 C 48.5 16.300781 48.398438 16.300781 48.398438 16.300781 L 48.398438 16.199219 C 48.398438 16.101562 48.300781 16.101562 48.300781 16.101562 L 48 16.101562 C 48 16.101562 48 16 47.898438 16 C 47.800781 16.101562 47.5 16.398438 47.300781 16.601562 L 47.199219 16.800781 L 47.300781 17 L 47.5 16.898438 C 47.5 16.898438 47.601562 16.800781 47.699219 16.898438 L 47.398438 17.101562 C 47.398438 17.199219 47.5 17.199219 47.5 17.199219 L 47.699219 17.199219 L 47.800781 17.398438 L 48 17.398438 L 48 17.101562 L 48.101562 17.101562 L 48.101562 16.800781 L 48.199219 16.800781 L 48.199219 17.199219 L 48.101562 17.199219 L 48.101562 17.5 L 47.898438 17.5 L 47.5 17.898438 L 47.800781 17.898438 L 47.601562 18.300781 L 48 18.300781 L 48 18.699219 L 48.398438 18.300781 L 48.800781 18.601562 L 48.800781 18 L 49.300781 18 L 49 17.699219 "/>
<path style=" stroke:none;fill-rule:nonzero;fill:rgb(100%,100%,100%);fill-opacity:1;" d="M 47.800781 16.5 C 47.800781 16.5 47.699219 16.5 47.800781 16.5 C 47.699219 16.601562 47.800781 16.601562 47.800781 16.601562 C 47.800781 16.601562 47.898438 16.601562 47.800781 16.5 C 47.898438 16.5 47.898438 16.5 47.800781 16.5 "/>
<path style=" stroke:none;fill-rule:nonzero;fill:rgb(76.5625%,0%,0.39978%);fill-opacity:1;" d="M 48.199219 15.601562 L 48.199219 15.5 L 48.101562 15.601562 "/>
<path style=" stroke:none;fill-rule:nonzero;fill:rgb(62.304688%,51.756287%,0%);fill-opacity:1;" d="M 48.5 15.601562 C 48.5 15.601562 48.601562 15.601562 48.5 15.601562 C 48.601562 15.601562 48.5 15.699219 48.5 15.601562 C 48.5 15.699219 48.5 15.601562 48.5 15.601562 "/>
<path style=" stroke:none;fill-rule:nonzero;fill:rgb(62.304688%,51.756287%,0%);fill-opacity:1;" d="M 47.800781 15.601562 C 47.800781 15.601562 47.898438 15.601562 47.800781 15.601562 C 47.898438 15.601562 47.800781 15.699219 47.800781 15.601562 C 47.800781 15.699219 47.800781 15.601562 47.800781 15.601562 "/>
<path style=" stroke:none;fill-rule:nonzero;fill:rgb(76.5625%,0%,0.39978%);fill-opacity:1;" d="M 48.800781 15.800781 L 48.800781 15.699219 L 48.898438 15.699219 "/>
<path style=" stroke:none;fill-rule:nonzero;fill:rgb(62.304688%,51.756287%,0%);fill-opacity:1;" d="M 48.199219 15.699219 C 48.101562 15.699219 47.800781 15.699219 47.5 15.800781 L 47.5 15.898438 C 47.800781 15.800781 48.101562 15.699219 48.199219 15.699219 C 48.300781 15.800781 48.601562 15.800781 48.800781 15.898438 L 48.800781 15.800781 C 48.601562 15.699219 48.300781 15.699219 48.199219 15.699219 "/>
<path style=" stroke:none;fill-rule:nonzero;fill:rgb(62.304688%,51.756287%,0%);fill-opacity:1;" d="M 48.898438 15.601562 C 48.699219 15.5 48.300781 15.5 48.199219 15.5 C 48.101562 15.5 47.699219 15.5 47.5 15.601562 L 47.5 15.699219 C 47.699219 15.601562 48.101562 15.601562 48.199219 15.601562 C 48.300781 15.5 48.601562 15.601562 48.898438 15.601562 "/>
<path style=" stroke:none;fill-rule:nonzero;fill:rgb(62.304688%,51.756287%,0%);fill-opacity:1;" d="M 48.5 15.300781 C 48.5 15.199219 48.5 15.199219 48.5 15.300781 C 48.601562 15.199219 48.601562 15.199219 48.5 15.300781 C 48.601562 15.300781 48.601562 15.300781 48.5 15.300781 M 48.199219 15.199219 C 48.101562 15.199219 48.101562 15.199219 48.199219 15.199219 C 48.101562 15.101562 48.199219 15.101562 48.199219 15.101562 Z M 47.800781 15.300781 C 47.699219 15.300781 47.699219 15.300781 47.800781 15.300781 C 47.699219 15.199219 47.699219 15.199219 47.800781 15.300781 C 47.800781 15.199219 47.800781 15.199219 47.800781 15.300781 M 48.898438 15.300781 C 48.898438 15.199219 48.898438 15.199219 48.898438 15.300781 L 48.699219 15.300781 L 48.699219 15.398438 C 48.699219 15.398438 48.5 15.398438 48.5 15.300781 L 48.601562 15.300781 L 48.601562 15.199219 C 48.601562 15.199219 48.601562 15.101562 48.5 15.101562 C 48.5 15.101562 48.398438 15.101562 48.398438 15.199219 L 48.300781 15.199219 L 48.300781 15.300781 L 48.101562 15.300781 L 48.101562 15.199219 C 48.199219 15.199219 48.199219 15.199219 48.199219 15.101562 C 48.199219 15 48.199219 15 48.101562 15 C 48.101562 14.898438 48.101562 14.898438 48 14.898438 C 47.898438 14.898438 47.898438 14.898438 47.898438 15 C 47.800781 15 47.800781 15 47.800781 15.101562 C 47.800781 15.199219 47.800781 15.199219 47.898438 15.199219 C 48 15.199219 47.898438 15.199219 47.898438 15.300781 L 47.699219 15.300781 C 47.699219 15.300781 47.800781 15.300781 47.699219 15.199219 C 47.699219 15.199219 47.699219 15.101562 47.601562 15.199219 C 47.601562 15.199219 47.601562 15.101562 47.5 15.101562 C 47.5 15.101562 47.398438 15.101562 47.398438 15.199219 C 47.398438 15.199219 47.300781 15.199219 47.398438 15.300781 C 47.398438 15.300781 47.398438 15.398438 47.5 15.300781 C 47.398438 15.300781 47.300781 15.398438 47.300781 15.398438 L 47.300781 15.300781 C 47.300781 15.300781 47.300781 15.199219 47.199219 15.199219 L 47.101562 15.199219 C 47.101562 15.101562 46.898438 15.101562 46.898438 15.101562 L 47 15.199219 L 47.101562 15.199219 L 47.101562 15.300781 L 47.199219 15.398438 C 47.199219 15.398438 47.199219 15.5 47.300781 15.398438 C 47.5 15.300781 47.898438 15.300781 48 15.300781 C 48.101562 15.300781 48.398438 15.300781 48.699219 15.398438 L 48.800781 15.398438 L 48.898438 15.300781 C 49 15.398438 49 15.398438 48.898438 15.300781 C 49 15.300781 49 15.300781 49 15.398438 L 49.101562 15.300781 C 49.101562 15.199219 49 15.101562 48.898438 15.300781 "/>
<path style=" stroke:none;fill-rule:nonzero;fill:rgb(76.5625%,0%,0.39978%);fill-opacity:1;" d="M 49.398438 10.199219 L 49 9.898438 L 48.699219 10.199219 L 49 10.601562 Z M 49.398438 10.199219 "/>
<path style=" stroke:none;fill-rule:nonzero;fill:rgb(62.304688%,51.756287%,0%);fill-opacity:1;" d="M 51.398438 10.101562 C 51.566406 10.101562 51.699219 10.234375 51.699219 10.398438 C 51.699219 10.566406 51.566406 10.699219 51.398438 10.699219 C 51.234375 10.699219 51.101562 10.566406 51.101562 10.398438 C 51.101562 10.234375 51.234375 10.101562 51.398438 10.101562 "/>
<path style=" stroke:none;fill-rule:nonzero;fill:rgb(62.304688%,51.756287%,0%);fill-opacity:1;" d="M 46.699219 10.101562 C 46.898438 10.101562 47 10.199219 47 10.398438 C 47 10.601562 46.898438 10.699219 46.699219 10.699219 C 46.5 10.699219 46.398438 10.601562 46.398438 10.398438 C 46.398438 10.300781 46.5 10.101562 46.699219 10.101562 "/>
<path style=" stroke:none;fill-rule:nonzero;fill:rgb(76.5625%,0%,0.39978%);fill-opacity:1;" d="M 53.601562 10.601562 L 53.398438 11.300781 L 53.699219 11 "/>
<path style=" stroke:none;fill-rule:nonzero;fill:rgb(76.5625%,0%,0.39978%);fill-opacity:1;" d="M 44.699219 11.300781 L 44.398438 10.601562 L 44.398438 11 "/>
<path style=" stroke:none;fill-rule:nonzero;fill:rgb(62.304688%,51.756287%,0%);fill-opacity:1;" d="M 49 10.601562 C 48.300781 10.601562 46 10.699219 44.601562 11.300781 L 44.699219 11.800781 C 46.300781 11.199219 48.5 11.101562 49 11.101562 C 49.398438 11.101562 51.601562 11.199219 53.199219 11.800781 L 53.300781 11.300781 C 52 10.800781 49.699219 10.699219 49 10.601562 "/>
<path style=" stroke:none;fill-rule:nonzero;fill:rgb(62.304688%,51.756287%,0%);fill-opacity:1;" d="M 53.699219 10 C 52.199219 9.398438 49.601562 9.300781 49 9.300781 C 48.398438 9.300781 45.800781 9.398438 44.300781 10 L 44.398438 10.5 C 46 9.898438 48.300781 9.800781 49 9.800781 C 49.699219 9.800781 52 9.898438 53.601562 10.5 C 53.800781 10 53.800781 10 53.699219 10 "/>
<path style=" stroke:none;fill-rule:nonzero;fill:rgb(62.304688%,51.756287%,0%);fill-opacity:1;" d="M 51.5 8 C 51.5 7.800781 51.601562 7.699219 51.800781 7.699219 C 52 7.699219 52.101562 7.800781 52.101562 8 C 52.101562 8.199219 52 8.300781 51.800781 8.300781 C 51.601562 8.300781 51.5 8.101562 51.5 8 M 49 7.800781 C 48.800781 7.800781 48.601562 7.601562 48.601562 7.398438 C 48.601562 7.199219 48.800781 7 49 7 C 49.199219 7 49.398438 7.199219 49.398438 7.398438 C 49.398438 7.601562 49.199219 7.800781 49 7.800781 M 46.300781 8.300781 C 46.101562 8.300781 46 8.101562 46 8 C 46 7.800781 46.101562 7.699219 46.300781 7.699219 C 46.5 7.699219 46.601562 7.800781 46.601562 8 C 46.601562 8.101562 46.398438 8.300781 46.300781 8.300781 M 54.199219 8 C 54.101562 7.800781 53.898438 7.699219 53.699219 7.699219 C 53.398438 7.699219 53.101562 8 53.101562 8.300781 C 53.101562 8.5 53.199219 8.601562 53.300781 8.699219 C 53.300781 8.699219 53.5 8.800781 53.5 8.898438 C 53.5 9 53.5 9.101562 53.398438 9.101562 C 53.300781 9.101562 52.300781 8.800781 51.898438 8.699219 C 51.800781 8.699219 51.800781 8.5 52 8.601562 C 52.199219 8.601562 52.5 8.5 52.5 8.300781 C 52.5 8.101562 52.398438 7.800781 52.199219 7.800781 C 52.199219 7.800781 52.199219 7.699219 52.300781 7.699219 C 52.398438 7.398438 52.199219 7.199219 51.898438 7.101562 C 51.601562 7 51.398438 7.199219 51.300781 7.5 L 51.300781 7.601562 C 51.101562 7.601562 50.800781 7.699219 50.800781 7.898438 C 50.800781 8.101562 50.898438 8.300781 51.101562 8.398438 C 51.300781 8.5 51.199219 8.601562 51.101562 8.601562 C 51 8.601562 49.800781 8.5 49.398438 8.5 C 49.199219 8.5 49.101562 8.199219 49.5 8.199219 C 49.898438 8.199219 50.101562 7.898438 50.101562 7.601562 C 50.101562 7.199219 49.800781 7 49.5 7 L 49.5 6.800781 C 49.699219 6.300781 49.398438 6 49 6 C 48.601562 6 48.300781 6.300781 48.300781 6.699219 L 48.300781 6.898438 C 47.898438 6.898438 47.699219 7.199219 47.699219 7.5 C 47.699219 7.898438 48 8.101562 48.300781 8.101562 C 48.699219 8.101562 48.601562 8.398438 48.398438 8.398438 C 48 8.398438 46.800781 8.5 46.699219 8.5 C 46.601562 8.5 46.5 8.398438 46.699219 8.300781 C 46.898438 8.199219 47.101562 8 47 7.800781 C 47 7.601562 46.699219 7.398438 46.5 7.5 L 46.5 7.398438 C 46.398438 7.101562 46.199219 7 45.898438 7 C 45.601562 7.101562 45.5 7.300781 45.5 7.601562 C 45.5 7.601562 45.5 7.699219 45.601562 7.699219 C 45.398438 7.699219 45.199219 8 45.300781 8.199219 C 45.300781 8.398438 45.601562 8.601562 45.800781 8.5 C 46 8.5 46 8.601562 45.898438 8.601562 C 45.398438 8.699219 44.5 9 44.398438 9 C 44.300781 9 44.300781 8.898438 44.300781 8.800781 C 44.300781 8.699219 44.5 8.601562 44.5 8.601562 C 44.601562 8.5 44.699219 8.300781 44.699219 8.199219 C 44.699219 7.898438 44.398438 7.601562 44.101562 7.601562 C 43.898438 7.601562 43.699219 7.699219 43.601562 7.898438 C 43.300781 6.898438 42.300781 7.398438 42.300781 7.398438 L 42.800781 8.300781 C 42.898438 8.199219 43.101562 8.199219 43.199219 8.300781 C 43.300781 8.398438 43.300781 8.601562 43.199219 8.800781 L 43.101562 8.898438 L 43.5 9.601562 C 43.5 9.601562 43.601562 9.898438 44.199219 9.699219 C 46 9.199219 48.398438 9.101562 49 9.101562 C 49.601562 9.101562 52 9.199219 53.5 9.699219 C 54.101562 9.898438 54.199219 9.601562 54.199219 9.601562 L 54.601562 8.898438 L 54.5 8.800781 C 54.398438 8.699219 54.398438 8.5 54.5 8.300781 C 54.601562 8.199219 54.800781 8.199219 54.898438 8.300781 L 55.398438 7.398438 C 55.5 7.5 54.5 7 54.199219 8 "/>
<path style=" stroke:none;fill-rule:nonzero;fill:rgb(100%,100%,100%);fill-opacity:1;" d="M 42.398438 16.898438 C 42.398438 16.398438 42.800781 16.101562 43.199219 16.101562 L 43.800781 16.101562 L 43.800781 15.800781 L 43.199219 15.800781 C 42.601562 15.800781 42 16.300781 42 17 C 42 17.699219 42.5 18.199219 43.199219 18.199219 L 43.800781 18.199219 L 43.800781 17.898438 L 43.199219 17.898438 C 42.699219 17.699219 42.398438 17.300781 42.398438 16.898438 "/>
<path style=" stroke:none;fill-rule:nonzero;fill:rgb(100%,100%,100%);fill-opacity:1;" d="M 55.699219 17.199219 L 54.5 17.199219 L 54.5 16.601562 C 54.5 16.101562 54.800781 16 55.101562 16 C 55.398438 16 55.699219 16.300781 55.699219 16.601562 Z M 55.101562 15.601562 C 54.699219 15.601562 54.199219 16 54.199219 16.601562 L 54.199219 18 L 54.5 18 L 54.5 17.5 L 55.699219 17.5 L 55.699219 18 L 56 18 L 56 16.601562 C 56 16 55.5 15.601562 55.101562 15.601562 "/>
<path style=" stroke:none;fill-rule:nonzero;fill:rgb(100%,100%,100%);fill-opacity:1;" d="M 49 27.601562 C 48.5 27.601562 48.199219 27.199219 48.199219 26.800781 C 48.199219 26.300781 48.601562 26 49 26 C 49.5 26 49.800781 26.398438 49.800781 26.800781 C 49.898438 27.199219 49.5 27.601562 49 27.601562 M 49 25.601562 C 48.398438 25.601562 47.800781 26.101562 47.800781 26.800781 C 47.800781 27.5 48.300781 28 49 28 C 49.601562 28 50.199219 27.5 50.199219 26.800781 C 50.199219 26.101562 49.699219 25.601562 49 25.601562 "/>
<path style=" stroke:none;fill-rule:nonzero;fill:rgb(100%,100%,100%);fill-opacity:1;" d="M 49 23.398438 C 49.199219 23.398438 49.398438 23.601562 49.398438 23.800781 C 49.398438 24 49.199219 24.199219 49 24.199219 C 48.800781 24.199219 48.601562 24 48.601562 23.800781 C 48.601562 23.601562 48.800781 23.398438 49 23.398438 "/>
<path style=" stroke:none;fill-rule:nonzero;fill:rgb(100%,100%,100%);fill-opacity:1;" d="M 52.300781 16.398438 C 52.5 16.398438 52.699219 16.601562 52.699219 16.800781 C 52.699219 17 52.5 17.199219 52.300781 17.199219 C 52.101562 17.199219 51.898438 17 51.898438 16.800781 C 51.898438 16.601562 52.101562 16.398438 52.300781 16.398438 "/>
<path style=" stroke:none;fill-rule:nonzero;fill:rgb(100%,100%,100%);fill-opacity:1;" d="M 45.699219 16.398438 C 45.898438 16.398438 46.101562 16.601562 46.101562 16.800781 C 46.101562 17 45.898438 17.199219 45.699219 17.199219 C 45.5 17.199219 45.300781 17 45.300781 16.800781 C 45.300781 16.601562 45.5 16.398438 45.699219 16.398438 "/>
<path style=" stroke:none;fill-rule:nonzero;fill:rgb(100%,100%,100%);fill-opacity:1;" d="M 46.300781 20.101562 C 46.5 20.101562 46.699219 20.300781 46.699219 20.5 C 46.699219 20.699219 46.5 20.898438 46.300781 20.898438 C 46.101562 20.898438 45.898438 20.699219 45.898438 20.5 C 45.800781 20.300781 46 20.101562 46.300781 20.101562 "/>
<path style=" stroke:none;fill-rule:nonzero;fill:rgb(100%,100%,100%);fill-opacity:1;" d="M 52.300781 12.898438 C 52.5 12.898438 52.699219 13.101562 52.699219 13.300781 C 52.699219 13.5 52.5 13.699219 52.300781 13.699219 C 52.101562 13.699219 51.898438 13.5 51.898438 13.300781 C 51.898438 13.101562 52.101562 12.898438 52.300781 12.898438 "/>
<path style=" stroke:none;fill-rule:nonzero;fill:rgb(100%,100%,100%);fill-opacity:1;" d="M 45.699219 12.898438 C 45.898438 12.898438 46.101562 13.101562 46.101562 13.300781 C 46.101562 13.5 45.898438 13.699219 45.699219 13.699219 C 45.5 13.699219 45.300781 13.5 45.300781 13.300781 C 45.300781 13.101562 45.5 12.898438 45.699219 12.898438 "/>
<path style=" stroke:none;fill-rule:nonzero;fill:rgb(100%,100%,100%);fill-opacity:1;" d="M 49 12.601562 C 49.199219 12.601562 49.398438 12.800781 49.398438 13 C 49.398438 13.199219 49.199219 13.398438 49 13.398438 C 48.800781 13.398438 48.601562 13.199219 48.601562 13 C 48.601562 12.800781 48.800781 12.601562 49 12.601562 "/>
<path style=" stroke:none;fill-rule:nonzero;fill:rgb(100%,100%,100%);fill-opacity:1;" d="M 51.800781 20.101562 C 52 20.101562 52.199219 20.300781 52.199219 20.5 C 52.199219 20.699219 52 20.898438 51.800781 20.898438 C 51.601562 20.898438 51.398438 20.699219 51.398438 20.5 C 51.300781 20.300781 51.5 20.101562 51.800781 20.101562 "/>
</g>
</svg>
