<?xml version="1.0" encoding="UTF-8"?>
<svg xmlns="http://www.w3.org/2000/svg" xmlns:xlink="http://www.w3.org/1999/xlink" width="40pt" height="45pt" viewBox="0 0 40 45" version="1.1">
<g id="surface1">
<path style=" stroke:none;fill-rule:nonzero;fill:rgb(22.410583%,62.304688%,84.764099%);fill-opacity:1;" d="M 20.28125 0.101562 C 18.582031 0.101562 17.582031 0.199219 17.480469 0.199219 C 16.980469 0.199219 15.980469 0.199219 14.480469 0.101562 L 13.882812 1.101562 L 8.882812 6.101562 L 9.28125 0.101562 C 7.882812 0.101562 7.082031 0.199219 6.78125 0.199219 C 6.28125 0.199219 5.382812 0.199219 4.082031 0.101562 L 4.082031 1.101562 C 4.082031 1.898438 3.980469 3.398438 3.882812 5.5 C 3.78125 8.5 3.582031 10.800781 3.480469 12.601562 C 3.382812 13.601562 3.382812 15.101562 3.179688 16.601562 C 4.679688 16.5 5.480469 16.5 5.882812 16.5 L 8.480469 16.601562 L 8.582031 11.699219 "/>
<path style=" stroke:none;fill-rule:nonzero;fill:rgb(22.410583%,62.304688%,84.764099%);fill-opacity:1;" d="M 14.582031 7.5 C 14.582031 7.5 14.980469 8.101562 15.480469 8.898438 C 18.480469 13.699219 21.382812 16.101562 22.480469 16.398438 C 19.980469 16.398438 16.382812 16.5 14.78125 15.398438 C 13.179688 14.398438 12.28125 12.101562 11.480469 10.800781 "/>
<path style=" stroke:none;fill-rule:nonzero;fill:rgb(100%,65.429688%,10.205078%);fill-opacity:1;" d="M 36.179688 0.101562 L 33.382812 0.101562 C 33.28125 0.101562 33.28125 0.699219 33.28125 2 C 33.179688 3.300781 33.179688 4.800781 32.980469 6.300781 C 32.882812 8.101562 32.78125 9.300781 32.679688 9.800781 C 32.582031 10.300781 32.480469 10.699219 32.382812 11 C 32.28125 11.300781 32.082031 11.601562 31.882812 11.800781 C 31.78125 12 31.582031 12.199219 31.382812 12.300781 C 31.179688 12.5 30.882812 12.601562 30.679688 12.699219 C 30.382812 12.800781 29.980469 12.898438 29.679688 12.898438 C 29.179688 12.898438 28.882812 12.800781 28.382812 12.699219 C 27.980469 12.5 27.679688 12.300781 27.382812 12.101562 C 27.179688 11.898438 27.082031 11.699219 27.082031 11.5 C 28.082031 15.898438 31.382812 16.5 33.382812 16.101562 C 33.980469 15.898438 34.480469 15.699219 34.980469 15.5 C 35.78125 15.101562 36.382812 14.699219 36.679688 14.101562 C 36.980469 13.5 37.382812 13 37.480469 12.300781 C 37.679688 11.601562 37.78125 10.5 37.78125 8.800781 L 37.78125 8.398438 L 38.382812 0 C 38.480469 0.101562 36.179688 0.101562 36.179688 0.101562 "/>
<path style=" stroke:none;fill-rule:nonzero;fill:rgb(100%,65.429688%,10.205078%);fill-opacity:1;" d="M 26.980469 13 C 26.882812 11.398438 26.980469 9.5 26.980469 9.5 C 26.980469 9.199219 26.980469 8.601562 27.082031 7.800781 C 27.179688 7 27.179688 6.101562 27.28125 5.199219 L 27.679688 0.199219 C 26.679688 0.199219 25.78125 0.300781 25.179688 0.300781 C 24.679688 0.300781 23.78125 0.300781 22.582031 0.199219 L 22.382812 4.800781 C 22.28125 5.800781 22.28125 6.5 22.28125 7 L 22.082031 8.898438 C 21.980469 9.601562 21.980469 10.101562 21.980469 10.601562 C 21.980469 11 21.882812 11.300781 21.882812 11.398438 C 21.882812 12 21.980469 12.5 22.082031 12.898438 C 22.179688 13.398438 22.382812 13.699219 22.582031 14.101562 C 22.78125 14.398438 23.082031 14.699219 23.480469 15 C 23.980469 15.300781 24.480469 15.601562 24.980469 15.800781 C 25.582031 16.101562 26.28125 16.300781 27.082031 16.398438 C 27.78125 16.5 28.480469 16.601562 29.179688 16.601562 C 28.179688 16.199219 26.980469 14.699219 26.980469 13 "/>
<path style=" stroke:none;fill-rule:nonzero;fill:rgb(62.304688%,51.756287%,0%);fill-opacity:1;" d="M 13.199219 28.300781 C 13.199219 28.300781 13.101562 28.300781 13.199219 28.300781 C 13.101562 27.898438 12.800781 27.601562 12.300781 27.601562 C 12 27.601562 11.699219 27.800781 11.601562 28.101562 C 11 28 10.300781 27.898438 9.800781 27.898438 C 9.699219 27.601562 9.398438 27.300781 9 27.300781 C 8.601562 27.300781 8.300781 27.5 8.199219 27.898438 C 7.601562 27.898438 7 28 6.398438 28.101562 C 6.300781 27.800781 6 27.601562 5.699219 27.601562 C 5.300781 27.601562 4.898438 27.898438 4.898438 28.300781 L 4.800781 28.300781 C 2.898438 28.800781 1.101562 29.300781 0 29.601562 C 0.800781 36.699219 5.601562 42.300781 9 45 C 12.300781 42.199219 17.101562 36.699219 18 29.601562 C 16.898438 29.300781 15.101562 28.800781 13.199219 28.300781 "/>
<path style=" stroke:none;fill-rule:nonzero;fill:rgb(3.100586%,6.298828%,33.300781%);fill-opacity:1;" d="M 17 29.800781 C 15.898438 29.5 14.5 29.101562 13.101562 28.699219 L 13 28.699219 C 12.898438 28.898438 12.800781 29 12.601562 29 L 12.601562 31 C 12.898438 31.101562 13.101562 31.398438 13.101562 31.699219 C 13.101562 32 12.898438 32.300781 12.601562 32.398438 L 12.601562 33 C 12.601562 33.699219 12.5 34.300781 12.300781 34.800781 C 12.398438 34.898438 12.5 35.101562 12.5 35.398438 C 12.5 35.800781 12.199219 36.199219 11.699219 36.199219 C 11.101562 37.300781 10.300781 38.101562 9.699219 38.5 L 9.699219 38.699219 C 9.699219 39.101562 9.300781 39.5 8.898438 39.5 L 8.898438 44.199219 C 11 42.398438 16.300781 37.199219 17.300781 29.800781 C 17.199219 29.898438 17 29.800781 17 29.800781 "/>
<path style=" stroke:none;fill-rule:nonzero;fill:rgb(76.5625%,0%,0.39978%);fill-opacity:1;" d="M 8.199219 38.800781 L 8.199219 38.601562 C 7.601562 38.199219 6.800781 37.398438 6.199219 36.300781 C 5.800781 36.300781 5.398438 35.898438 5.398438 35.5 C 5.398438 35.300781 5.5 35.101562 5.601562 34.898438 C 5.398438 34.300781 5.300781 33.699219 5.300781 33.101562 L 5.300781 32.5 C 5 32.398438 4.800781 32.101562 4.800781 31.800781 C 4.800781 31.5 5 31.199219 5.300781 31.101562 L 5.300781 29.101562 C 5.101562 29 5 28.898438 4.898438 28.800781 L 4.800781 28.800781 C 3.300781 29.199219 2 29.601562 0.898438 29.898438 C 0.898438 29.898438 0.699219 30 0.398438 30 C 1.398438 37.398438 6.699219 42.601562 8.800781 44.398438 L 8.800781 39.699219 C 8.601562 39.601562 8.199219 39.300781 8.199219 38.800781 "/>
<path style=" stroke:none;fill-rule:nonzero;fill:rgb(100%,100%,100%);fill-opacity:1;" d="M 6 29.101562 L 6 31.101562 C 6.300781 31.199219 6.5 31.5 6.5 31.800781 C 6.5 32.101562 6.300781 32.398438 6 32.5 L 6 33.101562 C 6 33.699219 6.101562 34.199219 6.199219 34.699219 L 6.300781 34.699219 C 6.699219 34.699219 7.101562 35.101562 7.101562 35.5 C 7.101562 35.800781 7 36 6.800781 36.101562 C 7.300781 37 8 37.699219 8.601562 38.101562 C 8.699219 38 8.898438 37.898438 9.101562 37.898438 C 9.300781 37.898438 9.5 38 9.601562 38.101562 C 10.199219 37.699219 10.898438 37 11.398438 36.101562 C 11.101562 36 11 35.800781 11 35.601562 C 11 35.199219 11.398438 34.800781 11.800781 34.800781 L 11.898438 34.800781 C 12 34.300781 12.101562 33.800781 12.101562 33.199219 L 12.101562 32.601562 C 11.800781 32.5 11.601562 32.199219 11.601562 31.898438 C 11.601562 31.601562 11.800781 31.300781 12.101562 31.199219 L 12.101562 29.199219 C 11.800781 29.101562 11.601562 28.898438 11.601562 28.601562 C 11 28.5 10.398438 28.398438 9.800781 28.398438 C 9.699219 28.699219 9.398438 28.898438 9.101562 28.898438 C 8.800781 28.898438 8.5 28.699219 8.398438 28.398438 C 7.800781 28.398438 7.199219 28.5 6.601562 28.601562 C 6.398438 28.800781 6.199219 29 6 29.101562 "/>
<path style=" stroke:none;fill-rule:nonzero;fill:rgb(62.304688%,51.756287%,0%);fill-opacity:1;" d="M 7.300781 33.300781 C 7.199219 33.300781 7.101562 33.398438 7.101562 33.398438 L 6.898438 33.800781 C 6.898438 33.800781 6.800781 34.101562 7.199219 34.199219 C 7.199219 34.199219 7.300781 34 7.300781 33.800781 C 7.300781 33.800781 7.300781 33.601562 7.5 33.601562 L 7.898438 33.601562 L 7.898438 33.199219 C 7.898438 33.300781 7.398438 33.300781 7.300781 33.300781 "/>
<path style=" stroke:none;fill-rule:nonzero;fill:rgb(62.304688%,51.756287%,0%);fill-opacity:1;" d="M 11 31.800781 C 10.800781 31.601562 10.601562 31.398438 10.300781 31.398438 C 10.101562 31.398438 10 31.5 9.898438 31.601562 C 9.800781 31.699219 9.800781 31.898438 10 32.101562 C 10.199219 32.300781 10.398438 32.398438 10.398438 32.601562 C 10.398438 32.800781 10.300781 32.800781 10.300781 32.800781 L 9 32.800781 L 9.199219 33.199219 L 8.699219 33.199219 L 8.699219 33.699219 L 8.300781 33.398438 L 8 33.699219 L 7.898438 34.601562 C 7.898438 34.601562 7.898438 34.699219 7.800781 34.699219 L 7.601562 34.699219 C 7.601562 34.699219 7.5 34.800781 7.5 35 L 8.101562 35 L 8.199219 34.800781 C 8.300781 34.601562 8.601562 34 8.601562 34 L 8.601562 33.699219 L 8.699219 33.800781 L 8.699219 34 C 8.699219 34 9.199219 33.699219 9.601562 33.800781 C 9.601562 33.800781 10.199219 34 10.300781 34.398438 L 10.300781 34.699219 C 10.300781 34.699219 10.101562 34.699219 10 34.800781 C 10 34.800781 9.898438 34.898438 9.898438 35 L 10.601562 35 L 10.699219 34.699219 L 10.601562 34 C 10.601562 34 10.199219 33.601562 10.199219 33.300781 C 10.199219 33.300781 10.601562 33.300781 10.601562 32.800781 C 10.601562 32.300781 10.199219 32.101562 10.101562 32 C 10 31.898438 10 31.800781 10.101562 31.699219 C 10.199219 31.601562 10.398438 31.699219 10.398438 31.800781 C 10.398438 31.800781 10.398438 32 10.699219 32.199219 L 10.800781 32.101562 C 10.800781 32.101562 10.800781 32.199219 11.101562 32.199219 C 11.101562 32.101562 11.199219 31.898438 11 31.800781 "/>
<path style=" stroke:none;fill-rule:nonzero;fill:rgb(62.304688%,51.756287%,0%);fill-opacity:1;" d="M 9.300781 33.898438 L 9.398438 34.199219 C 9.398438 34.398438 9.199219 34.699219 9.199219 34.699219 L 8.898438 34.699219 C 8.898438 34.699219 8.800781 34.800781 8.800781 35 L 9.5 35 L 9.898438 34.5 C 9.898438 34.5 10 34.398438 10 34.300781 C 10 34.199219 10.101562 34 10.101562 34 C 9.601562 33.800781 9.300781 33.898438 9.300781 33.898438 "/>
<path style=" stroke:none;fill-rule:nonzero;fill:rgb(62.304688%,51.756287%,0%);fill-opacity:1;" d="M 9.300781 32.699219 L 9.101562 32.398438 L 9.101562 32 C 9.101562 31.800781 9 31.800781 9 31.800781 C 9 31.800781 8.699219 31.5 8.601562 31.398438 C 8.5 31.300781 8.398438 31.300781 8.398438 31.300781 L 8.398438 31.199219 C 8.398438 31.101562 8.300781 31.101562 8.300781 31.101562 L 8 31.101562 C 8 31.101562 8 31 7.898438 31 C 7.800781 31.101562 7.5 31.398438 7.300781 31.601562 L 7.199219 31.800781 L 7.300781 32 L 7.5 31.898438 C 7.5 31.898438 7.601562 31.800781 7.699219 31.898438 L 7.398438 32.101562 C 7.398438 32.199219 7.5 32.199219 7.5 32.199219 L 7.699219 32.199219 L 7.800781 32.398438 L 8 32.398438 L 8 32.101562 L 8.101562 32.101562 L 8.101562 31.800781 L 8.199219 31.800781 L 8.199219 32.199219 L 8.101562 32.199219 L 8.101562 32.5 L 7.898438 32.5 L 7.5 32.898438 L 7.800781 32.898438 L 7.601562 33.300781 L 8 33.300781 L 8 33.699219 L 8.398438 33.300781 L 8.800781 33.601562 L 8.800781 33 L 9.300781 33 L 9 32.699219 "/>
<path style=" stroke:none;fill-rule:nonzero;fill:rgb(100%,100%,100%);fill-opacity:1;" d="M 7.800781 31.5 C 7.800781 31.5 7.699219 31.5 7.800781 31.5 C 7.699219 31.601562 7.800781 31.601562 7.800781 31.601562 C 7.800781 31.601562 7.898438 31.601562 7.800781 31.5 C 7.898438 31.5 7.898438 31.5 7.800781 31.5 "/>
<path style=" stroke:none;fill-rule:nonzero;fill:rgb(76.5625%,0%,0.39978%);fill-opacity:1;" d="M 8.199219 30.601562 L 8.199219 30.5 L 8.101562 30.601562 "/>
<path style=" stroke:none;fill-rule:nonzero;fill:rgb(62.304688%,51.756287%,0%);fill-opacity:1;" d="M 8.5 30.601562 C 8.5 30.601562 8.601562 30.601562 8.5 30.601562 C 8.601562 30.601562 8.5 30.699219 8.5 30.601562 C 8.5 30.699219 8.5 30.601562 8.5 30.601562 "/>
<path style=" stroke:none;fill-rule:nonzero;fill:rgb(62.304688%,51.756287%,0%);fill-opacity:1;" d="M 7.800781 30.601562 C 7.800781 30.601562 7.898438 30.601562 7.800781 30.601562 C 7.898438 30.601562 7.800781 30.699219 7.800781 30.601562 C 7.800781 30.699219 7.800781 30.601562 7.800781 30.601562 "/>
<path style=" stroke:none;fill-rule:nonzero;fill:rgb(76.5625%,0%,0.39978%);fill-opacity:1;" d="M 8.800781 30.800781 L 8.800781 30.699219 L 8.898438 30.699219 "/>
<path style=" stroke:none;fill-rule:nonzero;fill:rgb(62.304688%,51.756287%,0%);fill-opacity:1;" d="M 8.199219 30.699219 C 8.101562 30.699219 7.800781 30.699219 7.5 30.800781 L 7.5 30.898438 C 7.800781 30.800781 8.101562 30.699219 8.199219 30.699219 C 8.300781 30.800781 8.601562 30.800781 8.800781 30.898438 L 8.800781 30.800781 C 8.601562 30.699219 8.300781 30.699219 8.199219 30.699219 "/>
<path style=" stroke:none;fill-rule:nonzero;fill:rgb(62.304688%,51.756287%,0%);fill-opacity:1;" d="M 8.898438 30.601562 C 8.699219 30.5 8.300781 30.5 8.199219 30.5 C 8.101562 30.5 7.699219 30.5 7.5 30.601562 L 7.5 30.699219 C 7.699219 30.601562 8.101562 30.601562 8.199219 30.601562 C 8.300781 30.5 8.601562 30.601562 8.898438 30.601562 "/>
<path style=" stroke:none;fill-rule:nonzero;fill:rgb(62.304688%,51.756287%,0%);fill-opacity:1;" d="M 8.5 30.300781 C 8.5 30.199219 8.5 30.199219 8.5 30.300781 C 8.601562 30.199219 8.601562 30.199219 8.5 30.300781 C 8.601562 30.300781 8.601562 30.300781 8.5 30.300781 M 8.199219 30.199219 C 8.101562 30.199219 8.101562 30.199219 8.199219 30.199219 C 8.101562 30.101562 8.199219 30.101562 8.199219 30.101562 Z M 7.800781 30.300781 C 7.699219 30.300781 7.699219 30.300781 7.800781 30.300781 C 7.699219 30.199219 7.699219 30.199219 7.800781 30.300781 C 7.800781 30.199219 7.800781 30.199219 7.800781 30.300781 M 8.898438 30.300781 C 8.898438 30.199219 8.898438 30.199219 8.898438 30.300781 L 8.699219 30.300781 L 8.699219 30.398438 C 8.699219 30.398438 8.5 30.398438 8.5 30.300781 L 8.601562 30.300781 L 8.601562 30.199219 C 8.601562 30.199219 8.601562 30.101562 8.5 30.101562 C 8.5 30.101562 8.398438 30.101562 8.398438 30.199219 L 8.300781 30.199219 L 8.300781 30.300781 L 8.101562 30.300781 L 8.101562 30.199219 C 8.199219 30.199219 8.199219 30.199219 8.199219 30.101562 C 8.199219 30 8.199219 30 8.101562 30 C 8.101562 29.898438 8.101562 29.898438 8 29.898438 C 7.898438 29.898438 7.898438 29.898438 7.898438 30 C 7.800781 30 7.800781 30 7.800781 30.101562 C 7.800781 30.199219 7.800781 30.199219 7.898438 30.199219 C 8 30.199219 7.898438 30.199219 7.898438 30.300781 L 7.699219 30.300781 C 7.699219 30.300781 7.800781 30.300781 7.699219 30.199219 C 7.699219 30.199219 7.699219 30.101562 7.601562 30.199219 C 7.601562 30.199219 7.601562 30.101562 7.5 30.101562 C 7.5 30.101562 7.398438 30.101562 7.398438 30.199219 C 7.398438 30.199219 7.300781 30.199219 7.398438 30.300781 C 7.398438 30.300781 7.398438 30.398438 7.5 30.300781 C 7.398438 30.300781 7.300781 30.398438 7.300781 30.398438 L 7.300781 30.300781 C 7.300781 30.300781 7.300781 30.199219 7.199219 30.199219 L 7.101562 30.199219 C 7.101562 30.101562 6.898438 30.101562 6.898438 30.101562 L 7 30.199219 L 7.101562 30.199219 L 7.101562 30.300781 L 7.199219 30.398438 C 7.199219 30.398438 7.199219 30.5 7.300781 30.398438 C 7.5 30.300781 7.898438 30.300781 8 30.300781 C 8.101562 30.300781 8.398438 30.300781 8.699219 30.398438 L 8.800781 30.398438 L 8.898438 30.300781 C 9 30.398438 9 30.398438 8.898438 30.300781 C 9 30.300781 9 30.300781 9 30.398438 L 9.101562 30.300781 C 9.101562 30.199219 9 30.101562 8.898438 30.300781 "/>
<path style=" stroke:none;fill-rule:nonzero;fill:rgb(76.5625%,0%,0.39978%);fill-opacity:1;" d="M 9.398438 25.199219 L 9 24.898438 L 8.699219 25.199219 L 9 25.601562 Z M 9.398438 25.199219 "/>
<path style=" stroke:none;fill-rule:nonzero;fill:rgb(62.304688%,51.756287%,0%);fill-opacity:1;" d="M 11.398438 25.101562 C 11.566406 25.101562 11.699219 25.234375 11.699219 25.398438 C 11.699219 25.566406 11.566406 25.699219 11.398438 25.699219 C 11.234375 25.699219 11.101562 25.566406 11.101562 25.398438 C 11.101562 25.234375 11.234375 25.101562 11.398438 25.101562 "/>
<path style=" stroke:none;fill-rule:nonzero;fill:rgb(62.304688%,51.756287%,0%);fill-opacity:1;" d="M 6.699219 25.101562 C 6.898438 25.101562 7 25.199219 7 25.398438 C 7 25.601562 6.898438 25.699219 6.699219 25.699219 C 6.5 25.699219 6.398438 25.601562 6.398438 25.398438 C 6.398438 25.300781 6.5 25.101562 6.699219 25.101562 "/>
<path style=" stroke:none;fill-rule:nonzero;fill:rgb(76.5625%,0%,0.39978%);fill-opacity:1;" d="M 13.601562 25.601562 L 13.398438 26.300781 L 13.699219 26 "/>
<path style=" stroke:none;fill-rule:nonzero;fill:rgb(76.5625%,0%,0.39978%);fill-opacity:1;" d="M 4.699219 26.300781 L 4.398438 25.601562 L 4.398438 26 "/>
<path style=" stroke:none;fill-rule:nonzero;fill:rgb(62.304688%,51.756287%,0%);fill-opacity:1;" d="M 9 25.601562 C 8.300781 25.601562 6 25.699219 4.601562 26.300781 L 4.699219 26.800781 C 6.300781 26.199219 8.5 26.101562 9 26.101562 C 9.398438 26.101562 11.601562 26.199219 13.199219 26.800781 L 13.300781 26.300781 C 12 25.800781 9.699219 25.699219 9 25.601562 "/>
<path style=" stroke:none;fill-rule:nonzero;fill:rgb(62.304688%,51.756287%,0%);fill-opacity:1;" d="M 13.699219 25 C 12.199219 24.398438 9.601562 24.300781 9 24.300781 C 8.398438 24.300781 5.800781 24.398438 4.300781 25 L 4.398438 25.5 C 6 24.898438 8.300781 24.800781 9 24.800781 C 9.699219 24.800781 12 24.898438 13.601562 25.5 C 13.800781 25 13.800781 25 13.699219 25 "/>
<path style=" stroke:none;fill-rule:nonzero;fill:rgb(62.304688%,51.756287%,0%);fill-opacity:1;" d="M 11.5 23 C 11.5 22.800781 11.601562 22.699219 11.800781 22.699219 C 12 22.699219 12.101562 22.800781 12.101562 23 C 12.101562 23.199219 12 23.300781 11.800781 23.300781 C 11.601562 23.300781 11.5 23.101562 11.5 23 M 9 22.800781 C 8.800781 22.800781 8.601562 22.601562 8.601562 22.398438 C 8.601562 22.199219 8.800781 22 9 22 C 9.199219 22 9.398438 22.199219 9.398438 22.398438 C 9.398438 22.601562 9.199219 22.800781 9 22.800781 M 6.300781 23.300781 C 6.101562 23.300781 6 23.101562 6 23 C 6 22.800781 6.101562 22.699219 6.300781 22.699219 C 6.5 22.699219 6.601562 22.800781 6.601562 23 C 6.601562 23.101562 6.398438 23.300781 6.300781 23.300781 M 14.199219 23 C 14.101562 22.800781 13.898438 22.699219 13.699219 22.699219 C 13.398438 22.699219 13.101562 23 13.101562 23.300781 C 13.101562 23.5 13.199219 23.601562 13.300781 23.699219 C 13.300781 23.699219 13.5 23.800781 13.5 23.898438 C 13.5 24 13.5 24.101562 13.398438 24.101562 C 13.300781 24.101562 12.300781 23.800781 11.898438 23.699219 C 11.800781 23.699219 11.800781 23.5 12 23.601562 C 12.199219 23.601562 12.5 23.5 12.5 23.300781 C 12.5 23.101562 12.398438 22.800781 12.199219 22.800781 C 12.199219 22.800781 12.199219 22.699219 12.300781 22.699219 C 12.398438 22.398438 12.199219 22.199219 11.898438 22.101562 C 11.601562 22 11.398438 22.199219 11.300781 22.5 L 11.300781 22.601562 C 11.101562 22.601562 10.800781 22.699219 10.800781 22.898438 C 10.800781 23.101562 10.898438 23.300781 11.101562 23.398438 C 11.300781 23.5 11.199219 23.601562 11.101562 23.601562 C 11 23.601562 9.800781 23.5 9.398438 23.5 C 9.199219 23.5 9.101562 23.199219 9.5 23.199219 C 9.898438 23.199219 10.101562 22.898438 10.101562 22.601562 C 10.101562 22.199219 9.800781 22 9.5 22 L 9.5 21.800781 C 9.699219 21.300781 9.398438 21 9 21 C 8.601562 21 8.300781 21.300781 8.300781 21.699219 L 8.300781 21.898438 C 7.898438 21.898438 7.699219 22.199219 7.699219 22.5 C 7.699219 22.898438 8 23.101562 8.300781 23.101562 C 8.699219 23.101562 8.601562 23.398438 8.398438 23.398438 C 8 23.398438 6.800781 23.5 6.699219 23.5 C 6.601562 23.5 6.5 23.398438 6.699219 23.300781 C 6.898438 23.199219 7.101562 23 7 22.800781 C 7 22.601562 6.699219 22.398438 6.5 22.5 L 6.5 22.398438 C 6.398438 22.101562 6.199219 22 5.898438 22 C 5.601562 22.101562 5.5 22.300781 5.5 22.601562 C 5.5 22.601562 5.5 22.699219 5.601562 22.699219 C 5.398438 22.699219 5.199219 23 5.300781 23.199219 C 5.300781 23.398438 5.601562 23.601562 5.800781 23.5 C 6 23.5 6 23.601562 5.898438 23.601562 C 5.398438 23.699219 4.5 24 4.398438 24 C 4.300781 24 4.300781 23.898438 4.300781 23.800781 C 4.300781 23.699219 4.5 23.601562 4.5 23.601562 C 4.601562 23.5 4.699219 23.300781 4.699219 23.199219 C 4.699219 22.898438 4.398438 22.601562 4.101562 22.601562 C 3.898438 22.601562 3.699219 22.699219 3.601562 22.898438 C 3.300781 21.898438 2.300781 22.398438 2.300781 22.398438 L 2.800781 23.300781 C 2.898438 23.199219 3.101562 23.199219 3.199219 23.300781 C 3.300781 23.398438 3.300781 23.601562 3.199219 23.800781 L 3.101562 23.898438 L 3.5 24.601562 C 3.5 24.601562 3.601562 24.898438 4.199219 24.699219 C 6 24.199219 8.398438 24.101562 9 24.101562 C 9.601562 24.101562 12 24.199219 13.5 24.699219 C 14.101562 24.898438 14.199219 24.601562 14.199219 24.601562 L 14.601562 23.898438 L 14.5 23.800781 C 14.398438 23.699219 14.398438 23.5 14.5 23.300781 C 14.601562 23.199219 14.800781 23.199219 14.898438 23.300781 L 15.398438 22.398438 C 15.5 22.5 14.5 22 14.199219 23 "/>
<path style=" stroke:none;fill-rule:nonzero;fill:rgb(100%,100%,100%);fill-opacity:1;" d="M 2.398438 31.898438 C 2.398438 31.398438 2.800781 31.101562 3.199219 31.101562 L 3.800781 31.101562 L 3.800781 30.800781 L 3.199219 30.800781 C 2.601562 30.800781 2 31.300781 2 32 C 2 32.699219 2.5 33.199219 3.199219 33.199219 L 3.800781 33.199219 L 3.800781 32.898438 L 3.199219 32.898438 C 2.699219 32.699219 2.398438 32.300781 2.398438 31.898438 "/>
<path style=" stroke:none;fill-rule:nonzero;fill:rgb(100%,100%,100%);fill-opacity:1;" d="M 15.699219 32.199219 L 14.5 32.199219 L 14.5 31.601562 C 14.5 31.101562 14.800781 31 15.101562 31 C 15.398438 31 15.699219 31.300781 15.699219 31.601562 L 15.699219 32.199219 M 15.101562 30.601562 C 14.699219 30.601562 14.199219 31 14.199219 31.601562 L 14.199219 33 L 14.5 33 L 14.5 32.5 L 15.699219 32.5 L 15.699219 33 L 16 33 L 16 31.601562 C 16 31 15.5 30.601562 15.101562 30.601562 "/>
<path style=" stroke:none;fill-rule:nonzero;fill:rgb(100%,100%,100%);fill-opacity:1;" d="M 9 42.601562 C 8.5 42.601562 8.199219 42.199219 8.199219 41.800781 C 8.199219 41.300781 8.601562 41 9 41 C 9.5 41 9.800781 41.398438 9.800781 41.800781 C 9.898438 42.199219 9.5 42.601562 9 42.601562 M 9 40.601562 C 8.398438 40.601562 7.800781 41.101562 7.800781 41.800781 C 7.800781 42.5 8.300781 43 9 43 C 9.601562 43 10.199219 42.5 10.199219 41.800781 C 10.199219 41.101562 9.699219 40.601562 9 40.601562 "/>
<path style=" stroke:none;fill-rule:nonzero;fill:rgb(100%,100%,100%);fill-opacity:1;" d="M 9 38.398438 C 9.199219 38.398438 9.398438 38.601562 9.398438 38.800781 C 9.398438 39 9.199219 39.199219 9 39.199219 C 8.800781 39.199219 8.601562 39 8.601562 38.800781 C 8.601562 38.601562 8.800781 38.398438 9 38.398438 "/>
<path style=" stroke:none;fill-rule:nonzero;fill:rgb(100%,100%,100%);fill-opacity:1;" d="M 12.300781 31.398438 C 12.5 31.398438 12.699219 31.601562 12.699219 31.800781 C 12.699219 32 12.5 32.199219 12.300781 32.199219 C 12.101562 32.199219 11.898438 32 11.898438 31.800781 C 11.898438 31.601562 12.101562 31.398438 12.300781 31.398438 "/>
<path style=" stroke:none;fill-rule:nonzero;fill:rgb(100%,100%,100%);fill-opacity:1;" d="M 5.699219 31.398438 C 5.898438 31.398438 6.101562 31.601562 6.101562 31.800781 C 6.101562 32 5.898438 32.199219 5.699219 32.199219 C 5.5 32.199219 5.300781 32 5.300781 31.800781 C 5.300781 31.601562 5.5 31.398438 5.699219 31.398438 "/>
<path style=" stroke:none;fill-rule:nonzero;fill:rgb(100%,100%,100%);fill-opacity:1;" d="M 6.300781 35.101562 C 6.5 35.101562 6.699219 35.300781 6.699219 35.5 C 6.699219 35.699219 6.5 35.898438 6.300781 35.898438 C 6.101562 35.898438 5.898438 35.699219 5.898438 35.5 C 5.800781 35.300781 6 35.101562 6.300781 35.101562 "/>
<path style=" stroke:none;fill-rule:nonzero;fill:rgb(100%,100%,100%);fill-opacity:1;" d="M 12.300781 27.898438 C 12.5 27.898438 12.699219 28.101562 12.699219 28.300781 C 12.699219 28.5 12.5 28.699219 12.300781 28.699219 C 12.101562 28.699219 11.898438 28.5 11.898438 28.300781 C 11.898438 28.101562 12.101562 27.898438 12.300781 27.898438 "/>
<path style=" stroke:none;fill-rule:nonzero;fill:rgb(100%,100%,100%);fill-opacity:1;" d="M 5.699219 27.898438 C 5.898438 27.898438 6.101562 28.101562 6.101562 28.300781 C 6.101562 28.5 5.898438 28.699219 5.699219 28.699219 C 5.5 28.699219 5.300781 28.5 5.300781 28.300781 C 5.300781 28.101562 5.5 27.898438 5.699219 27.898438 "/>
<path style=" stroke:none;fill-rule:nonzero;fill:rgb(100%,100%,100%);fill-opacity:1;" d="M 9 27.601562 C 9.199219 27.601562 9.398438 27.800781 9.398438 28 C 9.398438 28.199219 9.199219 28.398438 9 28.398438 C 8.800781 28.398438 8.601562 28.199219 8.601562 28 C 8.601562 27.800781 8.800781 27.601562 9 27.601562 "/>
<path style=" stroke:none;fill-rule:nonzero;fill:rgb(100%,100%,100%);fill-opacity:1;" d="M 11.800781 35.101562 C 12 35.101562 12.199219 35.300781 12.199219 35.5 C 12.199219 35.699219 12 35.898438 11.800781 35.898438 C 11.601562 35.898438 11.398438 35.699219 11.398438 35.5 C 11.300781 35.300781 11.5 35.101562 11.800781 35.101562 "/>
<path style=" stroke:none;fill-rule:nonzero;fill:rgb(100%,100%,100%);fill-opacity:1;" d="M 23.320312 32.519531 L 38.675781 32.519531 C 38.675781 32.519531 36.144531 40.128906 30.992188 44.390625 C 30.675781 44.652344 24.183594 37.507812 23.320312 32.519531 "/>
<path style=" stroke:none;fill-rule:nonzero;fill:rgb(100%,100%,100%);fill-opacity:1;" d="M 31.070312 26.835938 C 31.070312 26.835938 32.722656 25.832031 34.914062 25.832031 C 37.105469 25.832031 38.890625 26.980469 39.460938 27.765625 C 39.460938 29.011719 38.683594 32.519531 38.683594 32.519531 L 31.03125 32.429688 "/>
<path style=" stroke:none;fill-rule:nonzero;fill:rgb(78.709412%,9.008789%,13.696289%);fill-opacity:1;" d="M 36.777344 32.625 L 36.777344 36.519531 C 36.410156 37.285156 36 38.027344 35.554688 38.75 L 35.554688 32.625 M 34.191406 32.625 L 34.191406 40.742188 C 33.804688 41.253906 33.398438 41.75 32.96875 42.230469 L 32.96875 32.625 M 31.601562 34.308594 L 31.601562 43.652344 C 31.359375 43.882812 31.152344 44.070312 30.988281 44.210938 C 30.828125 44.074219 30.621094 43.886719 30.378906 43.652344 L 30.378906 34.308594 C 30.570312 34.371094 30.777344 34.402344 30.992188 34.402344 C 31.207031 34.402344 31.410156 34.371094 31.601562 34.308594 M 29.015625 32.625 L 29.015625 42.234375 C 28.589844 41.753906 28.183594 41.253906 27.792969 40.742188 L 27.792969 32.625 M 26.429688 32.585938 L 26.429688 38.75 C 25.984375 38.03125 25.578125 37.285156 25.207031 36.523438 L 25.207031 32.585938 "/>
<path style=" stroke:none;fill-rule:nonzero;fill:rgb(74.804688%,55.271912%,7.495117%);fill-opacity:1;" d="M 31.191406 27.066406 L 31.191406 30.542969 C 32.097656 30.644531 32.828125 31.296875 32.957031 32.304688 L 38.410156 32.304688 C 38.820312 30.855469 39.105469 29.289062 39.261719 27.773438 C 37.164062 25.652344 33.71875 25.425781 31.191406 27.066406 M 32.957031 32.632812 C 32.847656 33.746094 32.144531 34.414062 31.007812 34.414062 C 29.832031 34.414062 29.171875 33.609375 29.0625 32.632812 L 23.734375 32.632812 C 24.910156 36.546875 27.003906 40.230469 29.9375 43.210938 C 30.382812 43.65625 30.75 43.996094 31.007812 44.21875 C 31.378906 43.898438 31.734375 43.5625 32.078125 43.210938 C 35.015625 40.230469 37.105469 36.546875 38.28125 32.632812 Z M 29.382812 32.492188 C 29.382812 33.390625 30.109375 34.117188 31.007812 34.117188 C 31.90625 34.117188 32.640625 33.390625 32.640625 32.492188 C 32.640625 31.59375 31.914062 30.863281 31.015625 30.859375 C 30.117188 30.859375 29.386719 31.585938 29.382812 32.484375 C 29.382812 32.488281 29.382812 32.488281 29.382812 32.492188 M 39.855469 23.574219 C 40.363281 31.398438 37.988281 37.234375 32.839844 43.1875 C 31.945312 44.222656 31.007812 44.875 31.007812 44.875 C 31.007812 44.875 30.074219 44.21875 29.175781 43.1875 C 24.070312 37.3125 21.59375 31.257812 22.105469 23.429688 C 23.300781 24.40625 24.707031 24.835938 26.371094 24.835938 C 28.136719 24.835938 29.78125 24.222656 31.007812 23.132812 C 32.277344 24.265625 33.917969 24.886719 35.621094 24.886719 C 37.28125 24.886719 38.648438 24.472656 39.84375 23.5 "/>
<path style=" stroke:none;fill-rule:nonzero;fill:rgb(74.804688%,55.271912%,7.495117%);fill-opacity:1;" d="M 32.976562 32.28125 L 38.402344 32.28125 C 38.789062 30.894531 39.085938 29.335938 39.242188 27.777344 C 38.105469 26.632812 36.554688 26.003906 34.851562 26.003906 C 33.550781 26.003906 32.292969 26.371094 31.210938 27.074219 L 31.210938 30.523438 C 32.160156 30.636719 32.847656 31.324219 32.976562 32.28125 M 38.433594 32.320312 L 32.941406 32.320312 L 32.9375 32.304688 C 32.820312 31.347656 32.132812 30.664062 31.191406 30.558594 L 31.171875 30.558594 L 31.171875 27.046875 L 31.183594 27.039062 C 32.277344 26.335938 33.550781 25.960938 34.851562 25.960938 C 36.5625 25.960938 38.136719 26.597656 39.273438 27.753906 L 39.28125 27.765625 L 39.28125 27.769531 C 39.128906 29.300781 38.84375 30.820312 38.433594 32.304688 Z M 31.011719 30.878906 C 30.125 30.878906 29.402344 31.601562 29.402344 32.488281 C 29.402344 33.371094 30.125 34.09375 31.011719 34.09375 C 31.898438 34.09375 32.621094 33.371094 32.621094 32.488281 C 32.621094 31.601562 31.898438 30.878906 31.011719 30.878906 M 31.011719 34.132812 C 30.101562 34.09375 29.398438 33.324219 29.4375 32.414062 C 29.472656 31.558594 30.15625 30.875 31.011719 30.839844 C 31.921875 30.84375 32.65625 31.578125 32.65625 32.488281 C 32.65625 33.398438 31.917969 34.132812 31.011719 34.132812 M 23.761719 32.648438 C 24.976562 36.667969 27.117188 40.3125 29.953125 43.191406 C 30.40625 43.648438 30.773438 43.980469 31.011719 44.1875 C 31.246094 43.980469 31.617188 43.644531 32.066406 43.191406 C 34.90625 40.3125 37.046875 36.667969 38.261719 32.648438 L 32.976562 32.648438 C 32.863281 33.777344 32.148438 34.429688 31.011719 34.429688 C 29.71875 34.429688 29.148438 33.511719 29.046875 32.648438 Z M 31.011719 44.242188 L 30.996094 44.230469 C 30.628906 43.90625 30.269531 43.570312 29.925781 43.21875 C 27.078125 40.332031 24.929688 36.667969 23.71875 32.636719 L 23.707031 32.609375 L 29.082031 32.609375 L 29.082031 32.625 C 29.179688 33.480469 29.734375 34.390625 31.011719 34.390625 C 32.128906 34.390625 32.832031 33.746094 32.945312 32.625 L 32.945312 32.609375 L 38.3125 32.609375 L 38.304688 32.636719 C 37.09375 36.667969 34.941406 40.332031 32.09375 43.21875 C 31.75 43.570312 31.394531 43.910156 31.027344 44.230469 Z M 22.125 23.46875 C 21.648438 30.921875 23.828125 37 29.191406 43.167969 C 30.027344 44.128906 30.902344 44.769531 31.011719 44.847656 C 31.117188 44.769531 31.996094 44.128906 32.828125 43.167969 C 35.488281 40.089844 37.332031 37.117188 38.457031 34.074219 C 39.640625 30.867188 40.09375 27.429688 39.839844 23.570312 L 39.832031 23.53125 C 38.671875 24.46875 37.332031 24.902344 35.621094 24.902344 C 33.925781 24.902344 32.285156 24.28125 31.011719 23.160156 C 29.773438 24.25 28.128906 24.851562 26.371094 24.851562 C 24.671875 24.851562 23.28125 24.398438 22.125 23.46875 M 31.011719 44.894531 L 31 44.890625 C 30.988281 44.882812 30.050781 44.21875 29.164062 43.195312 C 23.78125 37.003906 21.597656 30.90625 22.089844 23.421875 L 22.09375 23.390625 L 22.121094 23.410156 C 23.277344 24.351562 24.667969 24.808594 26.371094 24.808594 C 28.125 24.808594 29.769531 24.210938 30.996094 23.117188 L 31.011719 23.101562 L 31.023438 23.117188 C 32.289062 24.242188 33.925781 24.863281 35.621094 24.859375 C 37.335938 24.859375 38.671875 24.425781 39.832031 23.476562 L 39.855469 23.457031 L 39.878906 23.566406 C 40.132812 27.433594 39.675781 30.875 38.488281 34.085938 C 37.363281 37.132812 35.523438 40.113281 32.855469 43.199219 C 32.308594 43.828125 31.695312 44.394531 31.019531 44.886719 "/>
<path style=" stroke:none;fill-rule:nonzero;fill:rgb(1.597595%,0%,0%);fill-opacity:1;" d="M 22.195312 23.578125 L 22.191406 23.632812 C 21.945312 27.363281 22.480469 30.984375 23.78125 34.394531 C 24.972656 37.523438 26.804688 40.464844 29.222656 43.140625 C 29.773438 43.738281 30.367188 44.292969 31.007812 44.789062 C 31.195312 44.652344 31.992188 44.015625 32.789062 43.140625 C 35.507812 40.007812 37.292969 37.121094 38.425781 34.054688 C 39.597656 30.882812 40.054688 27.464844 39.800781 23.609375 C 38.644531 24.535156 37.347656 24.953125 35.617188 24.953125 C 33.921875 24.953125 32.285156 24.339844 31.007812 23.222656 C 29.757812 24.316406 28.125 24.910156 26.398438 24.910156 C 24.71875 24.910156 23.34375 24.476562 22.195312 23.582031 M 31.007812 44.957031 L 30.96875 44.929688 C 30.960938 44.921875 30.042969 44.234375 29.128906 43.230469 C 26.699219 40.542969 24.859375 37.585938 23.65625 34.441406 C 22.351562 31.015625 21.8125 27.375 22.058594 23.617188 L 22.074219 23.308594 L 22.175781 23.394531 C 23.320312 24.328125 24.703125 24.78125 26.398438 24.78125 C 28.113281 24.78125 29.734375 24.179688 30.964844 23.085938 L 31.007812 23.042969 L 31.050781 23.085938 C 32.308594 24.203125 33.933594 24.820312 35.617188 24.820312 C 37.34375 24.820312 38.617188 24.40625 39.757812 23.472656 L 39.917969 23.308594 L 39.933594 23.59375 C 40.1875 27.46875 39.734375 30.90625 38.550781 34.101562 C 37.410156 37.183594 35.613281 40.085938 32.890625 43.230469 C 32.324219 43.847656 31.707031 44.417969 31.046875 44.929688 "/>
<path style=" stroke:none;fill-rule:nonzero;fill:rgb(1.597595%,0%,0%);fill-opacity:1;" d="M 35.8125 28.332031 C 35.851562 28.351562 35.773438 28.386719 35.746094 28.421875 C 35.546875 28.355469 35.339844 28.320312 35.128906 28.320312 L 35.128906 28.476562 C 35.171875 28.507812 35.214844 28.539062 35.253906 28.570312 C 35.96875 29.109375 36.617188 29.46875 36.527344 30.449219 C 36.433594 31.523438 35.335938 32.242188 33.695312 31.597656 L 33.695312 31.390625 C 34.070312 31.527344 34.488281 31.59375 34.871094 31.574219 L 34.871094 31.132812 C 33.902344 31.171875 33.253906 30.398438 33.246094 29.667969 C 33.242188 29.042969 33.667969 28.433594 34.320312 28.203125 C 34.089844 27.964844 34.023438 27.773438 33.980469 27.390625 C 33.910156 26.746094 34.988281 26.03125 35.84375 26.871094 L 35.746094 26.980469 C 35.3125 26.570312 34.421875 26.5625 34.289062 27.214844 C 34.203125 27.609375 34.398438 27.890625 34.65625 28.121094 C 34.726562 28.113281 34.796875 28.105469 34.871094 28.105469 L 34.871094 27.53125 L 35.746094 27.53125 L 35.746094 27.679688 L 35.128906 27.679688 L 35.128906 28.121094 C 35.347656 28.148438 35.582031 28.21875 35.816406 28.332031 M 34.539062 28.40625 C 34.019531 28.558594 33.597656 28.929688 33.597656 29.539062 C 33.597656 30.414062 34.222656 30.832031 34.871094 30.878906 L 34.871094 28.675781 C 34.761719 28.585938 34.648438 28.496094 34.539062 28.40625 M 35.128906 30.878906 C 35.359375 30.863281 35.585938 30.800781 35.773438 30.695312 L 35.734375 30.902344 C 35.527344 31.003906 35.320312 31.070312 35.128906 31.105469 L 35.128906 31.546875 C 35.652344 31.460938 36.074219 31.195312 36.195312 30.707031 C 36.285156 30.34375 36.386719 29.863281 35.273438 28.988281 L 35.128906 28.875 L 35.128906 29.558594 L 35.519531 29.558594 L 35.519531 29.707031 L 35.128906 29.707031 "/>
<path style=" stroke:none;fill-rule:nonzero;fill:rgb(100%,100%,100%);fill-opacity:1;" d="M 30.808594 30.535156 L 30.808594 27.09375 C 28.28125 25.457031 24.835938 25.679688 22.738281 27.804688 C 22.894531 29.316406 23.179688 30.808594 23.589844 32.257812 L 29.085938 32.257812 C 29.191406 31.351562 29.90625 30.636719 30.808594 30.535156 "/>
<path style=" stroke:none;fill-rule:nonzero;fill:rgb(78.709412%,9.008789%,13.696289%);fill-opacity:1;" d="M 39.328125 27.265625 L 39.289062 27.234375 C 38.097656 26.183594 36.519531 25.601562 34.859375 25.601562 C 33.492188 25.601562 32.160156 25.984375 31.003906 26.714844 L 30.992188 26.722656 L 30.980469 26.714844 C 29.828125 25.984375 28.488281 25.597656 27.121094 25.601562 C 25.464844 25.601562 23.890625 26.183594 22.691406 27.234375 L 22.65625 27.265625 L 22.65625 27.21875 C 22.585938 26.273438 22.5625 25.328125 22.582031 24.386719 L 22.585938 24.34375 L 22.617188 24.367188 C 23.757812 25.019531 25.058594 25.367188 26.382812 25.367188 C 28.042969 25.371094 29.660156 24.824219 30.976562 23.816406 L 30.992188 23.808594 L 31.003906 23.816406 C 32.324219 24.824219 33.941406 25.371094 35.601562 25.367188 C 36.921875 25.363281 38.21875 25.019531 39.363281 24.367188 L 39.398438 24.34375 L 39.398438 24.386719 C 39.425781 25.308594 39.398438 26.339844 39.332031 27.21875 "/>
<path style=" stroke:none;fill-rule:nonzero;fill:rgb(58.396912%,33.68988%,14.109802%);fill-opacity:1;" d="M 32.660156 32.484375 C 32.660156 33.386719 31.929688 34.113281 31.03125 34.113281 C 30.132812 34.113281 29.40625 33.386719 29.40625 32.484375 C 29.40625 31.585938 30.132812 30.859375 31.03125 30.859375 C 31.929688 30.859375 32.660156 31.585938 32.660156 32.484375 "/>
<path style=" stroke:none;fill-rule:nonzero;fill:rgb(72.264099%,44.309998%,11.401367%);fill-opacity:1;" d="M 31.460938 32.121094 C 31.460938 32.539062 31.121094 32.875 30.707031 32.875 C 30.289062 32.875 29.953125 32.539062 29.953125 32.121094 C 29.953125 31.707031 30.289062 31.367188 30.707031 31.367188 C 31.121094 31.367188 31.460938 31.707031 31.460938 32.121094 "/>
<path style=" stroke:none;fill-rule:nonzero;fill:rgb(69.726562%,54.101562%,12.5%);fill-opacity:1;" d="M 23.257812 31.167969 C 23.257812 31.167969 23.285156 29.367188 23.394531 29.105469 C 23.503906 28.839844 23.820312 28.335938 23.820312 28.335938 L 23.613281 27.757812 C 23.613281 27.757812 23.789062 27.328125 23.921875 27.242188 C 24.210938 27.378906 24.351562 27.617188 24.351562 27.617188 L 24.3125 28.203125 C 24.3125 28.203125 24.398438 28.339844 24.324219 28.449219 C 24.519531 28.65625 24.816406 29.074219 24.910156 29.320312 C 25 29.566406 25.097656 29.78125 25.082031 29.890625 L 25.136719 29.890625 L 24.835938 27.46875 C 24.835938 27.46875 24.765625 27.394531 24.777344 27.371094 C 24.640625 27.28125 24.425781 26.886719 24.890625 26.789062 C 25.074219 26.789062 25.167969 26.902344 25.160156 27.046875 C 25.15625 27.1875 25.070312 27.320312 24.984375 27.347656 C 24.964844 27.429688 24.890625 27.355469 24.996094 28.113281 C 25.097656 28.867188 25.230469 29.929688 25.230469 29.929688 C 25.230469 29.929688 25.328125 29.90625 25.332031 30.015625 C 25.339844 30.125 25.394531 30.179688 25.28125 30.234375 C 25.34375 30.703125 25.441406 31.453125 25.441406 31.453125 L 25.515625 32.332031 L 23.589844 32.363281 "/>
<path style=" stroke:none;fill-rule:nonzero;fill:rgb(87.889099%,78.709412%,68.943787%);fill-opacity:1;" d="M 23.855469 28.265625 C 23.855469 28.265625 24.046875 28.066406 24.273438 28.214844 C 24.300781 28.394531 24.285156 28.496094 24.242188 28.550781 C 24.164062 28.476562 24.109375 28.464844 24.070312 28.5 C 24.03125 28.539062 23.992188 28.574219 23.992188 28.574219 L 23.886719 28.496094 "/>
<path style=" stroke:none;fill-rule:nonzero;fill:rgb(87.889099%,78.709412%,68.943787%);fill-opacity:1;" d="M 24.019531 28.601562 C 24.019531 28.601562 24.105469 28.46875 24.210938 28.601562 C 24.160156 28.699219 24.117188 28.746094 24.019531 28.601562 "/>
<path style=" stroke:none;fill-rule:nonzero;fill:rgb(87.889099%,78.709412%,68.943787%);fill-opacity:1;" d="M 23.914062 28.574219 C 23.914062 28.574219 24 28.71875 24.113281 28.742188 C 24.226562 28.765625 24.253906 28.617188 24.253906 28.617188 C 24.253906 28.617188 24.246094 28.78125 24.210938 28.8125 C 24.175781 28.84375 24.09375 28.84375 24.042969 28.8125 C 23.992188 28.777344 23.886719 28.703125 23.886719 28.703125 "/>
<path style=" stroke:none;fill-rule:nonzero;fill:rgb(87.889099%,78.709412%,68.943787%);fill-opacity:1;" d="M 24.910156 29.785156 L 25.019531 29.949219 C 25.019531 29.949219 25.296875 29.882812 25.335938 30.023438 C 25.324219 30.265625 25.296875 30.289062 25.226562 30.230469 C 25.144531 30.191406 25.148438 30.167969 25.0625 30.15625 C 24.976562 30.144531 24.816406 29.945312 24.816406 29.945312 "/>
<path style=" stroke:none;fill-rule:nonzero;fill:rgb(87.889099%,78.709412%,68.943787%);fill-opacity:1;" d="M 23.972656 30.023438 C 23.972656 30.023438 24.234375 30.359375 24.289062 30.414062 C 24.339844 30.46875 24.351562 30.566406 24.34375 30.667969 C 24.335938 30.769531 24.378906 30.835938 24.253906 30.761719 C 24.128906 30.691406 24.082031 30.554688 24.070312 30.5 C 24.058594 30.445312 24.070312 30.40625 24.070312 30.40625 L 23.914062 30.070312 "/>
<path style=" stroke:none;fill-rule:nonzero;fill:rgb(87.889099%,78.709412%,68.943787%);fill-opacity:1;" d="M 24.128906 27.988281 L 24.070312 27.457031 C 24.070312 27.457031 24.28125 27.542969 24.289062 27.722656 C 24.292969 27.902344 24.253906 28.078125 24.253906 28.078125 "/>
<path style=" stroke:none;fill-rule:nonzero;fill:rgb(87.889099%,78.709412%,68.943787%);fill-opacity:1;" d="M 23.972656 28.039062 L 23.886719 27.496094 C 23.886719 27.496094 23.644531 27.59375 23.710938 27.804688 C 23.78125 28.015625 23.816406 28.128906 23.816406 28.128906 C 23.816406 28.128906 23.933594 28.035156 23.972656 28.039062 "/>
<path style=" stroke:none;fill-rule:nonzero;fill:rgb(87.889099%,78.709412%,68.943787%);fill-opacity:1;" d="M 24.429688 28.617188 C 24.429688 28.617188 24.417969 28.832031 24.515625 28.9375 C 24.613281 29.039062 24.746094 29.371094 24.769531 29.554688 C 24.925781 29.757812 25.011719 29.875 25.011719 29.875 C 25.011719 29.875 25.09375 29.40625 24.429688 28.617188 "/>
<path style=" stroke:none;fill-rule:nonzero;fill:rgb(87.889099%,78.709412%,68.943787%);fill-opacity:1;" d="M 23.664062 28.617188 C 23.664062 28.617188 23.574219 29.121094 23.613281 29.507812 C 23.652344 29.894531 23.820312 30.265625 24.019531 30.476562 C 24.183594 30.761719 24.210938 30.792969 24.210938 30.792969 L 24.441406 32.109375 L 24.300781 32.253906 C 24.300781 32.253906 24.011719 32.15625 23.785156 31.480469 C 23.558594 30.804688 23.398438 30.035156 23.429688 29.640625 C 23.460938 29.246094 23.523438 28.992188 23.523438 28.992188 C 23.523438 28.992188 23.347656 29.316406 23.351562 29.695312 C 23.355469 30.078125 23.558594 31.320312 23.636719 31.507812 C 23.710938 31.691406 23.867188 32.039062 23.867188 32.039062 L 23.914062 32.351562 L 23.609375 32.371094 C 23.609375 32.371094 23.652344 31.984375 23.683594 31.902344 C 23.476562 31.355469 23.300781 30.898438 23.3125 30.296875 C 23.324219 29.703125 23.257812 29.257812 23.664062 28.617188 "/>
<path style=" stroke:none;fill-rule:nonzero;fill:rgb(87.889099%,78.709412%,68.943787%);fill-opacity:1;" d="M 24.558594 30.277344 C 24.558594 30.277344 24.835938 30.398438 24.871094 30.492188 C 24.910156 30.589844 25.125 31.464844 25.125 31.464844 L 25.292969 31.441406 C 25.292969 31.441406 25.296875 31.113281 25.210938 31.003906 C 25.125 30.890625 25.277344 30.628906 25.136719 30.492188 C 24.992188 30.359375 25.109375 30.199219 24.558594 30.277344 "/>
<path style=" stroke:none;fill-rule:nonzero;fill:rgb(87.889099%,78.709412%,68.943787%);fill-opacity:1;" d="M 24.644531 30.546875 C 24.644531 30.546875 24.867188 31.054688 24.867188 31.175781 C 24.867188 31.296875 24.902344 31.429688 24.902344 31.429688 L 24.671875 31.660156 C 24.671875 31.660156 24.554688 31.34375 24.558594 31.1875 C 24.5625 31.035156 24.617188 30.839844 24.558594 30.792969 C 24.5 30.75 24.429688 30.695312 24.429688 30.695312 "/>
<path style=" stroke:none;fill-rule:nonzero;fill:rgb(87.889099%,78.709412%,68.943787%);fill-opacity:1;" d="M 24.382812 30.210938 C 24.382812 30.210938 24.425781 30.09375 24.488281 30.023438 C 24.554688 29.949219 24.425781 29.953125 24.488281 29.871094 C 24.554688 29.792969 24.546875 29.773438 24.507812 29.753906 C 24.46875 29.730469 24.484375 29.898438 24.460938 29.871094 C 24.4375 29.847656 24.289062 29.75 24.289062 29.75 C 24.289062 29.75 24.46875 29.613281 24.480469 29.492188 C 24.496094 29.367188 24.441406 29.277344 24.441406 29.277344 L 24.347656 29.363281 L 24.375 29.503906 L 24.289062 29.332031 L 24.019531 29.378906 L 23.972656 29.871094 C 23.972656 29.871094 24.117188 29.949219 24.113281 29.972656 C 24.113281 29.992188 24.152344 30.15625 24.152344 30.15625 "/>
<path style=" stroke:none;fill-rule:nonzero;fill:rgb(87.889099%,78.709412%,68.943787%);fill-opacity:1;" d="M 23.972656 29.089844 L 24.179688 29.054688 C 24.179688 29.054688 24.152344 28.917969 24.128906 28.902344 C 24.105469 28.886719 23.957031 28.828125 23.949219 28.804688 C 23.941406 28.785156 23.867188 29.035156 23.972656 29.089844 "/>
<path style=" stroke:none;fill-rule:nonzero;fill:rgb(87.889099%,78.709412%,68.943787%);fill-opacity:1;" d="M 24.253906 29.027344 L 24.386719 29.027344 C 24.386719 29.027344 24.273438 28.929688 24.289062 28.835938 L 24.191406 28.902344 "/>
<path style=" stroke:none;fill-rule:nonzero;fill:rgb(78.709412%,9.008789%,13.696289%);fill-opacity:1;" d="M 25.175781 32.335938 C 25.175781 32.335938 25.25 31.878906 25.308594 31.746094 C 25.363281 31.613281 25.457031 31.414062 25.480469 31.414062 C 25.503906 31.414062 25.519531 29.566406 25.519531 29.566406 L 25.792969 29.304688 L 25.792969 27.195312 L 25.664062 27.164062 C 25.664062 27.164062 25.640625 26.953125 25.519531 26.953125 C 25.492188 26.640625 25.566406 26.546875 25.828125 26.539062 C 26.09375 26.535156 27.691406 26.519531 27.878906 26.539062 C 28.070312 26.5625 28.171875 26.546875 28.195312 26.972656 C 28.050781 27.003906 28.046875 27.21875 28.046875 27.21875 L 27.921875 27.199219 L 27.949219 29.183594 L 28.195312 29.539062 L 28.195312 31.191406 L 28.90625 32.054688 L 29.011719 32.363281 "/>
<path style=" stroke:none;fill-rule:nonzero;fill:rgb(74.804688%,59.179688%,6.298828%);fill-opacity:1;" d="M 25.847656 27.085938 C 25.808594 27.042969 25.617188 26.671875 25.785156 26.65625 C 25.953125 26.636719 26.03125 26.667969 26.003906 26.800781 C 25.972656 26.9375 25.945312 27.011719 25.941406 27.042969 C 25.933594 27.078125 25.847656 27.085938 25.847656 27.085938 "/>
<path style=" stroke:none;fill-rule:nonzero;fill:rgb(74.804688%,59.179688%,6.298828%);fill-opacity:1;" d="M 26.535156 27.085938 L 26.398438 26.9375 C 26.398438 26.9375 26.332031 26.71875 26.46875 26.671875 C 26.605469 26.628906 26.703125 26.722656 26.703125 26.800781 C 26.703125 26.878906 26.640625 26.964844 26.632812 27.023438 C 26.628906 27.078125 26.535156 27.085938 26.535156 27.085938 "/>
<path style=" stroke:none;fill-rule:nonzero;fill:rgb(74.804688%,59.179688%,6.298828%);fill-opacity:1;" d="M 27.171875 27.085938 C 27.171875 27.085938 27.125 26.988281 27.085938 26.941406 C 27.046875 26.894531 26.988281 26.742188 27.070312 26.683594 C 27.148438 26.628906 27.320312 26.605469 27.332031 26.722656 C 27.34375 26.84375 27.390625 26.796875 27.332031 26.914062 C 27.277344 27.027344 27.277344 27.085938 27.277344 27.085938 "/>
<path style=" stroke:none;fill-rule:nonzero;fill:rgb(74.804688%,59.179688%,6.298828%);fill-opacity:1;" d="M 27.8125 27.085938 C 27.8125 27.085938 27.882812 27.003906 27.8125 26.9375 C 27.746094 26.867188 27.582031 26.644531 27.828125 26.652344 C 28.078125 26.65625 28.09375 26.792969 28.066406 26.859375 C 28.039062 26.929688 28.027344 26.949219 27.996094 27.023438 C 27.96875 27.097656 27.8125 27.085938 27.8125 27.085938 "/>
<path style=" stroke:none;fill-rule:nonzero;fill:rgb(74.804688%,59.179688%,6.298828%);fill-opacity:1;" d="M 26.148438 27.613281 C 26.148438 27.613281 26.027344 27.300781 26.101562 27.132812 C 26.175781 26.960938 26.398438 26.949219 26.382812 27.164062 C 26.363281 27.382812 26.445312 27.492188 26.382812 27.574219 C 26.320312 27.652344 26.148438 27.613281 26.148438 27.613281 "/>
<path style=" stroke:none;fill-rule:nonzero;fill:rgb(74.804688%,59.179688%,6.298828%);fill-opacity:1;" d="M 26.078125 28.042969 C 26.078125 28.042969 26.015625 27.730469 26.128906 27.714844 C 26.242188 27.699219 26.359375 27.699219 26.382812 27.800781 C 26.402344 27.902344 26.351562 28.078125 26.324219 28.089844 C 26.292969 28.097656 26.195312 28.230469 26.078125 28.042969 "/>
<path style=" stroke:none;fill-rule:nonzero;fill:rgb(74.804688%,59.179688%,6.298828%);fill-opacity:1;" d="M 26.148438 28.613281 C 26.148438 28.613281 26 28.355469 26.078125 28.289062 C 26.152344 28.21875 26.179688 28.117188 26.277344 28.175781 C 26.375 28.230469 26.382812 28.335938 26.382812 28.386719 C 26.382812 28.4375 26.335938 28.523438 26.296875 28.5625 C 26.253906 28.605469 26.148438 28.613281 26.148438 28.613281 "/>
<path style=" stroke:none;fill-rule:nonzero;fill:rgb(74.804688%,59.179688%,6.298828%);fill-opacity:1;" d="M 26.792969 27.582031 C 26.777344 27.574219 26.660156 27.355469 26.753906 27.257812 C 26.847656 27.160156 26.839844 27.164062 26.792969 27.113281 C 26.746094 27.0625 26.808594 26.804688 26.929688 27 C 27.046875 27.199219 26.988281 27.257812 26.976562 27.285156 C 26.964844 27.316406 27.121094 27.445312 27.027344 27.539062 C 26.9375 27.628906 26.792969 27.582031 26.792969 27.582031 "/>
<path style=" stroke:none;fill-rule:nonzero;fill:rgb(74.804688%,59.179688%,6.298828%);fill-opacity:1;" d="M 27.441406 27.148438 C 27.441406 27.148438 27.550781 26.734375 27.695312 27.148438 C 27.636719 27.257812 27.636719 27.246094 27.664062 27.335938 C 27.695312 27.429688 27.6875 27.574219 27.671875 27.621094 C 27.652344 27.667969 27.429688 27.746094 27.441406 27.621094 C 27.453125 27.496094 27.46875 27.207031 27.46875 27.207031 "/>
<path style=" stroke:none;fill-rule:nonzero;fill:rgb(74.804688%,59.179688%,6.298828%);fill-opacity:1;" d="M 27.476562 28.097656 C 27.464844 28.066406 27.320312 27.816406 27.441406 27.75 C 27.5625 27.683594 27.710938 27.808594 27.695312 27.886719 C 27.683594 27.96875 27.609375 28.070312 27.617188 28.15625 C 27.632812 28.242188 27.78125 28.390625 27.699219 28.484375 C 27.613281 28.574219 27.589844 28.597656 27.511719 28.558594 C 27.429688 28.519531 27.410156 28.53125 27.441406 28.386719 C 27.46875 28.242188 27.476562 28.097656 27.476562 28.097656 "/>
<path style=" stroke:none;fill-rule:nonzero;fill:rgb(74.804688%,59.179688%,6.298828%);fill-opacity:1;" d="M 25.648438 30.183594 C 25.550781 30.128906 25.441406 29.960938 25.578125 29.835938 C 25.71875 29.710938 25.933594 29.714844 25.90625 29.871094 C 25.875 30.027344 25.835938 30.167969 25.785156 30.207031 C 25.734375 30.25 25.75 30.28125 25.820312 30.398438 C 25.890625 30.511719 25.871094 30.714844 25.835938 30.753906 C 25.800781 30.792969 25.726562 30.765625 25.773438 30.828125 C 25.820312 30.890625 25.921875 31.183594 25.800781 31.273438 C 25.679688 31.367188 25.589844 31.339844 25.585938 31.199219 C 25.578125 31.0625 25.726562 30.863281 25.664062 30.757812 C 25.601562 30.65625 25.457031 30.585938 25.542969 30.421875 C 25.628906 30.253906 25.648438 30.183594 25.648438 30.183594 "/>
<path style=" stroke:none;fill-rule:nonzero;fill:rgb(74.804688%,59.179688%,6.298828%);fill-opacity:1;" d="M 27.953125 30.132812 C 27.957031 30.058594 27.765625 29.882812 27.886719 29.785156 C 28.007812 29.6875 28.101562 29.589844 28.140625 29.785156 C 28.179688 29.980469 28.09375 30.082031 28.078125 30.15625 C 28.0625 30.230469 28.191406 30.226562 28.1875 30.449219 C 28.179688 30.671875 28.054688 30.691406 28.113281 30.792969 C 28.167969 30.894531 28.277344 31.066406 28.1875 31.195312 C 28.09375 31.320312 27.933594 31.308594 27.921875 31.152344 C 27.910156 31 27.945312 30.890625 27.984375 30.800781 C 28.027344 30.707031 28.019531 30.703125 27.941406 30.582031 C 27.859375 30.460938 27.953125 30.1875 27.953125 30.1875 "/>
<path style=" stroke:none;fill-rule:nonzero;fill:rgb(74.804688%,59.179688%,6.298828%);fill-opacity:1;" d="M 25.5625 31.578125 C 25.613281 31.566406 25.429688 31.390625 25.652344 31.421875 C 25.875 31.457031 26.003906 31.507812 25.835938 31.625 C 25.671875 31.738281 25.695312 31.695312 25.714844 31.769531 C 25.734375 31.84375 25.6875 31.984375 25.6875 31.984375 C 25.6875 31.984375 25.6875 31.972656 25.714844 32.066406 C 25.738281 32.15625 25.574219 32.1875 25.660156 32.25 C 25.746094 32.3125 25.6875 32.347656 25.6875 32.347656 L 25.316406 32.347656 C 25.316406 32.347656 25.40625 32.175781 25.457031 32.164062 C 25.511719 32.152344 25.34375 31.992188 25.429688 31.929688 C 25.515625 31.867188 25.378906 31.617188 25.5625 31.578125 "/>
<path style=" stroke:none;fill-rule:nonzero;fill:rgb(74.804688%,59.179688%,6.298828%);fill-opacity:1;" d="M 26.152344 31.59375 C 26.15625 31.574219 26.117188 31.382812 26.300781 31.417969 C 26.484375 31.457031 26.519531 31.453125 26.425781 31.5625 C 26.335938 31.671875 26.382812 31.628906 26.394531 31.757812 C 26.402344 31.882812 26.273438 31.957031 26.3125 31.972656 C 26.351562 31.992188 26.421875 31.972656 26.410156 32.121094 C 26.398438 32.273438 26.386719 32.347656 26.386719 32.347656 L 26.019531 32.347656 L 26.128906 32.136719 C 26.128906 32.136719 25.96875 32.003906 26.066406 31.925781 C 26.164062 31.851562 26.121094 31.789062 26.105469 31.769531 C 26.089844 31.746094 26.152344 31.59375 26.152344 31.59375 "/>
<path style=" stroke:none;fill-rule:nonzero;fill:rgb(74.804688%,59.179688%,6.298828%);fill-opacity:1;" d="M 26.703125 31.734375 C 26.757812 31.710938 26.988281 31.589844 27.023438 31.761719 C 27.058594 31.933594 26.925781 31.871094 26.953125 31.917969 C 26.984375 31.960938 27.109375 32.054688 27.070312 32.101562 C 27.03125 32.148438 26.925781 32.179688 26.988281 32.214844 C 27.050781 32.25 27.078125 32.347656 27.078125 32.347656 L 26.703125 32.347656 C 26.703125 32.347656 26.792969 32.179688 26.816406 32.15625 C 26.839844 32.132812 26.683594 31.96875 26.742188 31.933594 C 26.800781 31.898438 26.75 31.824219 26.75 31.824219 "/>
<path style=" stroke:none;fill-rule:nonzero;fill:rgb(74.804688%,59.179688%,6.298828%);fill-opacity:1;" d="M 27.34375 31.59375 C 27.34375 31.59375 27.28125 31.398438 27.46875 31.417969 C 27.660156 31.441406 27.601562 31.550781 27.570312 31.59375 C 27.53125 31.640625 27.6875 31.652344 27.707031 31.738281 C 27.722656 31.824219 27.585938 31.941406 27.613281 31.949219 C 27.640625 31.964844 27.683594 31.972656 27.707031 32.066406 C 27.726562 32.15625 27.664062 32.230469 27.683594 32.242188 C 27.699219 32.253906 27.785156 32.347656 27.785156 32.347656 C 27.785156 32.347656 27.289062 32.339844 27.335938 32.347656 C 27.378906 32.351562 27.453125 32.152344 27.453125 32.152344 C 27.453125 32.152344 27.355469 31.914062 27.417969 31.882812 C 27.480469 31.851562 27.355469 31.738281 27.355469 31.738281 L 27.425781 31.601562 "/>
<path style=" stroke:none;fill-rule:nonzero;fill:rgb(74.804688%,59.179688%,6.298828%);fill-opacity:1;" d="M 27.996094 31.601562 C 27.992188 31.585938 27.90625 31.359375 28.074219 31.414062 C 28.238281 31.46875 28.308594 31.617188 28.222656 31.648438 C 28.136719 31.675781 28.289062 31.738281 28.308594 31.757812 C 28.324219 31.773438 28.242188 31.960938 28.261719 31.957031 C 28.277344 31.953125 28.5 32.066406 28.414062 32.117188 C 28.328125 32.167969 28.386719 32.289062 28.386719 32.289062 L 28.433594 32.347656 L 28.089844 32.347656 L 28.136719 32.152344 C 28.136719 32.152344 28.03125 32.066406 28.082031 31.953125 C 27.988281 31.789062 28.066406 31.640625 28.066406 31.640625 "/>
<path style=" stroke:none;fill-rule:nonzero;fill:rgb(69.726562%,54.101562%,12.5%);fill-opacity:1;" d="M 26.714844 28.277344 C 26.714844 28.277344 26.640625 28.035156 26.640625 27.902344 C 26.640625 27.773438 26.570312 27.65625 26.515625 27.609375 C 26.457031 27.566406 26.613281 27.609375 26.613281 27.609375 C 26.613281 27.609375 26.675781 27.53125 26.714844 27.546875 C 26.753906 27.566406 26.804688 27.59375 26.804688 27.59375 L 26.886719 27.546875 L 27 27.59375 L 27.140625 27.546875 L 27.230469 27.632812 C 27.230469 27.632812 27.144531 27.726562 27.144531 27.835938 C 27.144531 27.945312 27.144531 28.097656 27.140625 28.15625 C 27.132812 28.210938 27.023438 28.332031 27.023438 28.332031 C 27.023438 28.332031 27.253906 28.425781 27.367188 28.425781 C 27.480469 28.425781 27.5 28.414062 27.550781 28.5 C 27.601562 28.585938 27.765625 28.738281 27.75 28.84375 C 27.742188 28.945312 27.753906 29.003906 27.753906 29.003906 L 27.804688 29.003906 C 27.804688 29.003906 27.835938 28.832031 28.011719 28.835938 C 28.179688 28.84375 28.382812 28.832031 28.371094 29.078125 C 28.359375 29.324219 28.234375 29.488281 28.234375 29.496094 C 28.234375 29.503906 28.023438 29.582031 27.945312 29.554688 C 27.734375 29.777344 27.699219 29.730469 27.65625 29.628906 C 27.609375 29.527344 27.527344 29.546875 27.527344 29.546875 L 27.5 29.597656 C 27.5 29.597656 27.730469 29.804688 27.828125 29.914062 C 27.921875 30.023438 27.953125 30.398438 27.945312 30.554688 C 27.941406 30.71875 27.882812 31.015625 27.882812 31.015625 L 27.664062 31.261719 L 27.160156 31.261719 C 27.160156 31.261719 27.140625 31.496094 27.15625 31.597656 C 27.171875 31.703125 26.910156 31.792969 26.902344 31.753906 C 26.898438 31.714844 26.640625 31.847656 26.628906 31.675781 C 26.617188 31.503906 26.617188 31.375 26.617188 31.308594 C 26.617188 31.238281 26.683594 31.25 26.394531 31.199219 C 26.101562 31.148438 26.152344 31.210938 26.113281 31.1875 C 26.074219 31.164062 25.832031 31.039062 25.84375 30.804688 C 25.855469 30.570312 25.882812 30.03125 25.988281 29.925781 C 26.089844 29.824219 26.210938 29.652344 26.238281 29.582031 C 26.269531 29.515625 26.226562 29.496094 26.226562 29.496094 C 26.226562 29.496094 26.085938 29.695312 25.933594 29.582031 C 25.785156 29.46875 25.820312 29.53125 25.769531 29.527344 C 25.71875 29.519531 25.476562 29.410156 25.632812 29.226562 L 25.589844 29.140625 C 25.589844 29.140625 25.363281 29.078125 25.414062 28.972656 C 25.515625 29.054688 25.644531 29.066406 25.644531 29.066406 C 25.644531 29.066406 25.425781 27.101562 25.40625 27.128906 C 25.386719 27.15625 25.722656 29.074219 25.734375 29.050781 C 25.746094 29.027344 25.832031 28.941406 25.832031 28.941406 C 25.832031 28.941406 25.871094 28.984375 25.890625 28.980469 C 25.90625 28.972656 26.039062 28.871094 26.164062 28.648438 C 26.289062 28.425781 26.484375 28.351562 26.714844 28.277344 "/>
<path style=" stroke:none;fill-rule:nonzero;fill:rgb(87.889099%,78.709412%,68.943787%);fill-opacity:1;" d="M 26.699219 27.835938 L 26.730469 28.191406 L 26.765625 28.253906 L 26.730469 28.335938 L 26.921875 28.472656 L 27.019531 28.386719 L 27.019531 28.203125 L 27.09375 28.070312 L 27.066406 27.835938 C 27.066406 27.835938 26.839844 27.746094 26.699219 27.835938 "/>
<path style=" stroke:none;fill-rule:nonzero;fill:rgb(87.889099%,78.709412%,68.943787%);fill-opacity:1;" d="M 26.628906 28.300781 L 26.628906 28.503906 L 26.828125 28.554688 "/>
<path style=" stroke:none;fill-rule:nonzero;fill:rgb(87.889099%,78.709412%,68.943787%);fill-opacity:1;" d="M 26.492188 28.398438 C 26.492188 28.449219 26.453125 28.789062 26.457031 28.816406 C 26.460938 28.84375 26.828125 28.605469 26.828125 28.605469 L 26.828125 28.671875 L 26.429688 28.945312 L 26.050781 29.011719 L 26.117188 29.121094 L 25.933594 29.121094 L 26.113281 29.359375 L 26.074219 29.597656 C 26.074219 29.597656 25.695312 29.132812 25.710938 29.121094 C 25.730469 29.109375 25.890625 28.886719 26.015625 28.84375 C 26.175781 28.59375 26.269531 28.425781 26.269531 28.425781 "/>
<path style=" stroke:none;fill-rule:nonzero;fill:rgb(87.889099%,78.709412%,68.943787%);fill-opacity:1;" d="M 27.242188 28.398438 C 27.203125 28.410156 27.019531 28.621094 27.019531 28.621094 L 27.242188 28.707031 L 27.3125 28.664062 C 27.3125 28.664062 27.441406 28.992188 27.464844 29.011719 C 27.488281 29.027344 27.570312 29.039062 27.632812 29.0625 C 27.695312 29.085938 27.78125 29.011719 27.78125 29.011719 C 27.78125 29.011719 27.476562 28.929688 27.492188 28.902344 C 27.511719 28.875 27.316406 28.472656 27.316406 28.472656 "/>
<path style=" stroke:none;fill-rule:nonzero;fill:rgb(87.889099%,78.709412%,68.943787%);fill-opacity:1;" d="M 26.578125 29.097656 L 26.894531 28.960938 C 26.894531 28.960938 26.835938 29.175781 26.871094 29.160156 C 26.902344 29.144531 27.019531 29.046875 27.019531 29.066406 C 27.019531 29.085938 27.042969 29.195312 27.042969 29.195312 L 26.894531 29.246094 "/>
<path style=" stroke:none;fill-rule:nonzero;fill:rgb(87.889099%,78.709412%,68.943787%);fill-opacity:1;" d="M 27.140625 29.46875 L 26.972656 29.597656 L 26.921875 29.328125 "/>
<path style=" stroke:none;fill-rule:nonzero;fill:rgb(87.889099%,78.709412%,68.943787%);fill-opacity:1;" d="M 26.859375 29.328125 L 26.894531 29.597656 C 26.894531 29.597656 26.496094 29.46875 26.527344 29.476562 C 26.554688 29.480469 26.636719 29.222656 26.859375 29.328125 "/>
<path style=" stroke:none;fill-rule:nonzero;fill:rgb(87.889099%,78.709412%,68.943787%);fill-opacity:1;" d="M 27.4375 29.101562 L 27.746094 29.121094 L 27.828125 29.359375 C 27.828125 29.359375 27.601562 29.539062 27.632812 29.523438 C 27.660156 29.503906 27.71875 29.328125 27.71875 29.328125 L 27.597656 29.191406 "/>
<path style=" stroke:none;fill-rule:nonzero;fill:rgb(87.889099%,78.709412%,68.943787%);fill-opacity:1;" d="M 27.582031 29.871094 L 27.515625 29.699219 L 27.09375 30.058594 C 27.09375 30.058594 27.339844 30.078125 27.582031 29.871094 "/>
<path style=" stroke:none;fill-rule:nonzero;fill:rgb(87.889099%,78.709412%,68.943787%);fill-opacity:1;" d="M 26.019531 29.941406 C 26.019531 29.941406 26.535156 30.230469 26.699219 30.214844 C 26.859375 30.199219 27.269531 30.128906 27.292969 30.125 C 27.316406 30.117188 27.632812 29.921875 27.6875 29.941406 C 27.746094 29.957031 27.828125 30.148438 27.828125 30.148438 L 27.671875 30.839844 L 26.925781 31.097656 C 26.925781 31.097656 26.113281 30.9375 26.078125 30.9375 C 26.042969 30.9375 25.84375 30.972656 25.84375 30.972656 C 25.84375 30.972656 25.734375 29.792969 26.019531 29.941406 "/>
<path style=" stroke:none;fill-rule:nonzero;fill:rgb(69.726562%,54.101562%,12.5%);fill-opacity:1;" d="M 28.433594 31.628906 C 28.433594 31.628906 28.144531 31.417969 28.242188 31.128906 C 28.339844 30.84375 28.378906 30.765625 28.367188 30.667969 C 28.355469 30.570312 28.398438 30.425781 28.433594 30.40625 C 28.464844 30.390625 28.488281 30.085938 28.488281 30.085938 C 28.488281 30.085938 28.328125 29.90625 28.542969 29.777344 C 28.628906 28.894531 28.867188 27.222656 28.867188 27.203125 C 28.867188 27.1875 28.601562 27.382812 28.546875 27.140625 C 28.488281 26.902344 28.503906 26.589844 28.546875 26.589844 C 28.585938 26.589844 28.972656 26.382812 28.992188 26.78125 C 29.015625 27.175781 28.851562 27.988281 28.851562 28.03125 C 28.851562 28.070312 28.636719 29.804688 28.636719 29.804688 L 28.753906 29.847656 C 28.753906 29.847656 29.257812 28.746094 29.5625 28.621094 C 29.457031 28.429688 29.503906 28.070312 29.503906 28.070312 C 29.503906 28.070312 29.601562 27.382812 29.671875 27.3125 C 29.738281 27.242188 29.960938 27.074219 29.960938 27.074219 L 30.007812 27.300781 L 30.09375 27.238281 C 30.09375 27.238281 30.117188 27.863281 30.058594 28.042969 L 30.003906 28.21875 L 30.148438 28.265625 C 30.148438 28.265625 30.347656 28.535156 30.261719 28.621094 C 30.460938 29.1875 30.535156 29.542969 30.535156 29.570312 C 30.535156 29.601562 30.566406 30.632812 30.566406 30.632812 C 30.566406 30.632812 29.886719 30.828125 29.511719 31.492188 C 29.132812 32.15625 29.167969 32.355469 29.167969 32.355469 L 28.78125 32.355469 C 28.78125 32.355469 28.597656 32.058594 28.597656 31.96875 C 28.433594 31.835938 28.433594 31.628906 28.433594 31.628906 "/>
<path style=" stroke:none;fill-rule:nonzero;fill:rgb(87.889099%,78.709412%,68.943787%);fill-opacity:1;" d="M 29.695312 27.867188 L 29.875 27.28125 L 30.046875 27.632812 L 29.925781 27.976562 Z M 29.695312 27.867188 "/>
<path style=" stroke:none;fill-rule:nonzero;fill:rgb(87.889099%,78.709412%,68.943787%);fill-opacity:1;" d="M 29.488281 28.078125 C 29.488281 28.078125 29.75 28.132812 29.773438 28.132812 C 29.792969 28.132812 29.8125 28.1875 29.8125 28.1875 L 29.765625 28.425781 L 29.695312 28.476562 C 29.695312 28.476562 29.527344 28.339844 29.472656 28.375 C 29.488281 28.335938 29.472656 28.316406 29.472656 28.316406 L 29.492188 28.253906 "/>
<path style=" stroke:none;fill-rule:nonzero;fill:rgb(87.889099%,78.709412%,68.943787%);fill-opacity:1;" d="M 29.851562 28.222656 L 29.8125 28.414062 L 29.890625 28.414062 L 29.980469 28.222656 Z M 29.851562 28.222656 "/>
<path style=" stroke:none;fill-rule:nonzero;fill:rgb(87.889099%,78.709412%,68.943787%);fill-opacity:1;" d="M 29.613281 28.609375 L 29.925781 28.441406 L 30.003906 28.503906 L 29.78125 29 L 29.472656 28.953125 L 29.613281 28.742188 "/>
<path style=" stroke:none;fill-rule:nonzero;fill:rgb(87.889099%,78.709412%,68.943787%);fill-opacity:1;" d="M 29.390625 29.160156 C 29.445312 29.175781 29.695312 29.199219 29.695312 29.199219 L 29.390625 29.675781 "/>
<path style=" stroke:none;fill-rule:nonzero;fill:rgb(87.889099%,78.709412%,68.943787%);fill-opacity:1;" d="M 29.316406 29.261719 C 29.308594 29.285156 29.304688 29.410156 29.316406 29.417969 C 29.332031 29.425781 29.277344 29.621094 29.277344 29.621094 L 29.125 29.746094 L 28.832031 29.996094 L 28.65625 30.070312 L 28.5 30.046875 L 28.453125 29.824219 L 28.789062 29.855469 "/>
<path style=" stroke:none;fill-rule:nonzero;fill:rgb(87.889099%,78.709412%,68.943787%);fill-opacity:1;" d="M 30.179688 28.722656 C 30.171875 28.738281 29.417969 29.898438 29.417969 29.898438 L 29.738281 29.785156 C 29.738281 29.785156 30.253906 29.09375 30.253906 29.082031 C 30.253906 29.070312 30.179688 28.722656 30.179688 28.722656 "/>
<path style=" stroke:none;fill-rule:nonzero;fill:rgb(87.889099%,78.709412%,68.943787%);fill-opacity:1;" d="M 30.253906 29.285156 C 30.222656 29.316406 29.4375 30.914062 29.4375 30.914062 C 29.4375 30.914062 29.226562 30.484375 29.226562 30.507812 C 29.226562 30.527344 29.074219 30.242188 29.074219 30.242188 L 28.863281 30.273438 C 28.863281 30.273438 28.859375 30.652344 28.835938 30.691406 C 28.808594 30.730469 28.558594 31.46875 28.558594 31.46875 C 28.558594 31.46875 28.703125 31.523438 28.714844 31.503906 C 28.726562 31.480469 29.011719 30.648438 29.027344 30.640625 C 29.039062 30.632812 29.125 31.066406 29.125 31.066406 C 29.125 31.066406 28.738281 31.910156 28.757812 31.910156 C 28.78125 31.910156 29.351562 31.296875 29.390625 31.285156 C 29.429688 31.269531 29.914062 30.597656 29.914062 30.597656 "/>
<path style=" stroke:none;fill-rule:nonzero;fill:rgb(87.889099%,78.709412%,68.943787%);fill-opacity:1;" d="M 30.15625 30.789062 C 30.179688 30.773438 30.519531 29.960938 30.457031 29.597656 C 30.554688 29.921875 30.398438 30.71875 30.398438 30.71875 "/>
<path style=" stroke:none;fill-rule:nonzero;fill:rgb(1.597595%,0%,0%);fill-opacity:1;" d="M 23.871094 28.296875 L 23.902344 28.519531 L 24.007812 28.585938 L 24.105469 28.488281 L 24.257812 28.585938 L 24.28125 28.484375 L 24.308594 28.6875 C 24.308594 28.6875 24.34375 29 24.363281 29 C 24.386719 29 24.328125 28.980469 24.328125 28.980469 L 24.277344 28.828125 L 24.203125 28.910156 L 24.214844 29.070312 L 24.183594 29.070312 L 24.121094 28.894531 L 24.273438 28.746094 L 24.253906 28.652344 L 24.191406 28.738281 L 24.042969 28.757812 L 23.921875 28.585938 L 23.898438 28.703125 L 23.980469 29.109375 L 23.898438 29.074219 L 23.824219 28.632812 L 23.824219 28.511719 L 23.867188 28.546875 C 23.867188 28.546875 23.859375 28.398438 23.824219 28.386719 L 23.828125 28.328125 "/>
<path style=" stroke:none;fill-rule:nonzero;fill:rgb(1.597595%,0%,0%);fill-opacity:1;" d="M 24.257812 28.222656 L 24.300781 28.398438 L 24.300781 28.222656 "/>
<path style=" stroke:none;fill-rule:nonzero;fill:rgb(1.597595%,0%,0%);fill-opacity:1;" d="M 23.910156 29.292969 L 24.480469 29.21875 L 24.601562 29.359375 L 24.484375 29.40625 L 24.464844 29.660156 L 24.539062 29.734375 L 24.710938 29.734375 C 24.710938 29.734375 24.582031 29.828125 24.628906 29.855469 C 24.671875 29.886719 25.164062 30.210938 25.164062 30.210938 L 25.363281 31.480469 C 25.363281 31.480469 25.316406 31.464844 25.316406 31.449219 C 25.316406 31.429688 25.136719 30.507812 25.136719 30.507812 L 25.152344 30.316406 L 24.761719 30.019531 L 24.570312 29.90625 L 24.503906 30.019531 L 24.523438 29.792969 L 24.441406 29.855469 C 24.441406 29.855469 24.320312 29.765625 24.335938 29.757812 C 24.347656 29.75 24.367188 29.507812 24.367188 29.507812 L 24.300781 29.347656 L 24.054688 29.398438 L 24.007812 29.683594 C 24.007812 29.683594 24.128906 30.234375 24.136719 30.222656 C 24.144531 30.210938 23.964844 30.019531 23.964844 30.019531 C 23.964844 30.019531 24.066406 30.410156 24.078125 30.433594 C 24.085938 30.453125 23.699219 29.707031 23.710938 29.699219 C 23.722656 29.6875 23.667969 29.414062 23.667969 29.414062 L 23.824219 29.75 C 23.824219 29.75 23.898438 29.976562 23.914062 29.972656 C 23.925781 29.96875 23.910156 29.292969 23.910156 29.292969 "/>
<path style=" stroke:none;fill-rule:nonzero;fill:rgb(1.597595%,0%,0%);fill-opacity:1;" d="M 25.023438 31.121094 L 25.113281 31.527344 C 25.113281 31.527344 24.722656 31.839844 24.738281 31.863281 C 24.753906 31.890625 24.578125 31.792969 24.578125 31.792969 L 24.6875 32.199219 L 24.484375 32.367188 L 24.890625 32.367188 L 24.796875 32.171875 C 24.796875 32.171875 24.878906 32.078125 24.894531 32.058594 C 24.90625 32.035156 24.863281 31.777344 24.863281 31.777344 C 24.863281 31.777344 25.027344 31.722656 25.039062 31.722656 C 25.050781 31.722656 25.199219 31.78125 25.199219 31.78125 L 25.160156 32 L 25.234375 32.007812 L 25.339844 31.652344 C 25.339844 31.652344 25.222656 31.675781 25.203125 31.675781 C 25.179688 31.675781 25.007812 31.664062 25.023438 31.664062 C 25.035156 31.664062 25.152344 31.5625 25.164062 31.558594 C 25.175781 31.554688 25.023438 31.121094 25.023438 31.121094 "/>
<path style=" stroke:none;fill-rule:nonzero;fill:rgb(1.597595%,0%,0%);fill-opacity:1;" d="M 25.171875 32.242188 L 24.914062 31.996094 L 24.992188 32.328125 L 25.074219 32.367188 C 25.074219 32.367188 25.140625 32.355469 25.152344 32.367188 C 25.164062 32.378906 25.171875 32.242188 25.171875 32.242188 "/>
<path style=" stroke:none;fill-rule:nonzero;fill:rgb(1.597595%,0%,0%);fill-opacity:1;" d="M 25.902344 27.03125 L 25.796875 26.8125 L 25.902344 26.742188 L 25.992188 26.886719 Z M 25.902344 27.03125 "/>
<path style=" stroke:none;fill-rule:nonzero;fill:rgb(1.597595%,0%,0%);fill-opacity:1;" d="M 26.433594 26.886719 C 26.433594 26.886719 26.511719 26.671875 26.523438 26.691406 C 26.535156 26.707031 26.648438 26.886719 26.648438 26.886719 L 26.539062 27.089844 "/>
<path style=" stroke:none;fill-rule:nonzero;fill:rgb(1.597595%,0%,0%);fill-opacity:1;" d="M 27.132812 26.847656 L 27.21875 26.691406 C 27.21875 26.691406 27.347656 26.8125 27.335938 26.847656 C 27.324219 26.882812 27.210938 27.089844 27.210938 27.089844 L 27.132812 26.886719 "/>
<path style=" stroke:none;fill-rule:nonzero;fill:rgb(1.597595%,0%,0%);fill-opacity:1;" d="M 27.824219 26.886719 C 27.824219 26.886719 27.84375 26.742188 27.859375 26.742188 C 27.878906 26.742188 28.023438 26.878906 27.988281 26.921875 C 27.957031 26.960938 27.910156 27.089844 27.910156 27.089844 "/>
<path style=" stroke:none;fill-rule:nonzero;fill:rgb(1.597595%,0%,0%);fill-opacity:1;" d="M 27.542969 27.136719 C 27.410156 27.144531 27.519531 26.960938 27.582031 26.992188 C 27.644531 27.027344 27.726562 27.128906 27.542969 27.136719 "/>
<path style=" stroke:none;fill-rule:nonzero;fill:rgb(1.597595%,0%,0%);fill-opacity:1;" d="M 26.90625 27.140625 C 26.90625 27.140625 26.777344 27.117188 26.839844 27.0625 C 26.898438 27.007812 27.09375 26.980469 26.90625 27.140625 "/>
<path style=" stroke:none;fill-rule:nonzero;fill:rgb(1.597595%,0%,0%);fill-opacity:1;" d="M 26.238281 27.164062 C 26.238281 27.164062 26.058594 26.933594 26.238281 26.988281 C 26.417969 27.042969 26.238281 27.164062 26.238281 27.164062 "/>
<path style=" stroke:none;fill-rule:nonzero;fill:rgb(1.597595%,0%,0%);fill-opacity:1;" d="M 26.238281 27.597656 C 26.238281 27.597656 26.15625 27.328125 26.238281 27.257812 C 26.277344 27.453125 26.238281 27.597656 26.238281 27.597656 "/>
<path style=" stroke:none;fill-rule:nonzero;fill:rgb(1.597595%,0%,0%);fill-opacity:1;" d="M 26.230469 28.074219 C 26.175781 28.074219 26.105469 27.867188 26.105469 27.867188 C 26.105469 27.867188 26.226562 27.691406 26.230469 27.707031 C 26.234375 27.726562 26.355469 27.921875 26.355469 27.921875 "/>
<path style=" stroke:none;fill-rule:nonzero;fill:rgb(1.597595%,0%,0%);fill-opacity:1;" d="M 26.238281 28.566406 C 26.238281 28.566406 26.101562 28.300781 26.230469 28.234375 C 26.296875 28.425781 26.238281 28.566406 26.238281 28.566406 "/>
<path style=" stroke:none;fill-rule:nonzero;fill:rgb(1.597595%,0%,0%);fill-opacity:1;" d="M 26.796875 27.425781 L 26.902344 27.253906 L 27.050781 27.425781 L 26.902344 27.570312 Z M 26.796875 27.425781 "/>
<path style=" stroke:none;fill-rule:nonzero;fill:rgb(1.597595%,0%,0%);fill-opacity:1;" d="M 27.527344 27.597656 C 27.527344 27.597656 27.425781 27.292969 27.527344 27.257812 C 27.617188 27.390625 27.675781 27.546875 27.527344 27.597656 "/>
<path style=" stroke:none;fill-rule:nonzero;fill:rgb(1.597595%,0%,0%);fill-opacity:1;" d="M 27.402344 27.890625 L 27.550781 27.707031 L 27.6875 27.890625 L 27.550781 28.101562 Z M 27.402344 27.890625 "/>
<path style=" stroke:none;fill-rule:nonzero;fill:rgb(1.597595%,0%,0%);fill-opacity:1;" d="M 27.546875 28.53125 C 27.546875 28.53125 27.425781 28.300781 27.519531 28.183594 C 27.664062 28.347656 27.546875 28.53125 27.546875 28.53125 "/>
<path style=" stroke:none;fill-rule:nonzero;fill:rgb(1.597595%,0%,0%);fill-opacity:1;" d="M 26.714844 27.902344 L 26.714844 28.15625 L 26.796875 28.261719 L 26.714844 28.3125 L 26.648438 28.3125 L 26.59375 28.15625 L 26.648438 27.933594 "/>
<path style=" stroke:none;fill-rule:nonzero;fill:rgb(1.597595%,0%,0%);fill-opacity:1;" d="M 26.925781 28.074219 C 26.925781 28.074219 26.910156 28 26.921875 27.945312 C 26.933594 27.90625 26.960938 27.878906 27.023438 27.890625 C 27.125 27.910156 27.171875 27.707031 27.171875 27.707031 L 27.207031 28.074219 C 27.207031 28.074219 27.105469 27.898438 27.101562 28.003906 C 27.082031 27.933594 27.050781 27.933594 27.050781 27.933594 C 27.050781 27.933594 26.917969 27.910156 26.925781 28.074219 "/>
<path style=" stroke:none;fill-rule:nonzero;fill:rgb(1.597595%,0%,0%);fill-opacity:1;" d="M 27.132812 28.109375 L 27.132812 28.234375 L 27.050781 28.261719 "/>
<path style=" stroke:none;fill-rule:nonzero;fill:rgb(1.597595%,0%,0%);fill-opacity:1;" d="M 25.941406 29.175781 C 25.941406 29.175781 26.292969 29.117188 26.457031 28.996094 C 26.621094 28.878906 26.902344 28.699219 26.902344 28.699219 L 26.433594 29.15625 L 26.261719 29.175781 L 26.484375 29.332031 C 26.484375 29.332031 26.21875 29.566406 26.238281 29.554688 C 26.261719 29.542969 26.25 29.359375 26.285156 29.332031 C 26.316406 29.304688 26.105469 29.222656 26.105469 29.222656 C 26.105469 29.222656 26.167969 29.449219 26.160156 29.425781 C 26.148438 29.402344 25.941406 29.175781 25.941406 29.175781 "/>
<path style=" stroke:none;fill-rule:nonzero;fill:rgb(1.597595%,0%,0%);fill-opacity:1;" d="M 25.753906 29.277344 C 25.753906 29.277344 26.027344 29.53125 25.992188 29.628906 C 25.9375 29.558594 25.847656 29.519531 25.847656 29.519531 L 25.796875 29.511719 "/>
<path style=" stroke:none;fill-rule:nonzero;fill:rgb(1.597595%,0%,0%);fill-opacity:1;" d="M 26.941406 28.800781 C 26.941406 28.800781 26.996094 28.972656 26.941406 29.085938 C 27.074219 29.070312 27.117188 28.894531 26.941406 28.800781 "/>
<path style=" stroke:none;fill-rule:nonzero;fill:rgb(1.597595%,0%,0%);fill-opacity:1;" d="M 27.484375 29.246094 L 27.335938 29.332031 C 27.335938 29.332031 27.433594 29.632812 27.484375 29.628906 C 27.53125 29.621094 27.605469 29.425781 27.539062 29.390625 C 27.46875 29.359375 27.484375 29.246094 27.484375 29.246094 "/>
<path style=" stroke:none;fill-rule:nonzero;fill:rgb(1.597595%,0%,0%);fill-opacity:1;" d="M 27.863281 29.4375 C 27.863281 29.4375 27.636719 29.640625 27.722656 29.71875 C 27.867188 29.652344 27.910156 29.523438 27.910156 29.523438 "/>
<path style=" stroke:none;fill-rule:nonzero;fill:rgb(1.597595%,0%,0%);fill-opacity:1;" d="M 28.050781 29.71875 L 27.863281 29.925781 C 27.863281 29.925781 28.011719 30.191406 28.03125 30.152344 C 28.046875 30.113281 28.164062 29.964844 28.1875 29.9375 C 28.210938 29.90625 28.050781 29.71875 28.050781 29.71875 "/>
<path style=" stroke:none;fill-rule:nonzero;fill:rgb(1.597595%,0%,0%);fill-opacity:1;" d="M 28.023438 30.320312 C 28.023438 30.320312 27.996094 30.546875 28.074219 30.667969 C 28.195312 30.539062 28.023438 30.320312 28.023438 30.320312 "/>
<path style=" stroke:none;fill-rule:nonzero;fill:rgb(1.597595%,0%,0%);fill-opacity:1;" d="M 28.070312 30.800781 C 28.070312 30.800781 28.046875 31.03125 27.945312 31.015625 C 28.027344 31.15625 28.070312 31.253906 28.070312 31.253906 L 28.1875 31 "/>
<path style=" stroke:none;fill-rule:nonzero;fill:rgb(1.597595%,0%,0%);fill-opacity:1;" d="M 25.753906 29.746094 C 25.753906 29.746094 25.625 29.957031 25.585938 30 C 25.71875 30.199219 25.753906 30.214844 25.753906 30.214844 L 25.894531 29.9375 "/>
<path style=" stroke:none;fill-rule:nonzero;fill:rgb(1.597595%,0%,0%);fill-opacity:1;" d="M 25.707031 30.320312 C 25.707031 30.320312 25.566406 30.5 25.707031 30.71875 C 25.832031 30.507812 25.859375 30.449219 25.707031 30.320312 "/>
<path style=" stroke:none;fill-rule:nonzero;fill:rgb(1.597595%,0%,0%);fill-opacity:1;" d="M 26.542969 30.046875 L 26.738281 30.214844 L 26.542969 30.214844 "/>
<path style=" stroke:none;fill-rule:nonzero;fill:rgb(1.597595%,0%,0%);fill-opacity:1;" d="M 26.839844 30.242188 L 26.9375 30.242188 C 26.9375 30.242188 27.035156 29.996094 27 30 C 26.960938 30.007812 26.902344 30.15625 26.902344 30.15625 L 26.699219 29.914062 "/>
<path style=" stroke:none;fill-rule:nonzero;fill:rgb(1.597595%,0%,0%);fill-opacity:1;" d="M 25.691406 30.800781 L 25.585938 31.054688 C 25.585938 31.054688 25.703125 31.3125 25.726562 31.277344 C 25.753906 31.246094 25.875 31.042969 25.875 31.042969 "/>
<path style=" stroke:none;fill-rule:nonzero;fill:rgb(1.597595%,0%,0%);fill-opacity:1;" d="M 26.230469 31.042969 C 26.261719 31.03125 26.84375 31.171875 26.851562 31.171875 C 26.859375 31.171875 26.898438 31.402344 26.902344 31.484375 C 26.910156 31.570312 26.914062 31.769531 26.902344 31.769531 C 26.894531 31.769531 26.765625 31.792969 26.765625 31.792969 C 26.765625 31.792969 26.753906 31.484375 26.769531 31.480469 C 26.789062 31.472656 26.738281 31.199219 26.738281 31.199219 "/>
<path style=" stroke:none;fill-rule:nonzero;fill:rgb(1.597595%,0%,0%);fill-opacity:1;" d="M 26.964844 31.152344 L 27.804688 30.960938 L 27.617188 31.09375 C 27.617188 31.09375 27.601562 31.246094 27.59375 31.253906 C 27.582031 31.265625 27.402344 31.253906 27.402344 31.253906 C 27.402344 31.253906 27.027344 31.4375 27.050781 31.417969 C 27.074219 31.394531 27.125 31.195312 27.132812 31.1875 C 27.144531 31.183594 26.964844 31.152344 26.964844 31.152344 "/>
<path style=" stroke:none;fill-rule:nonzero;fill:rgb(1.597595%,0%,0%);fill-opacity:1;" d="M 25.683594 31.597656 C 25.683594 31.597656 25.636719 31.429688 25.726562 31.464844 C 25.820312 31.496094 25.761719 31.5625 25.683594 31.597656 "/>
<path style=" stroke:none;fill-rule:nonzero;fill:rgb(1.597595%,0%,0%);fill-opacity:1;" d="M 25.546875 31.886719 C 25.546875 31.886719 25.472656 31.824219 25.496094 31.792969 C 25.519531 31.757812 25.671875 31.664062 25.671875 31.664062 L 25.722656 31.777344 L 25.585938 31.886719 "/>
<path style=" stroke:none;fill-rule:nonzero;fill:rgb(1.597595%,0%,0%);fill-opacity:1;" d="M 25.449219 32.039062 C 25.449219 32.039062 25.429688 32.015625 25.546875 32.003906 C 25.664062 31.992188 25.75 31.992188 25.722656 32.039062 C 25.695312 32.085938 25.601562 32.105469 25.449219 32.039062 "/>
<path style=" stroke:none;fill-rule:nonzero;fill:rgb(1.597595%,0%,0%);fill-opacity:1;" d="M 25.359375 32.359375 C 25.390625 32.351562 25.550781 32.234375 25.550781 32.234375 L 25.671875 32.359375 "/>
<path style=" stroke:none;fill-rule:nonzero;fill:rgb(1.597595%,0%,0%);fill-opacity:1;" d="M 26.171875 31.527344 L 26.316406 31.417969 L 26.421875 31.527344 L 26.296875 31.628906 Z M 26.171875 31.527344 "/>
<path style=" stroke:none;fill-rule:nonzero;fill:rgb(1.597595%,0%,0%);fill-opacity:1;" d="M 26.257812 31.84375 C 26.257812 31.84375 26.132812 31.714844 26.296875 31.664062 C 26.347656 31.804688 26.292969 31.808594 26.257812 31.84375 "/>
<path style=" stroke:none;fill-rule:nonzero;fill:rgb(1.597595%,0%,0%);fill-opacity:1;" d="M 26.140625 32 L 26.265625 31.964844 L 26.382812 32.039062 C 26.382812 32.039062 26.191406 32.167969 26.210938 32.132812 C 26.234375 32.101562 26.078125 32 26.078125 32 "/>
<path style=" stroke:none;fill-rule:nonzero;fill:rgb(1.597595%,0%,0%);fill-opacity:1;" d="M 26.117188 32.359375 L 26.210938 32.234375 L 26.296875 32.359375 "/>
<path style=" stroke:none;fill-rule:nonzero;fill:rgb(1.597595%,0%,0%);fill-opacity:1;" d="M 26.738281 32 C 26.738281 32 26.867188 31.972656 26.9375 31.964844 C 27.011719 31.960938 27.113281 32.039062 26.964844 32.082031 C 26.820312 32.121094 26.738281 32 26.738281 32 "/>
<path style=" stroke:none;fill-rule:nonzero;fill:rgb(1.597595%,0%,0%);fill-opacity:1;" d="M 26.777344 32.324219 C 26.804688 32.308594 26.902344 32.234375 26.902344 32.234375 C 26.902344 32.234375 27.082031 32.359375 27.058594 32.359375 C 27.03125 32.359375 26.777344 32.324219 26.777344 32.324219 "/>
<path style=" stroke:none;fill-rule:nonzero;fill:rgb(1.597595%,0%,0%);fill-opacity:1;" d="M 27.519531 32.359375 L 27.644531 32.359375 L 27.582031 32.234375 "/>
<path style=" stroke:none;fill-rule:nonzero;fill:rgb(1.597595%,0%,0%);fill-opacity:1;" d="M 27.386719 32.039062 L 27.582031 32 L 27.703125 32.019531 L 27.519531 32.117188 Z M 27.386719 32.039062 "/>
<path style=" stroke:none;fill-rule:nonzero;fill:rgb(1.597595%,0%,0%);fill-opacity:1;" d="M 27.566406 31.886719 C 27.566406 31.886719 27.453125 31.804688 27.519531 31.664062 C 27.597656 31.738281 27.566406 31.886719 27.566406 31.886719 "/>
<path style=" stroke:none;fill-rule:nonzero;fill:rgb(1.597595%,0%,0%);fill-opacity:1;" d="M 27.335938 31.523438 C 27.335938 31.523438 27.484375 31.496094 27.5 31.417969 C 27.625 31.472656 27.644531 31.523438 27.644531 31.523438 L 27.488281 31.628906 "/>
<path style=" stroke:none;fill-rule:nonzero;fill:rgb(1.597595%,0%,0%);fill-opacity:1;" d="M 28.117188 31.597656 C 28.117188 31.597656 27.980469 31.515625 28.070312 31.457031 C 28.148438 31.511719 28.148438 31.597656 28.148438 31.597656 "/>
<path style=" stroke:none;fill-rule:nonzero;fill:rgb(1.597595%,0%,0%);fill-opacity:1;" d="M 28.070312 31.777344 L 28.148438 31.691406 L 28.355469 31.753906 L 28.242188 31.886719 Z M 28.070312 31.777344 "/>
<path style=" stroke:none;fill-rule:nonzero;fill:rgb(1.597595%,0%,0%);fill-opacity:1;" d="M 28.117188 32.027344 C 28.085938 31.980469 28.492188 32 28.421875 32.027344 C 28.347656 32.054688 28.230469 32.191406 28.117188 32.027344 "/>
<path style=" stroke:none;fill-rule:nonzero;fill:rgb(1.597595%,0%,0%);fill-opacity:1;" d="M 28.148438 32.339844 C 28.175781 32.320312 28.175781 32.246094 28.210938 32.234375 C 28.246094 32.222656 28.402344 32.339844 28.402344 32.339844 "/>
<path style=" stroke:none;fill-rule:nonzero;fill:rgb(1.597595%,0%,0%);fill-opacity:1;" d="M 30.019531 27.3125 L 30.078125 27.234375 C 30.078125 27.234375 30.15625 27.527344 30.078125 27.664062 C 30.007812 27.371094 30.019531 27.3125 30.019531 27.3125 "/>
<path style=" stroke:none;fill-rule:nonzero;fill:rgb(1.597595%,0%,0%);fill-opacity:1;" d="M 29.792969 28.148438 C 29.804688 28.1875 29.683594 28.523438 29.6875 28.503906 C 29.695312 28.484375 29.574219 28.328125 29.574219 28.328125 L 29.472656 28.417969 L 29.582031 28.457031 L 29.472656 28.480469 L 29.574219 28.640625 L 29.792969 28.542969 L 29.859375 28.457031 L 29.839844 28.359375 L 29.933594 28.210938 "/>
<path style=" stroke:none;fill-rule:nonzero;fill:rgb(1.597595%,0%,0%);fill-opacity:1;" d="M 30.019531 28.25 C 30.019531 28.25 30.113281 28.292969 30.113281 28.316406 C 30.113281 28.335938 30.019531 28.507812 30.019531 28.507812 L 29.902344 28.441406 "/>
<path style=" stroke:none;fill-rule:nonzero;fill:rgb(1.597595%,0%,0%);fill-opacity:1;" d="M 29.386719 29.144531 L 29.386719 29.695312 C 29.386719 29.695312 28.914062 29.894531 28.859375 30.035156 C 28.800781 30.171875 28.714844 30.359375 28.714844 30.359375 C 28.714844 30.359375 28.863281 29.894531 28.972656 29.800781 C 29.082031 29.703125 29.269531 29.691406 29.28125 29.671875 C 29.292969 29.65625 29.351562 29.230469 29.332031 29.253906 L 29.105469 29.5625 L 28.914062 29.753906 C 28.914062 29.753906 28.972656 29.59375 29.066406 29.503906 C 29.164062 29.414062 29.386719 29.144531 29.386719 29.144531 "/>
<path style=" stroke:none;fill-rule:nonzero;fill:rgb(1.597595%,0%,0%);fill-opacity:1;" d="M 29.5 28.949219 C 29.503906 28.9375 29.613281 28.714844 29.613281 28.714844 C 29.613281 28.714844 29.757812 28.695312 29.777344 28.714844 C 29.800781 28.730469 29.984375 28.5625 29.976562 28.585938 C 29.96875 28.605469 29.800781 28.785156 29.800781 28.785156 L 29.632812 28.800781 "/>
<path style=" stroke:none;fill-rule:nonzero;fill:rgb(1.597595%,0%,0%);fill-opacity:1;" d="M 30.230469 28.664062 C 30.230469 28.664062 30.386719 28.863281 30.332031 29.027344 C 30.277344 29.191406 30.246094 29.378906 30.160156 29.519531 C 30.074219 29.664062 29.65625 30.085938 29.636719 30.136719 C 29.613281 30.1875 29.476562 30.363281 29.402344 30.214844 C 29.613281 29.980469 29.703125 29.921875 29.703125 29.921875 L 29.703125 29.839844 C 29.703125 29.839844 29.925781 29.589844 30.042969 29.433594 C 30.164062 29.28125 30.246094 29.148438 30.238281 29.039062 C 30.230469 28.933594 30.203125 28.6875 30.203125 28.6875 "/>
<path style=" stroke:none;fill-rule:nonzero;fill:rgb(1.597595%,0%,0%);fill-opacity:1;" d="M 30.367188 29.300781 L 29.953125 30.539062 C 29.953125 30.539062 29.980469 30.617188 30.046875 30.484375 C 30.117188 30.351562 30.140625 30.238281 30.140625 30.238281 C 30.140625 30.238281 30.25 30.234375 30.261719 30.222656 C 30.269531 30.210938 30.359375 29.679688 30.367188 29.660156 C 30.375 29.636719 30.367188 29.300781 30.367188 29.300781 "/>
<path style=" stroke:none;fill-rule:nonzero;fill:rgb(1.597595%,0%,0%);fill-opacity:1;" d="M 29.097656 30.769531 C 29.097656 30.769531 29.140625 31.28125 29.023438 31.382812 C 28.996094 31.175781 29.023438 31.160156 29.023438 31.160156 L 28.714844 31.8125 L 28.617188 31.71875 L 28.96875 31.089844 C 28.96875 31.089844 29.042969 31.082031 29.050781 31.070312 C 29.054688 31.054688 29.097656 30.769531 29.097656 30.769531 "/>
<path style=" stroke:none;fill-rule:nonzero;fill:rgb(1.597595%,0%,0%);fill-opacity:1;" d="M 28.578125 31.40625 C 28.578125 31.40625 28.25 31.382812 28.269531 31.40625 C 28.285156 31.433594 28.59375 31.742188 28.535156 31.710938 C 28.476562 31.675781 28.636719 31.550781 28.617188 31.554688 C 28.59375 31.558594 28.480469 31.472656 28.480469 31.472656 "/>
</g>
</svg>
